<mxfile host="65bd71144e">
    <diagram id="HIP3nbAZw_EuaXWnEj3U" name="Page-1">
        <mxGraphModel dx="606" dy="531" grid="1" gridSize="10" guides="1" tooltips="1" connect="1" arrows="1" fold="1" page="1" pageScale="1" pageWidth="850" pageHeight="1100" background="#ffffff" math="0" shadow="0">
            <root>
                <mxCell id="0"/>
                <mxCell id="1" parent="0"/>
                <mxCell id="7" value="http://ics2o.mths.ca" style="swimlane;whiteSpace=wrap;html=1;" parent="1" vertex="1">
                    <mxGeometry x="40" y="40" width="760" height="480" as="geometry"/>
                </mxCell>
                <mxCell id="8" value="Multiplication" style="whiteSpace=wrap;html=1;fillColor=#b0e3e6;strokeColor=#0e8088;fontColor=#000000;fontSize=21;" vertex="1" parent="7">
                    <mxGeometry y="20" width="760" height="60" as="geometry"/>
                </mxCell>
                <mxCell id="9" value="Enter the two numbers below that you would like to multiply" style="text;html=1;align=center;verticalAlign=middle;resizable=0;points=[];autosize=1;strokeColor=none;fillColor=none;fontSize=21;fontColor=#000000;" vertex="1" parent="7">
                    <mxGeometry y="80" width="590" height="40" as="geometry"/>
                </mxCell>
                <mxCell id="10" value="" style="shape=image;verticalLabelPosition=bottom;labelBackgroundColor=default;verticalAlign=top;aspect=fixed;imageAspect=0;image=data:image/png,iVBORw0KGgoAAAANSUhEUgAAAggAAAHWCAYAAAASIHGhAAAAAXNSR0IArs4c6QAAIABJREFUeF7sfQeYZEd19Xmdc+6etDMbZ6N2pZUAgSSUkYQSJv5k2Ujw2wIMtgEjw28BBgw2QWCCwdgGbAwGRFBEWUIRIQkUNs7uzs7s5J7OOb7/u/W6Z3pnZ6arZ7p7umeq+CRW2+/VqzpVr96pW/eeK8myLEMUgYBAQCAgEBAICAQEAhUISIIgiPkgEBAICAQEAgIBgcBcBARBEHNCICAQEAgIBAQCAoFTEBAEQUwKgYBAQCAgEBAICAQEQRBzQCAgEBAICAQEAgKB6ggIC0J1jMQVAgGBgEBAICAQWHMICIKw5oZcdFggIBAQCAgEBALVERAEoTpG4gqBgEBAICAQEAisOQQEQVhzQy46LBAQCAgEBAICgeoICIJQHSNxhUBAICAQEAgIBNYcAoIgrLkhFx0WCAgEBAICAYFAdQQEQaiOkbiirgiQsrfEaixrfM/+l/InUQQCAgGBgEBg5REQBGHlx2BNtWA28YeMchYQRgskqYI2CKKwpiaF6KxAQCDQkggIgtCSw7I6G0XkgHKDxbN5HBjzYzKWANGCTpsJ2zrcsBh0UEmCHKzO0Re9EggIBNoNAUEQ2m3E2ri9mXwBR/xB3LP/OCLpFFSSivUmXyzCZzHh0m0bsdnngE6tbuNeiqavJQSyxQIK+SI7NVOpVNCpVJAEyV1LU2BV91UQhFU9vK3TuXQujxfH/HhycAShZA4qZiiY9Ueg/3Kb9Th3cy92dXmgUSnkQRSBQCsiQKR2MprAYCCMSCrL5rJZr0Wvw45el1WQ3FYcNNGmmhEQBKFmyMQNvAjQcQLtpnLFAp4aHMdTg6PI5AqQ2f8kSOSEULHbIs6g12pw2fYN2NPjrfBL4H2iuE4g0HgEiBwcnAjgt0eGEc/kmQWM5rqaLAhqFc7o7cC5m3qg06gZBxYWhcaPiXhCYxAQBKExuIpaZ6IUZDx7YgIPHBxClkyxixSyJ6gkGVq1Ctfs7sfODneJQJxsaRDgCgRWCoGiXMThyRDuPXAc0UyWEYPKIpXm74X9G3BmXwe0whK2UkMlnlsHBARBqAOIoor5ESCfg+dOTOCRIyPI5gqVxoJTbihbG5QfZJj0GlyydQM7biDCUA6NFFgLBFYKAbKE7RsL4KHDQ4hncqWZyjxvmZWALGBlumDSaXBBfx9OX+eFViV8alZqzMRzl4eAIAjLw0/cPQ8CtEimsnn84cQEHj4yhGLx5MgEOlqQqzpyybDodbh463rs7HJDKxwXxVxbIQRoPmfzBewf9+O+g0Mg4jtTZAmQTrYisGgdyHCbDbh8x0Zs8TjFMcMKjZ147PIQEARhefiJu+cgQIsjLaBPHx/D74fGkczmZ3ZaNQcwSoDTaMT5W9Zhd4+HWRGkOY6NYgAEAo1EQCG7OXZM9szQBLMc8B540XGD12LGFTs3Yb3L1shmiroFAg1BQBCEhsC6NistL5yPDJzAb48OKyZX2mEto5TNtm84fSuzJAiHr2WAKW7lRoD5FkhAoVDEs8MTePToKNL5HJvP9OHnmdfsfZBk6NUavOvsXeiyWbifLy4UCLQCAoIgtMIorJI2kBn2mWHyORhGvqCYXXl3W4tBQIssaSNcedoWbO9wQ60qqy6uEuBEN1oSAXKq/ePoBIjwpnMVxwo1tpZI7ka3DZft3ASPxVRSDK2xEnG5QGAFEBAEYQVAX42PjGeyePzoCJ4dmWTkYHl2gxJCJ7ELGXajHudt7sVp3eS4qK7PM1bjYIg+LRsBOhp76vgYC82lMEbleGtphe6jYIYdnR5c2N8Hp8mwtIrEXQKBJiMgCEKTAV+Nj0tkc3jq+CiePj6BfIEW08XtBtWsCpXe4GW8yvYIh1GPC/vXY1cXWRKEmNJqnE8r2Sc6Wkhkcnh6aBy/Oz6GfPFkB8Slto2cFklG/Ky+LlzU3wsDaSRUddRd6tPEfQKB+iAgCEJ9cFyTtdBiSgvoIwPDeG5kApnc4joHlR97IgFqjQZFEplhOzT+YjPqccm2DdjV6RI+CfywiSurISDLiGZyeOzoCbw46keuUIRMEQo1+NGcHK576gN1GhVesZ5IwvpS9MNS7RLVOiN+FwgsHwFBEJaP4ZqsgRbCQlHGPQeOsZ2WVq1VgrtK5oHFlj26V6PVwt3VjVwmi9DUhLIIzwkXWwhYqjuVz+GtL9uFXZ2K4+I8ys1rclxEp5eGAO3wyfj14KEhZg2jGcXrjMjzxFmrGCmL5vDanZtx9oZukZyMBzxxzYohIAjCikHfvg9WMjLm8NTgGH53fJR5dFc7NqjsLVkOHF4vDBbFqzsRCiMaCqFYUEIieQot3qSTQGJK2zpdQvueBzRxzbwIEDkIJzPsWOHZoXHkSfhICUHgQkylVjNFRbKGEdGluTm3zD02M2g1uGQ7HZV5oBcaH1w4i4uaj4AgCM3HvO2fGEll8NgxMsNOMzMsFT6CIEOnN8Du6YDepJ9dgOncNxpDNDCNQr4KSah4ENESu9GA8zavw+5uLzRMcVEUgQA/AkQOQskMOybbNz5VCl/kJ7xqrRZ2txu5bBZxIrlELjgeT9e4LQZcum0DtniFkBIHZOKSFUBAEIQVAL2dH0kOiY8eGcEfRyeRq5JbYW4/tXodHF4fDCYzU5qrLMw5LBJBNBCc15Iwn+NimZg4TXpcun09C4Fcuq95O4+KaPtSEKAZOB1P4rGjIzg4MY0apzM7JnP6fNCbzYzYRvx+JGOxGpoiw2c14cpdm7HOYRX+NDUgJy5tDgKCIDQH57Z/Cn3QSefgjpcGcXByGkXSOWBbJbIgLLxzL5/janQ6ZTE1mRbGgkhCOIbw9CSKRdK354eNUu2+bnc/NnkdXDs4/prFlasJgbIBiuYzWcJ+s38QR/whxXeGu8jQGQxw+TqgNRgUqks+OfkcpscmkE2navjYy+iwmfGmM7bDZRbhj9xDIC5sCgKCIDQF5vZ+CJlNyXJw34HjeGF0Chq1xHhB9XwKSr81Wg2cHZ0wmM3srHYxT29yOIyHwghPT0GuGmJWed6g/Pkte7djs9cBjQiBbO9J18DW03xOZnO4/YUBDEyHIC1CcMvNqJyzGp0GTl8n9EbzSY61NHflQhGTw8PIZTPKrdWcb0mVsQhs8jjw+jO2wqTVzJILvnO7BiIlql7rCAiCsNZnQJX+02IaSKTw9PFxPD/qR2FOSOLint7KTsvu8Z5kOWAL6SJbNuW4IYxYMFTdJ6Gi/WRxcJtNuKC/F1t9TkESxNwuIVA2D0hs/o5G4nj8yAgG/EFIEp/fivKtpvlshM3thoEsYfOYuGhuZ5JJhKamkMuUSALXOMjY1eVlc9dlMtRggeCqXFwkEFgSAoIgLAm2tXPTdCKFhw4dx9HpsOJzwMz+PLZ/GXqjEQ4yw+r1NQFGiyx5hKdiMUSmp1HI5ed9ZHmDVemfQGI0NpMOl/RvwI4ul/BJqAn51X0xHSuMR+K4/+AQhoOxU/xgFuu9LBehNxjh7OiC1qBbHCgZSCXiCPv9yOdyVd8WJbspmDromb0dLDmZniwJVe9c3eMlerfyCAiCsPJj0LItSOXyuHvfMeZzQJoH7CtdzWSq2FXZTotCGXVG45L7p1gSoowkyMX5tfDnt8LKIMVFyt2wyWOfZ6EVttslD0oL33jyqFb+F1EDCWORGO7dP4TRcHSOi2z1TpFjLc1nrUG/oPWLiCqLYihZFpLRKLMkENnlodT03mjVKrx6Sx9euaELKpWK877q7RdXCASWgoAgCEtBbZXfQx/mSDqL258fwGAwUqO5s8hIAZ3R1mo5mBdW5rgYRcg/yRzJaO1dKKLh5PuLMOp0uHZ3P7Z4HXMEaQRBWI1TWKEBZQvX7BjTfJ6KJ/HrFwYwEYlzHyuUMWLkwOeDRkdiYDUUWUYsFGKWBN4spEySGRJL7HRWr0+QhBrgFpfWHwFBEOqPaVvXyHwO4ik8eHgIByeDLN/BYv4C5c6WnbgolNHd2QVNjccKi4FGiysttNFAAMVCDVn1JBkmrZaFkfUzn4TyPo5vP9fWAykazxAgn4OJaAK3v3iEkYTFzPan+NNIEiO5ro7aj8kq4Y9M+ZlPDb1bXIWliFbj6t1bsNXnYr40gtJyIScuqjMCgiDUGdB2ro4+8uPRBNOiP+IPl44V+HpEC5jRbILd7WGhX/Uu1LYk6SQEAyjkFycJlRYGsjj4LCZ2rttPqaJriZ2sdydEfU1FgLIwHvWH8ciRIYxHUpjhhxytIFJqtFphdTqXbQmjaJzItB+JaIQjMocap9ABj8WIC/t70e91CREwjjETl9QfAUEQ6o9p29YYSqZx50tHMRSMnrLbqZaERjHDekF6B8stC+2WyFEsFSWdBNJhqOKTUD6PKCnmmrUaXHVaP/o7SCdBWBCWO0Ytf78MDAcjuGPfUQSTSRRlSg/Ot4OnuW622eD0eiFpNEvo6qkzOJ/LIzw1hXQivmh9J5FbAD6bCVfs2IheF/nSiCIQaC4CgiA0F++WfVo0ncEdLx7Fkenw7EJU4ZA4IzBT4YTFOiPLTBnR0UHkoLZohaWAwRwXQ2FEpgOQmUjTfOVUdzWVJMOs1eJ1e7Zio3c+x8WltEbc04oIkMjWYCCMX75wBKlMlukcsKyMRBZZxMD8n1olh4IKZosVNq8HqgpyUFtSxzkEgWWDJCGlPIKT48gkUzUcGcjY4LbjDadvg0k/N7JBHDy04vxbTW0SBGE1jeYS+kLnohT6RVkZR0LkwMW/T6ErFXLgA2nSN60UKbohhkiAdBkKjNDwOS6CRTdcun1DySeBLwa+af0SD1oGAoqLIs3nA+PTuPfgIBP3qiVVMz3cZLPB7vZCrSXLAZ/FoZZGZzMZBCfGkc+kSwqksxoNC9cjY73bgWt3b4HdoK+QX+C5t5bWiWsFAicjIAjCWp0RMokhypiMxvHQ4WEMBiKlYwVOgiABRqMJjs5OUHbGZpey4mKEOS7yZIFUPiBkZnYZjbh4+/oKx0XOPje7k+J53AjQpzKTL+DwZJA52JJFrJajJOZzYLPA7vZBrVFzP3cpF2ZSSYSIJJC+xwy1XXgOkmWDkqKd2duJC/v7YDPqaurbUtoo7hEIlCxuvK61ArDVhAATjQnH8dDAEIaCsZocEsnIYLTaYHW5oK2Dz8FScZWLRSSiUcSCQWa+reYnUTbIkt3AazUpDmAswZMo7YwAjWu+UGQy4I8fG2E5FvjEvJRek96A2W6HzeWG1PCMoIqtKx2PM30PygLJW3QaCXvXdeLczetgrjXkkvch4jqBQAUCwoKwRqdDMJnCT589iGly4GICifyfSYOFRGM6WI6FZhVmTC35P5Slmsv/T2JK5ABGToy8hUgOua39n5ftxEaPrab+8z5DXNd4BMpG9pfGpnHnSwOl9ON8c1m5twib0w2b28NOI0iJs6FFlkDqzkwpNBpd1OF2vnZQ887btA7nbOmBTlLXwoMa2i1R+epEQBCE1TmuC/aKzminYhQXPoCxqBIXzpZELoVExefATopyejJzNuKUtvYBIctBPBxhOzKW+YazkOnWotMyxcXNHgfTfBClvRBI5wp4ccyPu/cfYw2v9nmvdOsjgml12mF1e2oWT6oHSmQBI+tXLBysOm0rrWMmnQav2b4Bu7o9UHPmkqhHe0Udaw8BQRDW0JgXZJmFfj1wiOLCKW999Q/iTL6D0rEC6RwoDlwtVphOQgzhgL/kk1DtU1FuvwyP2Yjz+/uwtcMFrSAJLTaw8zSnNCnTuTx+PzSBpwbHkMrnq5KDk2qSZNhdHlgcTkhq8jmov0MiD5CMJASCiIZCNbXBqtfhsu0bsL3LrVg95BLHLz1UxDfwoC+uqYaAIAjVEFolv9MO5EQohocHhnEiFEWBZIs5+6b4HFhZVsaVcEjkbCa7jFJFk5gSj+LirAVEhtdixEVb1zPluloiOWppm7i2PgiQ/0wyk8MzwxOMIFDOEP4iMydEi9MFq8MJZu9fIXJQbnOxUGRyzMlomMMGotxFBMCi1+Ca0/pZvpG51i9BEPhnhLhyYQQEQVgDs4PIwXAwirv2HUMwmWbOfGSI5yEIRA4o9IscuJoayrjEcWGOi5EoooFpds67eJmlCHTQ4jbrcfmODdjopSyQorQiAkQOqDx4aBjPnZgAHTHwFhpTlVrN0jWb7PaWIoKkDhr1TyERi3K+mUqvux1mXL5jI3oc5EdT1mDkRURcJxCoskLKPEL7AsW2RYA+kf5oAv/19EvMDFtrXLjBYoKro4strK1WFtolkQUgQmbbaUqSI0NmQjXVC12bzRVx3St3Y6PH3niHtepNElcwBJSRpngrIgj3HhjEk4PjFbk16Bqa6QsfmRElVqnUcLg7YHbY+Nhxg9FXejXbbkprHpycRDqZ4Cao5FO0wW3DtXv6mcZHLc7GDe6eqH4VICAsCKtgEBfqAmnRD4diePDgcYxF4iwVIt+nki6VYLLaYPO4W/5YYb7+k/59LBhALBwGWRXmLRXkoYwLkQS3yYiLt63HJq8DWlUlMRKG25V5XRS7QTSVxVPHx/DEsbE55KDazlmGSqOF3e2G2e5Y8SOFxTDMJJPsuCGXoVDNxcusumkRu7o8uHTHRtj0lUJK1WoQvwsEhAVhDc4BmYUuDvhDzOfAH0vMJMJdDIwZ8qCSYLEr3t0UI96uRTluoARPQS6fhHI/6VjFbTbigi292NbpqvAUFwRhJeYC0YNoOotHB05g38Q0svn5Cd98UTVkICWnWqe3A0aLWckX3spFBrLpFIITE8jlctyEnuQbdnR68dpdm2DQqGuQcm5lMETbVhoBYUFY6RFowPOZQ2Iwit8cGGQhjaQgyFvIcmC2W2F1eaBWa0m8nvfWlryOSEI8rDguklWhepnZl7HoBpJl3uJzMmMwP4rVnyKu4ERAlhHNZPHIwDBeGPWDawgrqqbkYeRcy8hBG5V0LIGQfxJ5OhacI8q8cDdkvGJ9D169pQcmIaTURqPduk0VBKF1x2ZJLSNycHQ6jF8+fwjpnLLTqmXfa3U5FEU5ZlpvFaWDJUExcxM7bggFEQ0EuCqqxMuq1+LaPZux0SMcF7nAq8NFlfjnijJ++cdDODwVYlLgjKRJRUA+1bI1d55TtILT1wGD2dISPge1QEO8nFRCQ1OTrN+8sRY6jQrnburBKzZ0Q9eCfkO1YCCuXXkEBEFY+TGoWwtIbnYoFMWvXziCRDYz45xXbedbFmEx2+xw+DqUyK82LQuSIUliTouxYIhFcXAXSYZWUuENe7dhk8cBTRsfuXD3uQUupI9iNJXBHS8dxRF/EOqTfEEWbyCLVlCp4erqgsFsVhQ2W/1ooaJLrKk0RWUitiGwfCNlcrRA12fTNhVh1ulw5a7N6Pe5oFZVe/tbYLBFE1oWAUEQWnZoamtYrqAkqnn06An44+marAZMi95GPgcuqNSNyWJXW28aczUTpQmF2JEDj05CuRW0YPssJlzQ34ctpLjYcL3+xvS/XWolAjcZS+C3R0ZweCowbxTKQkSQ/l6n18Pu9cBottRGBlsKIIUlUCKyaCDI5i2vPgfxX6eJspaSrodbkISWGtf2aowgCO01XjMJiUqBXyUiIOHQZBD3HzqOUJLSyPKF9tFCTOGLJBhjdTkhrYHdsZLgKcIWXT6SoCBNi7PLpGfqdZu9Tu7Fus2mV5ObO7vvLT+YHBL9sRR+s38Qo+EIFvBHPLmdMzLhMnRGIxweH3RGQ5P70rjHFfMFhP3TSETDNcw7GQ6jAVedtplZvmo5ZmxcT0TN7YaAIAjtNmIV7aWXnkyPQ8Eo7nxxAOEUf2Y4qoaOEqwOF1OVo/PamkzvbYwbCSjFwyHEArQ7raUjMtxmA64+bQt6nbbSYi2W3loQnPfaEoREDgLxFBP0GgqESyqHi+sbzBILwGA0wOH1QWswtnQo41LwIj8aShGdTMS4tEwU/Q8ZHVYzrt7dj067BSpBE5YC/Zq+RxCEdh1+GcgVi3hxbBr37D/G/lx52lgt9TEtIBSpYHWSQ2K7grD0dtOCGw0FmA4+b5HI5AsJdqMWr9u9FX0umxBT4gVvkeuU43YZU9EkbntpAJPR+IzoEY+bLDtW0Gnh6uyC1kCWAxqpWmJ36tCJJlSRz2YRnJxANpni9qkgbPqcVuaTQCnOhUdCEwZqFT1CEIQ2G0y24ZVl5IoF5tlNiZdi6WxNO2HyOSCpWbuHstit4SWj7LgYWkRMaZ4oEBoDh0HJArnBbReOi0t9h0qWg0KxiNFwHHftP8rCcin5EKlf0meelD8XE8Kk6avVG+Du7IZa14JJxJaKzZz7yqnNiRxQ+GM2k+X+2KslCaf1eHBhfx9sBn2dWiSqWQsICILQhqPMLAejU3ji2AhCSVJc4//Iq7VqWOwOmB3OthZBqtewMZ2EEKXcjXD5JJQPFGjB7rKZcWF/LzZ6HCVLgjhuWMq4DAbCeOTwCYxEYtxEV7GQgYUwks6Blj58tZ0XLaWpK3+PLDMp5vCUvyYhJa1ahT09XuZoa2ZEin/NWPlOixasFAKCIKwU8pzPZZ+cme+O8ofnTkzhocNDSOUUnwP+XANgi6mZEtWsAYfEahCXd2WKmFIU0eA0k2Xm/czT0YxFp8Hr99BxQ2sl/6nW91b4nT7yQ4EofvXCYcSzeSUcseqHi87WFQu7qZxhVKtthe40rw2yjFQijunRsZosgGpJxhm9nbhk23roNJqqSDevQ+JJrYqAIAitOjLztItyK5Ca3J0vDZSSv9eyC5Bhc5PPgQuSiI0+Bd1iSUwpFvAvmvSHyFpROllCymbQ4A2nb6twXGyjSbVCTSUfgcFAFLf+4SDLyFieyTw+o0QsTGYzHJ2dbZknpB6QE7mlaJzQ5CSXQijhqpJkZum6eOsGvHx9lxL+yMuG69FoUUfbISAIQhsMGS2mmXwBfzwxhUePDpdS3C5ODmadFCmUUcXUEYkc8CzAbQBJQ5qoHDeEEQsFQISBt9CVPosBl27boBw3qFRid7YIeCTodWgqiIcPDyFIDnelLIw8DokELB0rOH2+NUsOytDSOx4PhViukYUSkp1sgVTMkWatlvkj7OnxQSM0PXhf8zV5nSAIbTDsqVwO+8YCePzYCKLpU30OFotYIFEfIgfkcyC+WnyDHQsqwjTz6SScGrmv1EkkjsSULt22npEEtTjCmRfsQlHGockAHjg8xDQ7iEotTsVmt7hKhlErnJ0dLDNG+b61vAku5AuIBqaRjEa5wpQVwiDDaTbgsh0b0S80PfgWhTV6lSAILT7wmUIBvxscwzNDE0hksyx4i/dggbQN7C43jDab8DmoYZyJGCTCYcTCRBJI95/OFFgw3rxn5MrfktOcCp02hSSsr/BJKP++1hjaXLTId+CFMT8eOzqMIAl6LRaeMDNeig4CSyJGap8uF8jRdq1hudj0LeRzLM9IPBJll3GtD6QOajXh6l2b0e2w1LCq1PAiiUvbHgFBEFpgCJWY7flf6yePjeLBgWEU5SJzRqRzRB6nRLIqkBnWbHcIn4OljDHp4IdDiE6TmBL/cQPpS6gl4F0v340el1UsvCWWQEc2z49O4bYXB9jZN88crhw2UvuksFwI/5l5Z3Mxn8f02BgyqVRNjovEta5/1RlwW43MmiN8EpayWKzeewRBaMGxpTWVjhXI5+DhgWHki0Qg+A2pdKxAi6nJZucWVGlBGFakSZXHNaS4SMcN8TCd8S7cnErHReW4AXCblIQ5613kk0Dkj08RcEU63ZCHzs7XbL6AF8f8eODwMLJ5IrqKqBcP7aJIEZPNxuSTReTN4gOVz+YRnBhFNk1y69XsCGW7VhGb3A5cvnMTS2+uZMusdm9DJoyotAUREAShxQaFXttMLoenh8bx9PEJpHIFzqVU6Yhao4HT44HRZmfn4qIsDwElBDLCiEKxmOdYeJXnEaHrsCkJnjZ7nKWEOWtr4aXZl87l8YcTk/jd8THEM7maBoOcPS0uF9PtIEdbUaohICGbTiE8NVUiCYtdXyZwMpubOzs9uHDretiNOmH1qgbzGvpdEIQWG+x0Po/nhsbx1PFxJLL0QeIvGq0WNpeL7bjELoAft0WX0dLxgmJJKPkkzLlhPtuOQs1kJqZ08bb1LGEOv/dIfdq+srWQ2qeMZ4fG8fixMSSz85ODhexilETM4nAwn4M1rfZZ0yDSEUERqXgC4Wk/CkwnhY+Ukk/ty/o68erNvTDqtJx31dQ4cXEbIiAIQosMGi2U2Xwejx4ZwbPDE8iSc1wNRa3VwOHxwmixCHJQA268l5LjIkvwRCFlHIaZ8oePrLVeixFXn7YZ3XbrzMeO/8CIt4Ured0p7ohI5wt49Mgo/jgyUQrLnb99c6NC6L/pY0WaHeSUSERBFH4E2GEWqS3G4ghOjZfCH+lvqxEFGTqNGmdv6ML5W/rY/mJtEVp+jNfSlYIgtMBo06JI592PHxvFQ4eHoZYo7xrHV6jUdlkuwNPTq5ADURqGAEUpRPzTiASnmaxvtZ0t+9ixkZRRKBRw/TlnoMdZSvC0uhjCDOYzRPfoCB4bOAGNRlWzQyIRXSIIRZmO10RZEgIkpBQKIuyfYrcv5hRa6XeTLxZwzWlbsLevk4kqseAdKtX4xZIaKW5qdQQEQVjhEaKPByVb+t3xcTw7PIlcoexzwPFGSgA7VnD7YLKaV7gna+Px5JMQDQWZoNJC4jRsPVXyDLFjBtqNFWWJhUBesnU9S/C0GnUSlLmcw7PD43j2xDhS2epWsEqeRGG5VqcTFqbZocz/VcqjGv6ylC0JLPwxFKopEkenVuGynRuxq8sDnbDgNHysWvkBgiCs4OjQ4kfyyY8cHmL5Fcgsy0/WZWh1etjIIVFYDpo6imTtSUYiTMFuPjGlhRpDFocOq5Gp2G32OldVqmgWeZPN4ZEjJ/DiqB+ZfMmhs5w4YdERkqHR6mBzu2G0WpiehCj1QYB0PGLBAOLhcFWSMEvGinBbTHjNto2Sfl3FAAAgAElEQVTY4nVUtZTVp6WillZEQBCEFRkV5QAhmc3jycFRPDs0gUxBCf2qVijOnsyFWp2WhTLqzbSgKqeF/IcS1Z4ifl8IgfIiSiSBskDS7myuLPPMQjtn+1sen06bEZdt38BCIKsdU7TDSChzOYdHBobx/MgUI71zbdILWarJvK3RqmH3+GC0zvpolPstLAjLnwGFfB4Rvx/JWIyrMlJaJOtXp83Mwh97HVZm0eFZn7geIC5qGwQEQWjwUDGRnTkvF9EDilB44OBxttua78O+2MJIjlvuzi7ozUZxONjg8VusenbcMD2NWDh80mULjV3l31M42RvP2Ipuu60i4KQ9P4fhVBr37BvEYX9oQbjmIwgyilBJKni6uqE3m4VzbYPmMn3Yc7ksguNjyKYyXDgryh1FdNmseNOZ2+Ew6Epktj3naIOgXfXVCoLQpCEuOwIxD+NcHo8eHcHvh8ZBOYFqYeYkuuPq6mbHCrUo/DWpm2vuMWQBCE5OsiMHNsa0+6LkQzPeXadCQhoJRUmGSa3GG/duZ6mi29EngXoaSaZZ6vH9EyHmPc9nyVLoAvkcuDq6YCjNZa7TiDU3w+rXYbmQx9SJYeRYyGmVVafkREOiVhs9Trzh9K0w6jVK7gwOB936tVrUtJIICILQZPQjqTSeODbKZGdzBf5DAXqdtQYDO6c10G5LlJZBgCkuMi38yKKOi7MNVnZh5IfXbTfjgi19ShbINlOwm44nWQKxAxPBknNtZdLmxT9AWr0edprLwn+mafOYyGwmkUTIP4lcOlviCNUtAnTF7m4PC390mfUi/LFpI7byDxIEoWljIIOOZm978TAOToaQq0nnQIZGp2e5FQxGI+Q2+5A0DeIVfBDTSYgoiouLpt6d00ZatN0mPTvr3eixt8XiSx+MaCqDO/cdxfFAGLVMZfKh0egMsHu9MJhMM2go2Rn5CfMKDnV7P1oG0okEwv5J5HP5ikRki3SLxkylwpm9JKTUA6NWuyp8Z9p7IJvTekEQGorzLDunBfXufUdxyB8qGfc4DxZkQKvXwdHRAb2RfA5EaQUE6MOuHCnMJiUkksAUFymsbE4jFwsnpw+j12LAVbu2oNdJPgmcc2MFgKB+hBJp3LXvKAaDEW7PWOVNKLKwXGdHF/QV5GAFurHmH0npocN+f01ROCSkdGF/L17e11XKL7LmYVz1AAiC0IghnuPGHkll8MChIewbJ9ES/hAu+gCRKdbd2QmtgciB2GE1YrjqWadcKCBCxw2cjovlZ9PIukw6XLNbIQkq5sdQ+evKkwaK1piMJfCbA4M4EYqxmVxtRlYasHUGPVydXdDodPWEXNRVKwJMkVlGLETZSmtZkxRNj9fu2oQzejpAuTJWflbW2nlxfS0ICIJQC1q1XMt2ljKIHDx5bAzPnZhgDonVSqUDEJEDF5EDvb7abeL3FkKALAChqSkkSj4JPI6L1HyaL26jHq/dtQXrXbaWclwkB8SpWBIPHjqOYwGKqa/h0yABOoMBTl8HNHo6wxalFRAgp9CIfwKJSOwkh+eFnBDL46bVqBiR3epzsaMHUVYvAoIgNHBsw8kUk04+MBlEgYcdlNpCL6LeZIbd7YHWKMhBA4eoLlXPt6AqAjVBxCOLKy7ObQA5Kq5zWnFRfx96XdaST0J1R7K6dGSBSshyMBSM4rFjoxgKhkvRCnwOibTjpBBGm9MFHfnPCA/4Rg5V1brLR2MzF8oyO2pIRKOcDrbKnZQa+sKtvegXJKEq5u18gSAIdRo9ZhwoZfGhRZGSLf3vswcwHIyxBZV3YWTHCjrFFKs36Emod9GQuTo1X1TTAAQUMaVygicO81GpDSoJsBv1eMuZO+C1GlfccZGOE371wmFmDZtJVEUWhEVCOctwkt8MsxzQsUKJU/C+Cw0YElHlPPLVJKREORtSsTgXPjR+RGR9NjMu27EBvU4ryx8jyupDQBCEOo8pfQZIOOaOFwdwdDoGWuyp8JhV6cXTGXTw9PRAo9ULnYM6j02zqjvJcbEkpkREYW4K7rJdYL4PJjkuus1GFn/eaTevCEkoyEUMh+K4e98xUEgj9zwuAU3HCiSCpNZouchEs8ZHPOdkBGi+5vM5BCcmkUmVScLJH/x5bViSjE0uB649fSssOg1zrqV5KzQXV88MEwRhSWM5v8mX/pYW0ocHhnF4UhGO4S8y8+x2dnRCq9MJcsAPXMtfSY6LlLdhrh5+tYMD+n2d3YJLtq9XHBebGN1Ac/eoP4wHDx/HVCzBnGslWWJ+ElWLJDEhL6fXB5VGpGuuileLXJBNpxGamEAuM6u2WN7YnCqeXd74yNjsdeCq07bAqlesRIIgtMiA1qEZgiAsEcS5uz56gQKxFB45MoyDk4HSB57HbqCYF8gU6/D6QJ7eNfGKJbZf3NZ8BEgPn19MSWnfSpAEyqUwFIjigUPHWdRCecGvRg3YbJcAo9kKm8cLjY7IAec70PzhEE+cB4FMMslIAlkUTh67helsQS5g77oOXLh1PWwG4YS6miaWIAh1GE16dfzxBO7fP6R4eHPWWZalJWVEu8cNrd7Aeae4rNURmO/YoJAvKAmeqiounrwYM8dFhwWX79yIDpuloZ9cSje+b3wajx4ZQSiVqflZFrsdFqeTZWeERLRZnE23+lyd2750PIHw9BTy2ewMSVhMBpvEr9QqNc7q7cB5JKSk09U8b9oNo7XSXkEQljjSM+fHAOKZHH767H6MRcgUy+LVqp65lvO1a/VaeHv6FFNsyYQs9lxLHJR2uE2WmU4CRTgsXBSKqfgylJ1YZOhVWrznnNPgtjTGcZFIzb7xAO49MIhENlOxg1TasJBzIbVWLhZgsdmZCBKTcKDz6KIEScVLl9th8NZGG0kjgTI/RqanQNE4PIVIAlmaztnUjXM290KvFkdLPLi1+jWCICxphJRFj1IpjEfiuGf/MYyGySFRNWM9UFKmnvqpL6drJjJAxwqebhIc0QmZ2SWNQ/vcdIrjYjm0bM550mJ+CZT9kLLrvXbXRnTZyXO8bIOqlVKe+pRMIY/94wE8euQEIsks47g8QkiMyEiA2WaD3dsBqeyV2z5DI1o6DwIkFx4ja1eQNC+KbF2bO2tm/rtiQ2TSaXDxtvU4vcfXVJ8ZMYiNQUAQhCXiSt66U7EU7js4iKFghOVZ4C8yc+Kyu73QkGOPKGsOAXJcJCU7ShW9UO6G+UChnXmvw4oL+nvR57KWFuGlEAT2aS9ZBoBnT0zgsaMjiFESn0UtYMpnYYaaqCSY7Q7YXG6o1KpTvyJrbmRXT4flgoxoMIBoKDg73lW7J8Nm1OOKnZuw1ecUDotV8WrtCwRBWML4kIf3ZDSJBw4NYjAQ4XbEoqWVNlhEDmxuj5CcXQL2q+kWIgbRmrJAzpw7oM9pZTu1dZS7YRmgpPN5vDg6hd8eGUWSpQHmL2QtIHJgdbpY6mZRVhECJfMA5RchjQTK3cDrcErro9WgxbW7t2Cj29FSiqCraISa0hVBEGqEmd6b4WAU9+w/islYkjvqt+xzYLJa4fB6oNZquV+4GpsoLm9RBBZyXCwrLtYSvkKWhC6bGa/b01/ySaih06XFn8jBM8fH8cTgCNJ5Jsk1W6r50UgSc6wlgkCa/KKsXgSIJET8U0hEY9ydJAtrt92CK3ZsRM8ySSz3Q8WFdUdAEIQaIC0Ui0yP/lcvDMAfT80sqDzKcHSN3mCEr3cdUFpQT5E9raEt4tLVgwDL3TA5eUqCp/l6WOnbQj4JWpUG7zlnN3wWU01ZIEn6+7kTk7j/0BDyhQK30ie1iaSXKfW4ze1SwnmrCTqsnqFakz2hMaYjscD4BNKpZA0WKxmbPXZcsWsLnCYKf1yOrWtNQr/inRYEgXMIKJXCcDCMBw8NY4Q5JJbz11ef9GSKNVnMcJATl1ozkwOvfI7L2QRx2SpDYD7FxWQkcorA1uLfXxm9Djsu3tbHcjjwiCnRUcKzwxN4cnAU6XyRe9mmdmi0aljsTlidzlOUIVfZ8IjuVBqUZBnZVBph/6QipFR11szGee3s8uKSbX1wGAzVbxOotxQCgiBwDAdNdYpSuOfAIMYjiZpUDhUPbzusLlfpWIHjgeKSNYkAc1wMh5nz4ozjIsfunEhBt93MfBL6XOSTsDBpzReKeODwcbwwMoVUrlCKrF3gehZhwaTxWCGi6/B4YbLZIIljhTU3RymaIZvKIDgxDsrfUK0os0eGWi1hZ4cXV5+2GRo1Tabqm6pqdYvfm4OAIAiL4EwTnBxuBgNh3LPvKIKpjOLhXUMx220sK6NKQ5YDUQQCiyNA573MJ4GiG3gkNWfkj2XmuHj5jk3z5m6guRxNZfAEpR4fGauIupE4dDtkSCo1HN4SOWii5LOYL62EgKJ1kIrHWTrzfD7PPvVcllBJxtnru/Dq/l4YKTeHKG2BgCAIVQjC8UAEd+87gmAyDbkGckCZ/Kx2O+xeHyS1qqbz4baYOaKRdUFgoVTRkelpxMOhqvOmrKtRliPyWox4895tcJNPQkULScyLZMDJckD+B/zyRTILX3T6umCyWmq4ry7wiEpaDIEyGUhEIwhPTMw4aS82n8pGMAp0OXfTOpy9oRt6sWFqsZGdvzmCICwwTPmijNFQFPceOIaJUrIa5VIOm68kMTOs29dxksGB4862mDSikY1HgBwXgxMTLLxsIUsCkQNyGFSRIbe0qyfHRYfBiDfupSyQFuaTkMjk8NTgGJ46PqoESlSLUKjonkqthsPnY0JI5XbwOOU2HiHxhBVDgKxWKCIRjiASmAZthhazq7Lw7pJwnEWvwWU7NmF7h0uEP67YAPI/WBCEOVgxJiwDh6cC+O2RE5iIknwy/7ECLewmshy4SThGxIbzT0Vx5VwEaOGNTU8jEY2yRZiLnJa0NvqcNly4tRdmrQ5PHh/DH09MolDa780lqjPqnhUNoGt0Oh2sbg+MFjNzSOR/C8RYrgUE6DgsGiRLV0SZmouUyjnnMhtwUX8ftnW4oRbKmy09VQRBmGd4BqaCuHv/IDuzXWjez2cNoL+jZDU2txtqtbZqPoaWnhmicS2BAC3C5I9AfgnkJMZLVmndJZ0ErUqFkUgM+QL3rcxSQNoG7u5uloKcSK8oAoH5ECgU8ohM+RmJ5ZknZcdFp8mAa07rx3q3TQDbwggIglAxOGSuPeIP4fYXjyKZq1FVjsiB0wmrywMV89QVRSBQHwQoC2Q04EciQmp21XdqZXMubesU68CskNFCOUKo1jIZJsuBs6MTOhGWVg1u8TvTxSgiOD6OdDJekxO3z2rC60/fBp/VKHBsUQQEQagYmFAyg7teOoLjwTCKNTgkUto9q8PNLAciWU2LzvQ2b9as5O3ianaKnDeRgkqSOmt5IGPAws62MrR6HXNI1BkNPN42bY6qaP7yEaAJBRTyWRb+mE6lmJw8n0N3kUmFX7VrC7zWk51ql98uUUM9EBAEoYQimVUH/CHc+dIRxDPVY3zL4JMp1uygZDUeSEJxth5zUtSxAAJkwg1MjCPFHBcXhmmpToQ6gw52jw8Go2neaF6h/Cmm5mIIZFNJhKcmkctmGUGgObr46ZTMfBB2dnlwYX8fHEaDALjFEBAEoUwQADw/MoXf7D+GHG8OdJUEi8PFVOVYJjtRBAINRoAEamLBANPFr8wCWeYLPIdbp/jPkAy4yQibxwO9wcTr5tDgnorq2w4BWUY6kUDYP41cLsvh1KrMWp1ajT09Xly4tQ9GlqOmXETc10rPAUEQKggCeXoTQaAQRyoUzFP+93wDRdYDV0cnDFbLSo+jeP4aQkDxHp8VU+IhBQvBQ46Per0Rrp5uqDUaLkezNQS16GqtCMhAKhGDf2QEKhVfFBfNXzoWO2NdJy7dsQFatZqDXNTaMHH9UhAQBGGGIMgYmAzhjn1HWdx4tVIWDDEYjXB0dIjUzdUAE7/XFYFiocjS8CYiJKbEtxDPbQCZf/VGI9xd3VCpNahFPqmunRGVrSoE6CgqEYkgNDUBFnizWKnU5JAkXL59A17W1wmVCH9siTkhCELFMISTady17xiOBUJcTjbsrFclwWAyw+HrgEYr5JRbYlavkUYU80WEA34mplRLqugyPAazCQ6vDxodnf1WW8nXCKiim3VDgEJz6TiMosPmKycfIBA9lWDRaXBBfx/29PigFce2dRuLpVYkCEIFcpR34cBkAPcfJA2E6laEsnANEQXKuUCJbETOhaVORXHfUhAgR7Dw1BSSsehJPgmL1iVJMJpNzOdAq9PXpKy4lDaKe9YSArPeMOworCT0xZNXRFEGBUsNfemOjdjmc3FlJ11L6Da7r4IgzEE8VygwLYR7DxxHNJ2d+bWqu4wkwWy1wO7tWNBhUXiBN3t6r43nFXI5xEJBZtaVi7QPo2/+/J4J5HNAMuB2jwcarW5tACR62UQETl4paW5GA0EkouGqSl3lY1uauh1WEwt/7HJYhD9CE0dv7qMEQTgF/CJjsQcng7jtpQHk8nxpbcqhZZTQxtXRRV43J9VcVhnjYdIrOB/Eo9sVAVlGyD+FeCgMysRcDoNU6EIp455chMXhgJNyhNDfCYXEdh3ttmk3rXdkSQiMjSGbTldt90yIrixDp9XgfeeeDodJv2gK86qViguWjIAgCAtAR6GOTxwbZQluMvnFk5FUVkE+CTaXCxaHExKt1KIIBJqEgCKmNI1UvBQCyQLRFXogqSWYLHZmOVATMZAowZPSMJUMFJcTCtGk/onHtC8C+WwOgfER5DgcwMu9LKKITW4nXrtz42x20qqm3PbFqBVbLgjCAqNC8zCVzeH3QxOMJNDRA586GFiSJlqIKS8Dn/2hFaeGaFM7IkDRDelEDKlEAvmcckSm0ehgNFtgMJuhopy7c0rZtNuO/RVtbhcEJGTTKYRISIlZEvgYKQkp7SoJKdmN+nbp7KpppyAIVYYylsnikcPDeG5kAhL4LQIknOT0dsBIGgnClLtqXpj26IgEuVAEJdIhR1q1WsNIqwhjbI/RW62tJP+XTCLJwnPzLNcNP0nYu64Dr+7vhVmn5bxrtaLY3H4JglAFb1pUY6ks7j90HC+NTdd0bqvSEEnoVEiCKAIBgYBAYI0jQD4GqViEkYQiZRjlLDqNCq/c2I3zt/SdQhDEqQMniEu4TBCEqqBR4hsZBRn4+R8O4og/fFLIeTk0ZyGHL9JGICEaLWXGE0UgIBAQCKxxBGjNjAUjCE/7ufQ7yo6LxWIBbz5zB7Z1uln4IzsaIy0aYaFt2IwSBIETWtJImIgmmCVhOLh4spy5VVLaXBKkoQx5oggEBAICgbWEwHw7fDpuiAWCiIVIlI7PU4uu0qiAK3dtwc4uF8vhwHtMsZbwrmdfBUGoAc1CUcZYJI57DxzDWCRRw51gyXDcnd3zOonVVJG4WCAgEBAIrAIEKOqGCEK8GklgDKNMM2S4zUZctn0jNnsdwnrQ4HkgCEKNANM0PTYdxp37jiCczMzE51Y7ByOWTOp1zs4ulhRHFIGAQEAgsFYRUI4GACYXPj2FZDTGDQUdLXTaTXjNjk3oc9qE0yI3crVfKAhC7ZiBjhsGgxH89JmDyBUVjYRZfru40ctkNcPh7YSkVgn2uwTsxS0CAYHAakFAWTUpHDcwNopsJlf62FfbbtF6K6PHbsYbz9gO+4yQUvX7VgtyzeqHIAhLQLp8YnZ4MoA7XjqKZJbccYvMCkYSt4vGlUuA1eGA1e0BpYsWRSAgEBAIrGUEaL3M5/KYGjkBkmauVsrWB/r/rT43rtm9BSadSFVeDbel/C4IwlJQK1kMsoUCnhueYIqLyUyey1+GyAURA4vTAavTCbWK4tNFEQgIBAQCaxuBbCqJ0NQUcpkMt/MhkYQ9PV6ct6UXLpNBJHeq8xQSBGEZgJbVFp8eGsPjx0ZZDgfeQkJKNpeb/VOsmjSdt1ZxnUBAICAQaF8E0okEIwmKkBLXngsatYS9vZ04f/M6GLXCklDP0RcEYRlolk+8KG/Dg4eO4/fD46w2kmTmOQ2jXA1Onw9Gq1X4IyxjHMStAgGBQHsjUJnpNhWLIeyfRCFffcfFLLKSDJ1GjQu29OGs3k6oyb+rveFomdYLglCnoaC8Db/Zfwwvjk/XlnlMkuDq6IDJauOjy3Vqr6hGICAQEAi0FgLKtkouFpEIhxGZnq7h+FWGRqXCZTs2Yu86H1SSiiUj49uqtRYKrdQaQRDqNBp0FpbI5nHnS0dwdDoM0kwgxbDFEjyVVRi1ej2zJOhN5pJ3Q50aJaoRCAgEBAJtiACRhPCUH8kYidLxeGkp5MKg1eCa0zaj3+cCJXoqFx6LbhvC1PAmC4JQN4gp8EaCP5bAA4eGmFZCkWdelw4jdAY97B4iCca6tUhUJBAQCAgE2geBk+O/5KKMyLQf8UhYiSPnkFamy7wWAy7oX4+tPiezKswWQRNqnQuCINSK2ILXK5OvIMsYj8Txsz8cRDxdPWSnsjqSZPb09LDMe6IIBAQCAoG1icDsh7yQLyA8NYlkLMbtp0UCTB6zEVfs3IQ+l02JbBDcYElTSRCEJcFW/aaxcAw/ffYAotk81zkYI8iyDIPZCE/XOiakJIpAQCAgEFg7CCgWhEqHRVoXC9kcQlOTSCeTDIrFHBDLPIA4wSaPE1fv2gyrQctNLtYO1nw9FQSBD6clXaVIMh9FKJnmdlyk8zZSW7R7O6DRapf0XHGTQEAgIBBYTQhk02mEJieRy6Q5gx/BpJy3+VzMkmAx6ERkwxImhCAISwCN95YiZLww4sfDA0OI1XDcQLYDs8OuqC2WjhtIn5G8HEQRCAgEBAJrEYF0PIHw1ATyeVKurSwUDjm/xbUgF3HGug5cvLUPNoNenDTUOHEEQagRsFovz+YLLPTx0SPDiGeyi0Y1VNatUkkwOxywuT3CPFYr6OJ6gYBAYPUhIAOZJAkpTZaElBZXOyi7PFKK6Jf1dTG1RYpyoKNcOsYQpToCgiBUx2jZV5Ak8+NHR/DY0WEAvA6IFCIpw+b1we5yi/DHZY+CqEAgIBBoRwROim2QwRwWSW1RLs61JJzaO5UsoyhJIJeuszf04NWb1zFRJVH4EBAEgQ+nZV+Vzudx/4EhvDjuR76wgEIYxfvOYbaSCnB4O2Cy2QTrrTIKswuJcFle9oQVFQgEWgIB5XCVSvmAtViUEQ8FEA+FUCwUZxLkLd5cGWadFhdt24DTu0WiPN6hFQSBF6k6XJfKF/DwoSH8cXQS+QKvP4EMtVoNm8cLs43UFoU22OxQVBABJQwEkFQlvw0ZFEctFQtMnwIqSQl3UqmURaVIHiLzmBoFt6jDTG+jKkrjTQnU6B/6+MiyMj/IDE1y6Mr5towiJVuhf2geLWShZiF1vO92G+HUQk0lyyr9EwsGEQ8Fa4LbYdLjip0b0e91tVCPWrcpgiA0cWxIOCmaSuPBw0M4MBHgElJi65csQ6PTweH1wWAxL55Ouon9aYVHUYptRpoKBSQjEYTGhhEcH0N4YhyZWBTRYID9brbaoLeYYO/ohrOzG47uHlhcXmjJcaliQVdSyYrzyVYY24a0ofTtVoZYQi6VRNQ/idDoCKYnx5GcnkIiEkEmkYRGq4HV7YbBaoeruwd2H82bLhitdkY02ZdpzlQR/LIhozZvpcUCaSRMIRmNccvU0/tNEQ1vOGMb+pxWkf2xmlVW5tOxbN6or/In0ZoSSqZw/6HjGJgMoXo6EgUQWtA0Oj3cnd3Q6EX4I8OEGQxUGD+4D8/fdxcG/vB7BIePIxWLI0cOocUCCnkldaxKrYWkUUGj0cFgNMHW3YV1/Tux9zWvxeazz4XGYAAtOCIWajW/gMrnW63SIJdMYP8j9+H5h+7D2OGDiE9NIZVJQc7lUSwo/0hkjdLQvFFDr9PDYLXBu2kTtp11NvZcdjU8GzejkKfrSi/oaoauRftG7yz5I6Ri0VILeci9zKSYrz5tM8x6Ef642NAKC0KjJ/48Wwr6K388gZ//YQCBRBqYJ93zfDtZMn3SrqazbxP72K21wl59mTZuMvLFAtKhEB767r/g4Z/9CJlkHHqtgZmHi8wisLCZV1nQVSjm88hJwBnnXoirPvy36Nyxm0mzyhUa7msN49Xc32K+iGIxh4EnfotbP/tJjA4NQqvWQk1Oa6WjhXL/ZWKfMp1/K4US/7AcgbIK2Xwaru5uXHH9B3D2W98NSa2GRqVm14jSeARKQzPzICIJgfExFuGwULjjzLiywZRhNxrxxtP7sc5lbXyD2/gJgiCs0ODRR24oGMFv9h9nZIFn61o+bjCYSUjJB61et0KtX7nHyoUiQmMncOixh/DYT/4bIwMHmSWB/sV8DqodD8whbHR9oVCA3deBl135Orz8mjehY9sOqCkcSpS2R0AZbgmFTBrHnvs9nrn953j+wfuQCgehoo96Tf4CZdJZcpuTZWw640yc97Y/xdZzzofV46t4jU/OK9D2QLZwB1iivHAY0UBA8RNZsCj5clQowqDV4Zrdm7GtgyLERFkIAUEQVnBukEPUSDiOu/cfxVSskiRUO8mUYLSYYfd4odHRh2yVbV3m6z7zDVDhxAt/wD3f+ToO/+5xZBLxuo4eO8JZvxEXv+s9OPPqN0BrMK46aOsKWItWVvlpJnKQS6fw0H9+B0/f9nMETgyz44P6FQkWlxu7LrgEr7nh/XBv3HQKSa32NtevLWupphL1kySkEnFE/NPIZeg4cfGi3EURDTpcs2cLtngc1TcV1Spdxb8LgrDCg0vJnQ6MT+PBw8MIpzJcn3qa5GQFN1mtLLpBrVnlu13a5cnAgUfux13f/ApGDx2AnM+foixZLb0211BLEmweHy569w045y3vhN5KkSNcd4qLWgWBmdMlGeGxUdz3na/jd3f8AvkUyfRSqXeUgQSVXodtrzgHr//YJ9GxZXvFE2jy0K5WTKJ6Tw+yHKQTCYT9JJxU4EOY+S3J8JjNeOPerfBaTPVu1ibUEz4AACAASURBVKqqTxCEFhjOXLGIF0emcP/h48jkFndbrPwIknnc4nDB4fPUaCptgU7zNkGWmaPYwYfuxY9u/hjCExOK6DRFmlV8COq5ANOuU2004oK3vBNXfPAjzIGRzplFaQ8E2Ke4CCTCAfzi8/8Pf7z3LhRyZULZONO/LElwdnfjvV/9N/TsPr3ERWi2KiGTotQRAUliUUthv58dEfKiS+tnrlDAeZt6ceHW9dCKpHiLDoogCHWcs0utqiwD8uTgGB45fAL5Rc/R5jyFHG46OmCx21fPIlT++pPzZl7G4HO/w7f/4t3IplKl3Z+yHJTPj+nooV67QubHoJLYcYZar8fVH/xrnPeOG1iYKfcqtNSJIO6rCwKkYUDHT3f802fw2M9/MjNn2Al0Q+39yrzx9ffjXZ/7Mnp27BFZWesyoidXQu9oMhZFZHoKRW49GaUOtSSh12XFm/bugFErSH+14REEoRpCTfqdFq90roAnj43id0PjyBWKNXyPZOaPYHE4SsIuTWp0Qx8joZDP4djvn8TPP/dJTBw9MoMHSRzp9Qas6+uDx+WCWqNCKpXG+Pgk/FOTIEfG+hAGCXqrFVe874M49+3XQWcyV/S4cTvRhsK62iuXgVQkhHu++RX89sc/VEIWZRlmiwU9fb1w2hygPCfJdBqjo6MITvsV8aMa3ra5EJ48EySoNBrsOPd8XP3hj6Nz6w5GOEWpDwK0KYiHw0xFkUJMeUrZ70CvUWNXtxcX9vfBvBp9t3jAqPEaQRBqBKzRl6dzeUYQHjs6oqi6cS5dKrWKSTKT2mK7Z30sBSUgPDGGn3/m77D/sYdYSCIz00pq7DlzL278wI3YtHkzbDYbU8DLZLPwT/lx91134cc/+hGiweAylvyTeYDZ6caffOQTeNk1b2RHDaS9MGO9qBMVafS8Wiv1qzVaPPzv38TtX/8SsskkCwd+xStfhRv+73uxafMWWC0WBkU2l2ME4Rc/+zl+deutyCSTdYRIYn5BZ115Lf7k45+Gye6sFn1Xx2ev4qpkmUUqxCNhRQ21JGq2kLhZeR0hhy21JOOsvk68cmMPbCz1syBtPDNFEAQelJp2jRKGk8jk8NDhIbw45keB5BerFFJapPNPWhztPi9MpUWQbmvLNNGUYCVXwP3f/Rru+7dvIpdVvJN1RgP+5E1vwUc++hFs6d+iSOGWznaVRUJGPJ7E/ffch89+9h8wcOBAyU+hOoaLQaxSabB+z+l462f+GR392wUlqDYhV+r3InDwtw/gxzd/FBG/HyaLGdddfz1ufP/70bOuZ2a+sNlQkutNJBL49a9vwz9+5tMYG6ZkavVSSpZgsNnwho/+PV755rejSImFhB/CkmYGfcrJz4CklSMBCk+d+3FfON0zPZBEL1+1oRvnbu5liZoENeAfBkEQ+LFq2pVkQg/EU7hn/yAGA5GanqvRauHs7ITeaKzpvla6mEgNRSz8+1/9OXLM76AIqDV4+3XX4bOf+yxcLteC/hblnf1DDz6E995wPYKj4yA8l1PobsL1wnf8Ga744MegNRrEYr8cQBtxrwwEh4fwPzd/FANPPwlJLeG6G27AzTffXJovCl2eW2i+ZLNZ3Hrrrbjxfe8j08IyZwujGIzoS7IE17p1+MhPbofJ65thHrxWwUbA1I51khASSaaT1gHDtgZFKuJklMHxlRu7odNoBDmocQIIglAjYM25XFlgpuNJ3PbiAMYjCf6EJDKgNxrg7OqEVktCSsznvznNrsNTaMFOhUL4/offh4NPPwFVyQFxw5Yt+MmtP8f27dvZx5md+y6QN4H+nnYcX/nKV/GZT3yCOSYtq0hkzlTBYLHgun/8GnZdcoVQzVsWoPW7uSwelsvl8NRPfoi7v/Ellg74jJedhVtvuw1ud0kIpzRn5ntymVT+/Sc+ia9/9atA3XxYqKoizr7yWvyfz32F+bC0z5tYvzFaTk10tEjkgPwOavUTMeu1eNXGbkYOTj1SEDSNZ1wEQeBBaYWuoSk8GorhvkPHMRyMlhKLlHYni7SJFjy9yQiHxwcdsyS0wbKk2H3ZMclj//0fuPWLn0a+dLSQyefx8b+7CTd98pPQ6/Vco0EYTExO4vKLLsbgkSN1ScpCzm67LrgYf/blf4XWZBbOZ1wj0YSLZCARnMb3PnA9hl54DiqdFl/+2tdx3Z9exx3ZQ/NlamoKr730NThy6FDddprETSka5l2f/SpOf+01ioBJKTtkE5Bp60eQgykJICUTUcgsWmFhol/5K/3ZZtDinE3rcPo6L/TqVa4T08BRFgShgeDWo2oSUpqMJvCr5w/DH0+xD135c19tX6w3m+H0+Zh5nBlY6V4mOnSSiEA9mlmHOihqQ4N0JIxv/NkbceLAPsWDQpKQzefx6NO/w5lnnlnTgk99veljf4t/ueUWaFna3uUXncGEd3z+y9h71RsURb5qg7D8R4oa5t32K98LGmOdTo+H/u2buPVLn2WZTz09XfjVbbdhx44dzIGVp5StTn/5Fx/A//zgP+tKqdVqDfZcfhXe9Il/gNklpH15xiOfyyEwNoY8U0csB4IvThBU5LskSTBo1Lhq12b0dzihJadingeKa+ZFQBCENpkYg9MR3LlvgKkt0gee1yZgsdlg83qhqhT6aTGCQJyFbaxk4NEffhe/+Mo/Qs7lSmSmCKPFij8ePIgOn7fk51X9lS+bjb/7r9/B33zwg1BzfiiqTQfCfcuZL8eH/vvXim9D9aZUq1L8vgwEyHQcnRzD56+6CMl4lBGCrbt24dd33oGOjo6aCAKddX/2U5/BLV/65yqa/rU32N3Ti7d//qvYcva5LKHYDFmvvapVf0c+m0PYP4VMPM6cr08u8zsklpRRQMcKl+3YhJ1dHvFq1mGmCIJQBxCbUQWpf700No0HDg0hmctxh+nQ+2W2O2DzeLgXy2b0Z+4z6AWPTIzjBzd9CEefemJm10BmfaPJjOcPHkBnZ0dNFgT6fn/3O/+Kj3zwL+vWd2qnpNXifV//d+y8+DV1/5CsBPZt/UxZxiP/+a/43y98GnoiwRKwdedp+NWdd6Cz08cSMvEUIpSU6OezN38at3zpn1iIcb0KO2bQaHHZez+AS/78wyIR2CLAZtNpRKf9SJNz8jxDsLCcusxkky/auh5bfA6ome+SKMtFQBCE5SLYxPtJPOmpwVE8OTiKTH5xSWZqVlnAhRYoq8sFq9NVOjdvwW1vsYhDjz+Cn3zq4wiNjcyo39FOK53L4b5HHsa5557L/aEvWxD+6kMfwve+/W1oJBW31aXakNK6deZrrsLbv3ALtCah5V4Nr4b9Tln8ggH8x4fei2PPPcN25uTU6u3pxi9uuw07d26viSCQY+uf3/A+/OzHP6q72w7Nxw27z8C7v/QtuPs2CMvTPJMim86wvAqkSVFWRyVn7fJattA8ois6HWZcsm0D1jttFf5GvIexDZuhbV+xIAhtNoTZQgHPDE0wIaVMXtEg59nr0IfW6nTA6nLPo7a48h69FM746I/+A/d8+2ulvO6lgWE+CDn8zcf+Fjd/5lOlyIzqg1Z2UrzonHMwNjLCbXGpXjP5cqjh6uvFe778bfTs2sNzi7imzgiwz4akwrGnH8e/f/j/Ih4MKm+CJDGfm3+65at4z/XXKx8XjigWmi+hcBiXvvp8HDlMTor1JtEy1Fod3vX5W7D36te3VWRRnYfupOrK61cmkUQoMIVcOltBCKqvS0UU0W2z4JLtG9DntEFTp6PERva5neoWBKGdRqvUVjpueHjgBB4/NsJMaSzmuipNKEKl1sDu8cBss58Sx6+SgWK910RObKWijHQygZ9+6qN47u7bQCkYZnYNEvknqODp68Xtt9+G/v6t1a0IZC4G8M//+AX8/d//PxjVmpI/Q5l0cDZsgcvoe2OyOVnmvrOufTMkDZ8Ze3lPFXdXIkBTVaPR4f7v/Qt+dcsXUaRMqDSJS0JH2/bsxqNPPAm9TluVIJStTR8nh9av3QJt3cmBQlKI3F/yzuvxhk/+g9DRqHCaJnIQnJzglk5W1gaZSWi7zUZcf84ZTABJKFrXf40QBKH+mDahRhnxTA6PDAzjhbFpFEh2dJGnkhNgeROl0Wrg8PlgoLwCHDurxndGAiXXoTC1b7/37Rg5uO+U3Vt5l/HO97wHH//EJ9Dd3cWcLufjMywFbDqNB+5/AB+88UaE/JMzhKN+fZFB0QznveNPcfmffxj6CuXK+j1D1LQYAkSJc8kk/vvjH8Tz9/+mIptpiS6rNHj3De/BTTfdhM6uTmY1m3e+QEYinsAdt9+B972bwiIbhzvNzU17z8Jf/NuPRZhsSceEjhMi/inksrmagKdorj6XDVfu2sRIgiiNQUAQhMbg2vBaiRCEkmk8eGgI+8cDNS1sjCR4vTBYrDPtXEh0qOEdYTsJFU784Rl884a3IZWIzRvvTOu2wWzClddeixs/8AGccdZeqCX1SVLLzEwcDOGXv/glvvOtb2Fg//5ZU251ayV3V9k3RCVhz8WX402f+iJsLo8QTuJGrz4X0o588vBBfP+j78f4oYOnmuwpFbrVije99a348xtvxLbt206R5qb54vdP4Wf/+zN891vfwtDRwcoc4vVpaEUtdDRl9fnwl//xv3Cv37jmMz0mI1FEg37kc5R0SbGB8vAzikja3uHCuZt74LOaue6p+2CukQoFQWjjgSbLwFQ8id/sO4KhUGxm5139RZNZ+mJXZxd0BsPKIiDLUOv0eOKH38P/fOamKi+7DI1Wh9NOPx1Xvu4anLn3THR1doEITywWx9GjR/HQgw/i3rvuQsDvP7mu6qDUjEPvrj34s1u+A1dPb4tYY2ruQtveQB+SF++5Ez/+9MeRDAUXtKDpDHqc8bJX4Kqrr8TpZ+yF1+uBWq1GLBbDwQMHcf999+HhBx5AhPkwNLJQrhA1NAY9bvjqv2LbBa/h9B5qZJtWpm6yGJLaZXQ6gEKBLAflIMXqBIGu3Nnlxvn9fcxywEMoVqaXq+OpgiC0+TjSdy+STOO2F4/geDAy443A8+JoDQY4vaS2uIIkQZah1Rvw/Q9ej6fu/DXUPA2XKHGTCTaLhSWm0ui0SCUSiMcTSMZjKLAdSeOL3deJG771fazbeVrVc+7Gt2ZtPUHO5fHg976JO7/x5VKo6eKuupSbhDJ/GsxmqNUqZJIpxOMxdrxA+geNL0QQWJAsrv3w3+LS938EBVIK5ZnvjW9c055A5CAeDiEWooyM/LgrQqsy9vb6cN6WXjiMhhpsDk3r3qp7kCAIq2BIyQNhPBzFbS8cxXQiPdOjaptm+l2n18PV1QWtjvI2NL/IRRlqyPjitRfjxMCh6g6IpSbSfSo1nUSr2PFKUaZ8CbOhnY3sSdkngqww19/yXey86DXs2Ux/qpEPFnXPIJBPpXD7Vz6PR/7rPyiYYYFcJbNhbkrUgzJflLgfxW+H9A54ohyWDb2kTBCaJ+e/9R142xe+waJ1pDXkWcd8jaJRRKenufRDKo89KThh77oOXLlrczkV1rKHRFRQHQFBEKpj1BZX5ElHYCqI3w6cwHScMiAqy+BiHyz2uyTBZLWwvA1qDX2qm1xkIJ9M4nNXnIOgf6quizVvCOhSe0yqfW++6TM4513Xs3S+TfnQLLWxq+y+VDiM//3MTXj27ttAMSTV5vrc7jd6biwENwmKb3vVOfjrH9+JdDK+ZuYMWQsSkQhioRBLpMZDpMtjatRqsKfHi1dt6oFFX44x4alhlU36FeiOIAgrAHojHkkpnApFGYcng7jnwDEW5cC7n6UPm9FigcPXAZW62QpkEiLjo7j5kleUBB2aTlGWNBy0PJGB9NLrb8Tr//ZmFPI54YewJCSXdlN0ahI//uTfYP9vHwKp6y001xf8pVZGsbRmVtylPJD+va5/G26642EQqV8LhchBZHoayViURSzxrEtMMZEsnGo1ztm4Dnt7O2DWU7pmQQyaOWcEQWgm2g16VuValysW8fyJSdxzcJBlrZ0/tOvUv6fX0epwwe52sRDCpn2mJQn+Qwdw81UXQK/VMTW8dimUSOvVb3ob3vq5rzILQk2hJO3SyVZspwyEJ8bwo5s+jMNPPdYmu/ASQZBldG7YgL+761HIdDbSyLjKFhg7shbEAgEkIiEU5do+72pJZs6IZ/V1gawIojQfAUEQmo95Q59YduZ5fnQad+8/gjzLba/QBMp0R8lPFtw8SRJsbicL22taIYJweD9uvvJCRhDayVRPBOHsK67Bu776HSXMbpUv9k2bE1UeRMJaU8OD+OFH3o/hl55vK4JAfgiuzg588t4nodbpmkfEV2Dwivk8wn4/i1igwm+0kaHXqHH1aVuxtcMBtYqIhbAcrMAQ0jeD3GZEWS0IlIczX5DxxOAInjo+imy+PMTVX1FymrK7vTDb7cyBquFZ5yQJUwdewqevuRi6NrAgVDpOkZLb3otegz/7xvchs82gWMSa8R4xgjA0iO//zV9gZP+LipMifULaYCWTZQnuNUAQyHIQ9U8xp0SeI4UygaADTqtBiwv6e7Gnp4PRAvFeNeOtmv8ZgiCsHPYNfTJ9yCLpDB4/OooXRqeQ58xOR2ss6QrY3R6YbLaGtlExa0iYOrgPn776orYgCJWAEEF4xeVX411f/S6KUpO84Rs/Ii3/hBmC8Nd/gdGDL5BqVcu3udxA2o55enrwyXuegEqjWZUWhFw6g1goULIc1EaaPWYjXrmxCzu7vEw+uba722YatE1DBUFom6Hib2jZTkAfsHgmi4cPD+OPI9UjBGaDwig9rRquzm6mXthQI5MkITh8HH9/8StYIqZ28kEgfM953Vvw9n/6uvBB4J+ey76SCML0yDD+66MfwPEXnlWc/+T2IGhEELpKPghF5oOwbDhaqoJsNoPIlB+ZVEKJ+12gsDWFhZ3OFqteg6t2b8YGlxPapjtLtxSMLdMYQRBaZiga0xB6EaPpDH79whEcD0QUcx0L2K9ujyUJZHdPNwwNTGlM7Yn5/bj5wjNZTgm+3JSNwarWWimK4YK3Xoe3fPqLKBbywgehVgCXeD350oQnJ/A/n/hrHHz8kRkBonaYO3QU0rdrF2769UPIZDOrynyey6QR9k+zdM21FodRh2t3b0Gvy15KutQ+pK/WvrbT9YIgtNNoLbGtRAXCqTR+/ccBnAhHQQfmMpnEKxwX56ua7tPr9XB0+KAzKAlRSnovS2zJqbdJsoRCJo3PX3U+pkZOQNXqwjFzAHjdX38CF7/vLyEXRZhj3SYFR0WJQAA/+dTH8Px9v2G+oe2yEae3buf5F+JDP/wVUonoPKnXOTq/QpcsZqXJpVMITU0hm85wt47WF5Uko8tuxWU7NqLXMZsbhrsScWFDERAEoaHwtk7l9DJOR5O4/aUBjEUTFcpz1RwXZRjNZti9Ppa/oRFFo9Lga2+7Goeeebr1CUIJAEJNq9HgnZ/7Cs543ZvRgJSRjYB61dSZjsXw83/8ezz9y5+2kQeCYiC75E/fizfc/EXk0sm2tTqVnZdJ0TSXTSM0MYlsphaLiHIk1G0346KtG1hmRrVw8m2591MQhJYbksY1qFCQcSwQwn0HBxFgksy8+y4ZRosVTl9H/dUWZRkavQG33vwx3P9f/85CmtrDc0uG2e7EDV//Hja94pxTswk2bhhFzSRSlcng7m98Gfd/71sKHmWd7ZZGR2Ly4G/6xGfx6nfegEI+25YEobylIItCipIuBQPIc6RrLh9qMrFrScYWjxPnbe5Ft92ivPeitBwCgiC03JDUp0HMHEhvJItiLTL9AyoFGRgORvHT5w4ily9JnjK/BMVpSPErmn1ZZ/XfFLVF8sCuq9MiEQStDr//5c/wg4+9vz6db2Atle4bvo2b8b5v/Cc8Gzax9M+iNBGBooynfvYj/OILN4O85olVVveqaWL75jyK3hmVSg2d2Ywbv/199J31yraVzSiHHabicYSmJllytGp2yFk4ZOSLBezo8OK1uzbBZtCtKj+MlZthjXmyIAiNwbU5tZYkLNjLSSJIFMooF5U/Z9IophNAKgukc5DpzyUSQG/z/lAUD434kdNoIVO4lVqNglqDoloLmX3syE9BYnUyaSX6s0y7Zisc3s55JZmXrG9fBALHBnDLdW9ELBhoDnZLfUrFSrj1FefgHf/0L6CsjtzGmKU+V9w3BwEJg08/gR/83V8hNDoCSAVIJEbRwoWcfp29vfjQD38Om6cTUg2e+kt+t5aBh/LM+T/9JH4UnpxSond4i6xYULb6HLhix2amdyBKayMgCEJrj8/cfQgzv8/slXJZyMEgilN+yCeGUThxHMWREyiMTkEeD0GOxlDMZIBcFsilT0p5RyF6yTyQU2tQ0OmR0+mQNZqQ7LIj6XQg6ulEwu5FzONG0uZAxmxBQUNsXwWb3Q6r0wlJTWlyZgsRCcX1sbYiF4pIxaL43o3X4dgfnqnt5mZfXVovyerx8j95I675m0/CZHc0uxVr/nkUIBfzT+IHH7kRA08/2RZ4ED/fds55eO+3fwCNTl/TzpmbIMzVvWPWQeYNyDCq/JkZFWfMLmxhKf1FWRW0pMA65zJKuhQNTLOkS9VK5SMoI+Np3V6cv6UXzpVMMV+t0eL3GQQEQWiHycDeahlyPgeZ8qiPT6Bw5CgKAwdR2Pc8Cgf2Qx6ahJylLI5KGlsJWkVdTolVYH9f+Smn+iizXMlWwP5Lxe5UXnoZWuQ1BiQ6nQh3dSOwbiOCPesR83Qh5fVCs3ET9F4fZLWm4vyX39B4EuwykE3Ecds//wOe/MVPUMjnW35UDBYrrrjxr3De2/4UGoO+5du76hpY+rD96gs347f//Z+17WRXBAwJBbmIq97/V3jtBz/K3sbaqXRFw9maQOEbinQ6vbFqyiiay0PKZKDOZSBls9Cks1DnspDyeZB+hFSgaBsVikTuiTtotChodSgY9SjqdCjqjPj/7H0JfFxV2f5z7519JpN9T5p0Ly1taYGylELZFGRTwQ30U5S/4IKf+ycigqiICAJuiKKigCKogIBSRMq+tRS6702apVkmyySzL/fe/+89dyaZmUwyd9IsM8k5fv1ok7uc+5xzz3nuuzyvbDawnyuC9gHA7qCqrESzf3AQ7p6e0eprp0FW+2gwSSIWV5Zg/cJ6FNmsR/fs0zJ+s/OmnCDk8rjHGb0iQz60D+ENGyFv2gT5wH4oXV1QBwaBcDi2+ZN5Nb7kHK03VuP9sW8OhpAiSohaLQjZnfCWlMNTNw++lcdh4OQTMDhvEWTJDEEmX+T4BGvkUBhvPfYwnrzzx/APunN5VJgVxVFejo/ffDsWrTuTSVLzNvUIiJIBW/75d/zlhm8gHEzMzJn6vui5o63AiSvv/DUWnXqG9nbp0CLR3mktnohZDun/aHOnP3IUtr5uWDs7YDvSCtvBdlj7emAcdMMYGITo98LgC0CKhiFEIhCJQCgyuze9z2RVUIxmKEYTog4bZJsdUXsxgoUlCFRVwDO/Ab45cxGsrELYaIG3pwe+vl4orArc2HOeJKXjFRnNkog1jTU4saEKDvPkZELpwZ8fkz0CnCBkj9nUnBGLylbcPQj88EcIP/AAlEgEgmIAmN9vbBJAXyhjeWTJdqAya0HqUfHvkUSVs2HLgGaLMLB1S5RCgFFC74qTsP+qq9Fx8pmALEKMhqCSPTGLRl83B7e8iQev/xpTVszZxqAQUXvMMfjcvQ/BUV6RcSxy9lnyuGNs21RV9LW24JfXfAL9h5tz3opwzNrTccWtP4OjtIzpH2QM9o35AwSqcKoIkK02ti8Xtu1F1asvoPI//0Hhju0wRNyAQjFIRqgqWfRYnoBG8CkeacjGIEOK2QmTXYGaJUIzF2jrgihGIYgRqJIV3qqFaD7vTGxdfiJ6qxughqMwyFGtTssoRIHIAVVvJGXUM+bX49QFdax0c74oXubxqzGhXecEYULhnICLsQDDEORduxD+19MI/fmvUNqbmctAa2MRg7EtCGPFCKRzDowdU0C/jbsoIsxM6Vm8FG3nXAjXmpPhr5uDsN2hLSI6YQkODODhG7+Jrc/+Kzcll2MgUSbDxdd+A+dc85VYFUedD8gPm1gEFBVKJIxHb74Or/394ZhPf5xuront2YirmWw2XPLVb2Ptxz4JMPI8Mqpg6CexcABRjsLo9cLa3Ql7WzPK3tmMsrc3wdF0AFLIA5Vt9rQuxMMJ45Y/7c0cmdehDxvtXMYWYo5IynZSEbE64VqwCM3LV6FzyVIMVlQhUFCIqGQYkfdE59pMItY01GBNYzXMBl6ueZKn2KRcnhOESYF1nBdVVci9LkQeeAChfzwOefc+IEIpXLpDlMZ54/GflrwQqVAMZgRq6tF//Ap0nHkeuk9ah4jJykybmRyPdK1tzzyJB7/zNYT83kxGkvF3OtszE9ZV+mtpTR2+8tDjcFZTymdibEe2F+bHHy0CNGcOvfkK7rryo2Bf2lkk3B3tvfWeTyS5euESXH7LT1G3bMWopwlkKDBIzCVQcGgfyja/gdKtm+HccxCWnm5I7J0gq188rkgv9dbb09GP0yiHhq8imREoLEFvYz1aVh2PQyechMHSahbjoH3DqEzX4KzFDVhRVwGbkWcrHP0ITM8VOEGYHtxH3lWOIrr1XQR/8SuEn3wCYMIj2Znpp+9REr9MYlYMUUWoqgLdp56F1vMvRv+SYxG12jOa4+VAEPd/9bPY9uLzLF0zvuBk8nlO6rPHH08QWC77eddci/O/8m3IFP/Bww8mFXpdF1cU/PHLV2PLs08PWxGGBCumfoBSv9MpVuLUD12OC796HcyOglGzF8z9fSjauwtVr2xE2ZZXYW9qgRgKUPhhjnwkaAGHmt1QS3+OWC3omT8Pe9eeg+aVJ8BXUganxYy182uxvLaCuRV4y18EOEHIgbFTwyFEnnwagbvuhLxjVyzGILlj+oyDOfAwQ13QohUoyyFUUYXOLOHDEAAAIABJREFUdefi0McvZ8GN9KWnUiW7hMZcERRlLYjY+/J/cd9XrkHE78+tL3RBQNmcBnzht39Gcd0crRpdTGMql5CfbX2huXNk1w7cc/XHMdjdHQv+m3piEMddiy3WgnXpD5V1/tIfHkHD8WtSXmqVyqZCCvtR8+wzqP/nk3A27YKpvw9ClD4Qpu8ZMs8hekot1oFaxGZD99zFaL70Uiz48KVYWFMBAycHmWHM8SM4QZjmAVKjUUQ2bIDvW1+H0tIx6pKQ3qc4zZ1Puv0whYl/Z9Cv415MCTKLS9h63ffQdeI6FkGdNpCRzKzRCP70javxzoZntK+VHFgnqR8U/33xl76B93z+q1C4ayFnJh8FvsnhCJ6+4wd46S/3Q47KeguWTsozDAXiCZTaqOKcyz+JD970Y6YbEP+dqigQZQWlB7Zh+Y9uQfGON6DAFosbiLsOKBE5Hm4YdzPmwMsQe6+H85woRZredBHGAgdM130FxiuvgWA2xbRScqPPkzLYM/yinCBM5wCrKiJvvgr/178FecfOLHKLp7PT4723RnHCRSU4/P4PovX8S+GZO5epOLIProTvJVpO2nZuxR++9gX0HG6aWr9ykqlm+B/kWlhw4kn42A/u0KwHvOUUAqoso2nLW3jk5uvRdWDfUErgdJJLylSYf/waXHPvgzBabVrWgiBACgVRvHMbap99GrXPPgmTuz/mRogTg3QBjMO6JTkFfMrbyd4YkxHmj3wYls9+FtLSpYCBxyDk2pjp7Q8nCHqRmujjVAXy/n3wfPZ/oGzdz9KUZn7TNlzVIKF/9YnY+9kvonv1ySMfm0RZZBlbHv8bHr/zFnjTyC9PTbqU1l9ye5TW1uOy62/GknVnMSnquB79zB+z/HnCaCCAVx76PZ6+5y5E/eS7T3inJtFHN9pcLKqsxkdvuhXHrD9XExoSJVj7OrHwwftR+cIGWNs6IbIg5Jn07sfyH0QRhnPPhe27N0Bctoy9Q7zlHwKcIEzHmFEak8cN33U3IfLg75lpbtY1SYR33jzsu+qLaD/zvJiyW0wWNvYB5evrwdM/uw2bHv8bopGQVlF5kq2VLA4iQfiI7B6SyYz1//NpnHv1l2CxF8QKWs26Ecv9B44pcv7t+9fjrSf/PiwulGqimqQnSYxHoQqlZ3/qszjns9fCaLZBVCMo3rkdCx+4F+WvvAKRCZzFWUucIEwii5mkZx7zsiYDjBecB9uNN0FqnJ9RXGk6usjvOTYCnCBMywxREX7hBXiv+TzQ0RlTQpzknW9annO0m8bztoFIYRm23nAT2t9zEUSqLZEgvEJqbK4De/G7L30Gnc1NScqOk/Y4iWu2QMLTKpacfBquvONXsJWUTdpt+YUnBgGy4g90tON3134arbt2aDocqfUJJuZWyVdJ2NtFgxEnXvwBvP8b34XVWQRVkDDnv09i6d0/gYUKS02t02wynnbUayZTHBUQVZg+/WnYf/gjwGzhlrcpHY2jvxknCEePYdZXUMNh+L9/M0K//k1MKjl+iRn2BZEGmXRPqJqMePv2n6HjpPVQDKYkCVry/Xfv3YV7Pv8p9HUcgSpPXZ0GyWRCw7IV+Pxv/wwjWQ4S6llM2caT9eziJwgQ0blnB37zxc+gv/MIlKmaMywpwYAFJ52Kj9z0Y5TWzYHk96H+5Wew7NbvQxr0Jg1O6rswM99+ESgpgeOen8P43vdAiNV34LM0PxDgBGGqx4kirvfuhu/aLyD61jtTffccvZ/K9N53fOMGdKw7i2nDDzWK65IkNG16HU/d9SMc3LwpjULcxD+WaDRi6Wln4H3XfhN1S5ezQjWT7d6Y+KeYvVckG9WB11/G0z//KZq2vQ2qGDrRvn62oSfEExrNFixdtx7vueZ/UbN0Bay9Lsx78I9Y+JffAhEitrPHSjicyaQBZDztdDgeeQiCzcFdDXn0WnKCMMWDpSoyIk88Bt9XvgK13zPFd8+92w0tJKII93Gr8O53foCBhoUj1lJa4Dv37ca/fn4bdrz0PKBQ1UoK5pjIRVeFKEgQDAasPv9CvPeaL6O0oZH9jOnuTPgWk3vjMRN6FA8apHTZ1m1b8fcf3YCm7Vth0FP/IBMA6T7zBRGiyYhTP/BRFqdSWF4BY8iHJb/9OeY8+jcY/IOZrjrzf28AHPf+CqZLP6Y9a4ZiTzMfkPx4Qk4QpnqcImEE7/0V/Dd8P60g0lR3J5fuR7oIrZddim1f+S5kkyVhERleld3tbfjPb+7GG/94FNFohJW5HxZcJHEatvrofKzU5Eqwhf6Mj3yCBZfZS8uHiIF2wZlpBNYJVl4eRjNhsLMDT9z+A7z73DOIhkKaCyuBW+oqqpjm6TXxYQGO4iKs+8gVWPfxq2ArLoUhGsaCh3+HRff+AmKAghF5I/ec8Yz1KHjkLxAspKjKWz4gwAnCFI+SEvIjePedCPzwtphk6RR3INdvZzbinRtvQct5HxwqN8Mkl+NFn1QgEvBi+7P/wvP3/xYdBw9AjtIiHP++17+Js3K0VJaWNOEo3uDYlTj3/30Bi045AxR/MFw9W29p3lwHdxb2T5s6iASCePuJR7Hxgd/B1dIMOa5UGCMLmZFJJZMCBJMBc5etwHuvvhaL1q4HSSqTQmjVK89h5Q9vhKXrSBZkNXMP8vsIAcKcEjgffRzSkmM5LnkymJwgTPFAqQEfAj/5MYJ33AkwjXXeEpUX6dPOfcxqvP7LXyNcWMJKKyf7jlVScIZkNqGn6RBe/NN92PvmK3B3diLkHYCiQ08inlQmSRIsjgKU1NRh2WnrWaW9wpo6psGQmOrIRyi/EEgXQEpuB1GS0L1vD1566A/Yu+l1DHZ1saJgFF+SaHMay5VEGQo2pxPFNXVYcdZ7sP4TV8HsdEKJykx52OwZxCnXXonCbVv5Jpg0bUQIFVY4fnU/jOecw10MefJKcYIwxQOlhoMI/ern8H/vllkijpQtwAIUiwVbv/sDHH7fByHIo1SBZB90KiKBALoPHkDz9i1o3b4Vbbt3oa+9BX6PZyiwME4IRPqaFAXYi4pRUluHhuWrWABi47ErUT5/oWY14G3mIhAzAoR9PnTu34Ombe+idcc7aN+zC+4j7fB6PElGI3JDED2lzARrQQEq585H7dLlaFi+EvXHHofyxnkgwhB3PRmCPqz8yc2oe+JRQNHr5pq5cCc/mQCUWmH/6a9gfv8lnDzlybBzgjDFA6UqUYQffAC+b/wfEOT+yfTwq3CtPxev/ex3QCQyakjBkNFXURENhyFTRcxgAO6uDnTu2wvXwb0I+v1w97rgLCpGUUkZiuY0oGbpchSUVYDEbAwGQ8ydwBf0KX4VpvV2VJo4HA4xa1E4EIC7oxWtW9+Fr7cbrvY2+H0elFfXwe4sQtWiJaiYtwCOyipIBhOMBgOLVdECXqj8slZtsfqV53HC9Z+D4KGfxSsVTOtj5tDNBahFdthvvQ3mj3wEgsitpzk0OKN2hROEqR4lVUX0jdfg+9LnIe87HPOz880pdRjC5WV49Y+PYKC6gVV/zBR4yGpHUqwCffVJEqugJzL3BMkiU6wBq2TP3BMU3KjJMvJo6qme/rlyvyE9LOaSIveDAZKR6oJoMtqscohKzi8VVFiJMiLov2weJihtsudRVRh9Xhz705+g7slHIcpUiZG3OAJUg4XUYoUyKxx3/xaGC97HBZPyZHpwgjDVA0Wa7O5e+L/8FYSfeCq2UXGCkGqOVG0itt74YzS/91IIyjhyyKncbsz4OyJskadYTfWsz8n7pcYasH8zf5RWxSHprRxjztBMK9y/F6tv+iacu3fFrAczqb7CRAyfBKHWjoI/PgLDCSfxGISJgHQKrsEJwhSAnHgLLXcfCN13H/zfuwnwkBbCLKzFkAl3I7D/M9di19VfnvQql/rzHjJ1mv8+nxEYv86FiJqX/oOV3/82TL29+QzBpPZdOmYBCh5/HEJVLc/gmlSkJ+7inCBMHJZZXElFdPcueK+6BsqOncz0zW0IKfCJClouuQJbr7+JVcHjjSOQkwgQu1QULH7gt1j8q7sgsPRJ3oZJt/Y3FWFYPnsNbLfeBkHSSrzzlvsIcIIwXWMkRxG4/Sfw3XITRFi5CE/SOAiApODwBz6Bd791AwUVTNco8ftyBMZGQBVgiASx4me3YM6f/zwlMuD5MCQyFEgxyyi5YARJROE7r0Gcs4jHH+TDAMb6yAnCNA0WC4Dq74b3o59EdNObPOUxdRyMwL5PfQm7Pv9liCrJKvPGEchBBFQVlN64+rbrUfPEU6CZSsWieIsjwKKGYb78o7D/8ldcjDTPJgYnCNM4YBSPoOzcBu/VX0B0x3YIQ3UFxu8NncbHmdBbqzYD3v3e7Th87sUQWPQ4bxyBHEQgRhBW3X49ah57Sst+yMFuTmeXxPo5cPz+NzCcuCYWnMgdqtM5HtncmxOEbNCa8GNVqJEIQo/8FYEf/BDqkU6u9h/DOFRdjZf/8Bf4KupBUssTWpNpwseRX3DWIqCqkMJBrLz7+6h/+FFezithIrDoA5MBli98Htb/+z8IVlvccD1rp0u+PTgnCNM+YiqUgQGEf/87BO76KVS3P2GRmQ3x9cnPSP8SoaDtog/hrR/eAZEJJfEvjmmfprwDoyIgKgoW/omCFO+GwOqCzM4Wl0zX3mjSQzfAeOF5sH3/BxDnNEJguiS85RMCnCDkwGix8rQAAj+9HcHbboMapLz/YUPlTKcJTESFeW+piVAdVrxx16/hWnWqJnKUA2PEu8ARGB0BgaU5HsfSHPtncaBi/E2l1UyAdMxi2O++C9Kak3hgYp6+Ppwg5MrAkYDS4ABC9/0OoT/+CUpLy6Tn/+fKo2vCNFpVRfp7+0WX4Z3rbtJKPqeq1uVOp3lPOAJDJvOCQwdw/M3fQuH2rcMqnbMYH3FuA6zXfQemSy6CYDZzK2CezgVOEHJq4FSofh8iz29E8Ke3I/rO9lh2w0z/ho7bSBR4lyzCpu/fjcF5izOpK+fUyPHOzGIEVMAQ8GPpPT9D41/vhxAlC+BsbSqkJYthu/XHMJx8EgQrpXBzF2G+zgZOEHJu5ChwMQx5y9sI3PVLRJ7/z6wo6qQKIgL1tdj5jRvQccp6qMxywBeWnJuevEOjIlC0ZzvW/u9nYHD1zU6URAHS0mWwfufbML33vJj1j7/D+TwZOEHI1dFjLod+hB74EwI/uQuqu5e8emP2Nn9jFSTIhSbs+uK30HzBZVAs5lwdFd4vjkB6BFh0rYjGDf/Ayuu/ClXWXGakkSrFXGgzFTp6UkUUYDz9FFi/9z0Yl69kAYqc4Of/iHOCkMNjqFLFQRWIbt+M4A9ugbxlG5S+QUChSOl8jQhOyVoQDYiWF+LgJ6/Cvg9/Gqog8XUlh+ck79oYCFClUJsNq267CQ1/fQBSIDjz0x5FA4QiBwxnnQ3b974LqXaORgyY4SB/P1n4PNcQ4AQhH2aCqkBxdSP8zAZEn30Okddfh9rjynuGrppM6F11Mpou/zg61p3FyuvylMZ8mJC8j+kREABVhtXVjSW/vwe1/3oMkpfSlmdos1pgOP4EmC+7DMZLLoRYXJZA7jk5mAmjzglCXoyiqpWhDYWg9PYx9cXg73+LyH+ehxqVIYDMeVpd+9xvZPlQIJc4cegjn8Th8z8If3UNVKq3ICSmSeX+k/AecgSSEYgpoCoKLP19WPDw/Zj75/shBMjiN1MKspGbMwqh2AHL5z4H0yWXQZo7DzAbhz5YWNo21y6ZES8HJwg5PYxpWDipCtIfjwfRTW8g9OBfEX3hRajunhg/oA04M1FIvfJk830tjVGFbHOgf/HxOPC5K+FaeRIUg4FbDXJ6DvLOjQsBVYEx4Me8R/6Mhff/GtLgYGwDzfxujut+U3VSQSEMp54G65evgfH4NYDJCHABpKlCf8rvwwnClEN+9DccYuiKwtIio/sPIPrSS4g8swHyvp1Q3R4gStoCmlUhrjCQeOc4IUj9b6beadt88iKX7mfMfxWnKpKIcEkRcyccvviD6DnxFESN5phqPY9yzoQ5/32+IRCf+QIEWUbJrnex5Le/QvGWNyD5KS4hz5ooQCgrgnHtmTB//HJIJ58E0e7gxD7PhnE83eUEYTyo5dA5TGIotl+rAQ+ib7yO8L/+C+XAVsjt3VB7vFB9PgjhgObjTxs6pP1cW9aGF7fRHzODvUGUIJttiBQ6EK4tQ9+C43DkvPehZ8XxUAQDRDUKSmvkjSMwExFINLELCsXVAKbBPsz9x8Oofn4DbM3tMPjIokDqoaQimkjTJxORsd/bOO1nNkjKQnA4IdaWwrBiJUwfugzGU0+DYLVrORn8/Z3MgcqZa3OCkDNDcTQdUTFczUhhBaCU7k4oza1QmpsgH26B3NwE5eAhqK3tUPr6oEaDjApoyxP9EUc4JhKpQqLNQFMooJ9Q/IOmgqgYTIg4SxCYMwcDjfPgnbsQ3sZ58MydC39lNVNFjFdlpMJL3G5wNOPNz80PBJLtc2I0goKmgyjfshnlr7+K4u2bYXT3Aiq9e3E7H1Uunay3Ix1BiOuNyOQAhCCZIDbOheHkNTActxrSyuUwLF0KOAp4XEF+TLoJ7SUnCBMKZy5dTIVKZZIjEUYYEIkCAT9U3yCUriOQt25DaPM76Nm0E1ZPL6yDvRCVCEsiSFyeVCq6ogpDiwN9EJHPMWRzIlpUDs+8RnhWLkXv4pUYmLsEYWcJFBZwCChGM1RDsqWAF7LOpTnC+zJZCJBVj5HqlL2eLApiOAQpHIWzZQ8an3gEVRuehcXnQlQ1QQEF+8UJeNxNmM5JOP6ea2RfinUtABVRSAUlkM48A6YPfQiGlSdAcDoh2CwAuQLpfeZtViLACcIsGHYWM8DcC0zNhT2xLxzGc4c6sK21HeaQH0ZvCFavG5aQF8ZwEFI4DBDBoEanSxJkkxlBewEizlJY5s6DsawEYXMBVCIQsgwxGtbcHSJxitSvIE4NZsFU44+YDgFmMku2wQmqAlU0IBgOIbRrC2re3YL6LdtR1tYCe38njD4PREXVrG5JIT+jBTkmvl/JbsIYp2fqpIJkBMwmCMUlkGoaIS1fDMOJq2BcuxZidS0TeyL5FSqSNhx8OJprYrJDm/l0mm4EOEGY7hGY4vvTKz3gD+K5Pc3Y09UbW3toAYsHH44Vg6DAaDTDWVYGq90xVFxJe4QYIZgs6+gU48RvxxGYfAQEePt60d/Twyx3UjQCs88LR18PCjs6UeTqREFHBwrcLlg8bpiIyAeDMIcjkBQZKhGIKLkGYs1AljsBAhEAhxmwWCHYHEyfQKiohthQB6m2HkLDHIiVlRAryiEWFbEUY+211cyHmhwJf5Enf/xz/w6cIOT+GE1QD1WQe6DHG8CL+1uwq7M3VihR/0JgNJtQWFYOi90+QX3il+EIzG4EvP19cLu6Y5a9mF9CEKBIIgvkNSgRGIMBWDweWP0DMA96sUAQcWyhCRbazH2eIcFCwe4EJBGCvQBCWQGEggKIxeUQyssAm41ZD+KxDlrkEHECXvNkds/AsZ+eE4RZMTs0U2C/L4j/7G3CAZcbMgsm0CmGqqowWa0oKi9n/x22GORWTjd99cQzNWbFsPKHzGsEaGsO+v3oaW8fe94y695ws5kkrJlThdPn10FVokNhDkxsbCjYUSP+2ps/7OJg7kD93wR5jS/v/NEjwAnC0WOY81egTTMQkfHQph04MuCFmGWKktFsRml1DSSjgZsec360eQfzCQEBIrraWhDyeyGqAovdSfXsJ/9b+1dUUbF+YT3OXES1D4aJfuKxiemW8b8P/T72l3Sqh1wJMZ9m0OT2lROEycV32q+uqCq6PD5s2NWE5j43JCqGpNsGkGA5sMQtB9P+SGk7QItaJBREyOtl2Rsmqw1mipNgZaN54whMLAKKLCPk9yNCG7tkgNlmh9FiYRt8Nv57OjYcCKC3qxPREEkyD7eksEOBFFSH53JcnIxIwgkN1bAaSW59uPFNfmLHe7ZejROEGTryTI4ZQHPvAF460ILWfq9eh0IMERUmS9ytYJnE3OyjHwAlGkXz5rewbeMz6D7cjEgwiKLqWhy7bj2Wv/ciiKI4eanlR999foV8QoCqq4ZD2PvKC9jx4nPoOdwMg8WCysZ5WH7muVhw8rpY0bHsNutQIIABlwuhoKZPorfZTAac1FiDExuqYaYgRd44AhOIACcIEwhmLl1KVlW09A3g+X0tOELSy3qXHZamKMBis6GovAIGkym5tsOIlK3pe2qKtlZlGdv/8zSe+cVPceTgPtaZeP55QXEpzv7057Du8k8xi0LCB9j0dZrfOX8RoImlKHj330/gqV/cjp6Ww8xaxV4ZSUJ5fQPe94Wv4bgL3j8uy1XIH4C7x8UIrt5G97YYJKydV4sTG6thkjhJ0IsdPy4zApwgZMYo746gRaNrwIcnd+xHl8evSSCwnTM1H3vko5HlwWq3o6giTg5y+PEVoH3HVvzlu1/HkX17QKJO7FnjtllRQGFFFa64+Q4sPO30BNMvz9/O4VHN2a5RvEBfazN+/qnL0NtxBMLQi0Vd1lIEDXY7rr3nT2g84eQRNUsyPRhdLhzwo7ezE3J0OPgw03n0e5NBxClza3H6gjpNZolXVNQDGz8mAwKcIMywKSKrCroG/XjgrZ0IRaLapphADJgACvu/NIZMQYDVZkVRZRUkqrKYpuXS1qqEI3j2njvx73vuZNrwWtpWTBMq1nez1Y4zPvkZnPv/roXRZtN4kn57ygybHfxxjgYBmmMv3n8vHv7hDTBLhjQEQGDaBGs/9FFc9t1bIdI7pDMGJp6Bo8UkBNHd3sasY5la4lyOKArOWdzAiIJR4rVOMmHHf58ZAU4QMmOUN0dEFQUHXP3YuPcwXF5/VgVViDhY7E4UlpWNdCskIKClSeVGemPQ68Xfb7kBb/7jEbYOp9NqFEQRi9acgo98/3aU1GkR37xxBLJGQFXhd/fjN5//FJreeTslVXB4mxYFA5auPxP/8+Ofw0QVD2li6rDcJfVHAJi7wdUdczeMzGxI7X+8BxSHcOq8Whw/pxJWoybbPNw4Nc563Gf5CZwgzJAJEJUV7Ohw4bVDbejzh4bdCqM8X+pSUVBUBAfJr6ZEQ+cyPGGfD3+/9bt4/dGHx/xQsxYU4GPfuw0rz794REGqXH4+3rdcQECzuIkGI9596h944NtfRTQYHLYepLxIgiDh2DPPxicYQbAfVUlkypIY6OlBmGISdOztzOUhCiyjgQIXyZIgJVkwdFwkFyDnfcgZBDhByJmhGF9HmDCQAOzq6MHGfS3oZ/Xm9cdBkwfCXljIFBKZTGseqagokShefvA+/POnt0KWo8m+hZTvpoXHn4irfvEHWIqK41qy4wOcnzUrEBi2RmmbasTnw++u/Qx2v/byqEJD9O5EozLOu/panP+//8cCF7N4FdPiSiShv7sbUaqNkkUzShJOm1+HNY1VPHAxC9z4ockIcIKQ5zOC+AFZDp7ZdRDBSKy40tAzZf5isDsLUFheoS1meddE9B0+iAev+18cemfzGMRIgKzI+NiNP8LaK66EStVojnblzjuseIfHjYAKvPrQfXj8jlsQDUZYMCy1dJ4Ds92O//vbMyhpnJ+c/TPumwNBrx89R9rZ9fSWPNOIvoLTFzZg3bw6rp54FPjP5lM5Qcjj0Q9HZezq7MFjW/fDQBt8UlQ1W8JiT5c+INHudKK4ouKozKDTCR89nSRK2PTEo/jHrd+Dr68nbXeY7rwgorxxLj5374NaLEIeWUqmE+NZf29VRfeh/Xjw219By7atKZqFiegILAj2ihtvxfEf/DDLQtBaZpKeCWOauyEfZTccSbju2GeRu4FqOUgCcPoCElOqgiWP3IeZMOG/nxoEOEGYGpwn/C6hqIxt7d14rakdg4FwVssQBe45CotQUFKcp5aDZDj9/X148o4f4tW/USzCKAuyQCTBgPUf/xQu+vp3IBlNPB5hwmflDLsgiSKFQtj4+3vw3z/cAwqKTW7Dc81gMuOkiy/Fpd+5BaI5NThwInAREfR6MNDbwxRDs7GAkZjSmoYanEQ6CVxMaSIGY9ZcgxOEPBtqijkg+eQ3mo7gjeYjCEQipN2iO3aAyAFlKtgKnBBnRCoUSdAC7vZW/PLKD8PVepjVmkjOs9AWcjK72oqK8cFv3YgTLrpU071n+eLxSaA/diPPpg3vrg4EUmsXQJTg2rMT937hSvQcaWO6B0PHJPBQMvzXLz0WH73pVtQvWwlVZ2qjji4lH6KoCMayG6IRLSZhLPsE9ZWSHWmeU3bDKXNrsG5Bfda35SfMXgQ4QcinsWfyyQLeOtyBF/Y1IyxTLXhKo9JHEGiDLCgpRUFRMQSyPSa0vK6EyDZ5CR27t+Geqz+BAVY+N30jglS3bDkTT6pavISRhtxI2syniTg7+hrx+nDPZy/HwXc2J0esxHZlRhZi1rgPfOMGrL74MgiT/oUuIOjzo7+rQ3M3ZOHBoBTlMxfV4+S51aAgRt44ApkQ4AQhE0I59Ht/OIo3m4/g9eY2yHI8IFGfIAppFzjLyuFwjiQHOfSI4+wKpaKpUBQVbzz8AJ7+xR3wuftHDRIzWMw47dLL8b4vXweT3cbjEcaJ+kw9jTb+sN+Pp+74IV586H6IY1gEBIMR519zLc69+ssQJiBrQQ+mgiog4POjr+sIqGiU3kZkmNIeKSbhxDnkbtC3dui9Pj9u5iHACUKejKk3FMFbzR2MHJCLIZvCApShQPEGZD1gXz158szZdpNMwJ5eF57+2e3Y9OQ/EA0GUi4xHLRpKyzCZdfdjJXnXwLJlF41Mtv78+PzGwEmMioASiSMt5/8Bx655UbIfj8UlvUyskmSAcvOOQ8f/e6PYC0u1u3mmwiUaLNnloTuLt0pkPEMCIpDIFfD6roKHrg4EYMxg6/BCUKODy45FXyhCF491I7tR1wIhOmLYWyj+LDVUYUVkWq7AAAgAElEQVRkMMJZWgqb0zmlC9i0waoCfW0tePKnP8Q7/34qZh3QKltqxGj4b47SMnzoupux4ryLmMCMlhoWW0azMN1O27PyG084AqStsXPjBjx194/R1XRoVG0NqhC6fP05+OB1N6Ooth5qLDg2TjImvGOjXJACJ0lMKZKlToLTYmIxCSc21qR8MPCJP1Vjlw/34QQhh0eJtrWIrGDDriZsb+9hXzLs9U2pDZ/6CPFXXDJIKK6ogmWWmdFVWWEk4bdfuBKdB/cnpXtSxEGcXlEoo7OqFp+87ReYf9JaKCS2xEI6yMoyU+0sOTzhp6hroxUyorLhHXt24S83fAPt+3ayugrpGs2MeatOxBW33ImS+gbKtdWCYLMuzzQBD6yqTJa5r6sLcjSSQoHHvj7Vazh3SSNWz6nCaMk/E9BDfok8RoAThBwdPFqa/OEIXth7GG+3dWvpezFlFgo2ytQoQ6GorAI2Z8Gs8rHHzai0XHfu3YX7vvxZuA43Awlm4qHMBcJRBOqWHIuP3Hgr6pYfN64yvZnGgv8+xxGgl00F/H09+NM3v4i9b7w8hlS5gIqGubjs+u9jwSnrIMaCEqf1u5vcDR4f+ro6MsYkpCqjkET7+46dj1X15TBJ3NWW4zN1yrvHCcKUQ575hvQF2+sL4pUDrdjZ4YJMBZIynzZ0hGQ0orisAmaHbXa4FdJhw4RiBLRueQt/u/V7aN21fWR1PFotReJPEuYffyLe/43vMpLAyAQXUspixuXxoYwcqGjftQ2P3HwdWnZsZ+Of1nagCiipq8Nl130PS04/G2IOCQ/R90OQyTJ3IRrRLAnp20gq4zCZsHZBLVbWVcDMsxvyeDJPfNc5QZh4TI/6ilRP4aUDrdjV4UKUmTn10wODyYSi0jJYnQUsIHH2tWQxWgo42/PyC3jizh+h6+CBJEvCMDYCE4xafMpaXPSV61Gz5BhAIOYw+9CbdU+sKGjftQNP3P597H39VaYNMtp7U1rfgIv+95tYfeGlUBQ55+YHxdAEvD4MuFyIhEO6CQKxIYfFiLXz67CythzmUUq9z7q5wR+YtD9m5S6Sk0NPlgO3P8RiDpr7Blj8gZ6mxSQAJosFztJymG3W2Ws5SAMYqeHte/UlPH7HD9F96MCoQZ6CKKFi3nx84GvfweJ1Z2ruhgRLgl4dfD1jxo+ZXgS0Gmcqmja/gX/94nY0vbMl9uWtkeohWh4b9PI5jbjk69dj6fr35JTlYASKqoqgz8cKPMlkSUicvzGrWlqDGwCn2YRT5tXgpIaaFPKT3UfK9I4sv/tEIsAJwkSieRTXInLgDUbw8Oad6PSkpueNYixkAkHaZ67BIKG0ugZGq0YOOO9LwIztBiK69+7EXVddgWAvBXzGHM+xw8gdQWmSkmiAs7wMH7/1Tixae7ZWJZJLKR3FzJ7uU1PrMlIUquZb6ty3A/d98TPoaWuNz4K0nS2trcUnbv0ZGo9fE/NJTfczjX1/emIKXOxub4MABVrMkr5NnrRELlw+H6vmVEJkMU+5/ay8d5OLACcIk4uvrqvLVBDG48ML+1qw39UHEVJW8dCSUUJJRRWokhxvoyDA1CaB/a++hH/efSvad++KFb5JccMIZLWRUFJdi3Ov+jyOO/8SWIuKOKwzAgEK9AWCg4PY++oLeOKnP0Jve+uoe6AAEZXzF+LCL30NS898D0sZ1uKDNZLBtt1c3UBZ4KIX/a5uZhnJ1E2tbLwW62QQRZy1ZA5W1FTAmkNxFjNiCubZQ3CCMM0DRtvREbcHG/cdxuG+wdiXf6bXebjT5E6gbAWjxTzNT5IHt2eCiwpat7+Lf//8Dux9/RWoqpxibUnWSVj93gtx7v/7Igqra0cVzMmDJ5/VXYxnrdD2N9DVgRf/dB9ef+yv8PeT2ubIxhIWBWDeilW4+Js3Ys7y4yCSX17/a5kbeBMZ8vng7ulGNDx24GJiYi8RaYfZhLXzKHCxEqYZUbMlN4Yk33rBCcI0jhhtRT1eP57dfQhNvYOgeMRMa1B8+6KX2Gy1obC8DEazZRqfIn9uHftIYqlglO++4Z67sPPl5yEnicwkm2JFUcKCk0/BuVd9EfNWr4Fk5kQsf0Y8wTukKDi8bQtefOA+7Hjxv0xKObkNvVmQTCYcs/YMXHDt11G7bIWWOpjwYuoz1ucOSkEKXOyJBy6mW2HoMyVZdpneFbvZwBQXV9VV8NoNuTOcU9oTThCmBO6Y9E7CykKJVG19Hjy18yD6vH4oOqV5tEuosNgdKCwvh9Fo5Cl54xhDVVHgHxzAi7/9JZ5/6H7I4eAocRuklSCgrK4ep33oCpz6sU/CZHdofuyUVMjRBHjG0T1+yjgQGBF7E4s9UWUZLz9wH176yx/R294GVYkVOUqSN9IKfhnMZpzywQ/j7E9/Ac7qmhmgixFzq/h86OvsjJGdYZLAKlSOmtKrwmKUcPqCOTipsSZpRLiY2DgmaB6ewgnCFA1aokAJBch1DPjw2NY9cAdCsSAi/R0xmE0oq62FwTAZdef19yPfjyTFRarG9+LvfoV/33s3QqS7H5W1DEfmZqYgLQVQNaW8iCJj1Znn4sM33QZbUQkkk3EGbCD5Poop/U/4GCb54cEjbfj7D76DbS9vZF/BI4N3tTdTFA1QzSacffkncd7nvw6jxaoN+wxp5DYhnYSeI+1QFPoc0VomVVY6hjC74Nj5WFFXweIT4ufmmyVlhgzllD4GJwhTAnfsVVIVRFWgqWcArxxsQbvbx9wK9MZlci1oLzNgcdhRWFoO0jvgbQIQUAE5EsbO5zfghQf/gKa332IXHRZkZsizn9AiS5af8oZGrL30chyz/mxUzl0AgfzTSRYFvnROwMhkf4mYUYeIX29LM3a8/Dw2Pf4o2vfuYuOTSg7io0TCYqSmufbDV2D1BR+AwWph0sM5G4CYPTJxNsACF93M3RDWtebEb0XBiusW1LGYBMukl7Qe7wPy8yYaAU4QJhrRMa+nYn+3G//d14web4DtKXrN0mQ+tTkdTOfAYDTyNMYJGbfhjVwOR+BqPoiX7r8Xb/zzH1CYBkVyKmTiLc02B2oXL8Hx77sEaz7wUZidBZAjUW5RmJBxyf4i9C5Jooiwz4stT/4Db/zzbziyfy9CXgr8TXO9mGVINBqx6tz34awrr0btMcu1ugpp3EfZ9yhHzxgKXOxBJERiSsOp0sk9TiC5MYn3ArMJp82vw2pKgeRKozk6wBPbLU4QJhbPUa6mglIZD3YPYMOeQ3D7g5r3U+dXCpkBrQ4nq8rILQeTNGCxr08KXnvjkQfxwkN/QB/5qyGnfEoOB7PR4mq027Fw9RqcetnlmH/yWlidhcMltfkiOkmDFbtsbOMnQauIz4cDb72G1/72EPa+9TpCHs9wZc6UXhDZJjdfYVkFTvvYJ3DKhz6OgrJy/aa8yX2qKbk6BS66XS5EI7QWje5LSRQHI7jNBhFnLWrAcTxwcUrGabpvwgnCFIxAVFGwu6MXT+08gKhMjF2ForO+An3MOAopILGSyQHzNskIkClaUdG27R08/fPbsO+t10F+IKqkmdrIDSEKIttsjBYLGo87AWddcSXLmRcMEigQktd0mKjxGiZmLD6E/OiiBKrA2PTW63juD7/GwXc3ITjoYYXNNJWCdE27Tv2SpfjAdTdj7uo1EMhqMMvIHFkuQz4feo4cGWExGTtwkeI1gPccMw/H11dR/G5C4661iZrtuXIdThAmcCTSvR5hWcb+7n48t6cJnlB4zIDExEBGpvUmCLDY7SiuqoaY/CZOYK/5pUbu/LSxSwi4+/DsL+/E5mefQqC/b6gIjlbWN1mdjn2VEmEQJSw5eR3O+J+rULNkKSyOApgsVraq0sJLbcb5tid8CqXfaFgMiKpADgQR8HrQtX8PXv3rg9iycQMQCUMgAj1KiWbqomQwwFFWDtK2uPCr18FgtkJlNRX0RABN+ENO+wXjgYt9XZ1MlnnYszLGRh8ze5oNEs5e3IBl1WUwGw1ZxTNM+4PzDuhGgBME3VBldyC9YhFZxrZ2F95sPoI+H8kn09aiLyCRrAV2pxOO4mK2sPE2tQjEF0s5FMb+N17B5n89ht0vvwBvf1/GxZAsCjZnIeauXM20E+auXIW65atZ6W0t7oRbFsYezYQkOiYnLjL5cL+7H+17dqFpxxY0b34Lzdu2wNNH4xHLNmEKh/Erx/0PmjvBYnPgmNPW44QL3o9Fp66D2VEwtRMqV+9GiouDXrh7XYgOFXjKTJgIXardcOq8WqyaUwGjyK2buTrER9MvThCOBr0xzlWhYEtLN17c3woffd1Qtlxq3nwaskCmP1EUUVBUBEdJCXcrTNL4pLtsumJM7KtVkeHr68WhTW/gP7+5G827dsAoGcdWVqSYBkmEyWKDpagI1Q1zWTDc8nPPh7O6FnI0Aoq2Z1+vmdfjKUQhN26lyiqrrGgwW+Dv6cKO/z6DLRueRtuBfQi4+5nQkazIY0JH0MqKgurG+Tjvi1/FgjWnwV5SDJGnBycNMq05QZ8X7m4Xm5ejT8jkwEXCl7Ib1i+qx+o5VXwa58arM6G94ARhQuHULhaOyni7pRMv7D+MqL6CjEMR8ypEFJUWw15cyojCcNNre5iEB+KXjPlpRXi6jmDjH+7FW/9+Al6XK/bFSoOcusvHv4KJYpDlSGHpkCVVNVi27kwsP/t81C49FjanEwJp/FO8Qiy5Ml6A6+jHfjrqTybOU/1zNp7NQ9YCJmLl7kPHvt3YuXEDtm/8L3o72qFQlgjTp9DEf1iUb4qrh34eD0IsKC3FCRd+AGd+6momla3Z0FMn83RglJsvlN8ziAEiCaQcOaLFLDKqCFUYGeFx3tK5OK6+EsakNSs3n5P3Sj8CnCDox0rXkYFIBJtbOvHawSOg+INsGgn0OEvK4CwpHiPIKpsr8mMnEgG2idFmryjo2Lsbrz/6IN55fgO8ru5YhcDELX1Y3X44WkGLXqBdzmS1oaiuDvOXHYdFp6xD/bIVcFZWwWC1QaJqnMzapJXxjtcHyv5ZJmfz07Pta67qNEeyOIzYLh0znhCe4WAA3m4XjuzdiT2vvYiD776DviMtCHl9CanA2iY18qkSM0vA3HLL1p+N0z78P6g55lgmncw/b3XMHlWF3+NhpaJJfVJvqWi6ssUkYf3CBhxXS7LMM0hhSgdsM/kQThCOanSHFzv6G5GDbW1dePXgEfipFnsWq5IoCXAUFTERpCE36lH1jZ88WQgwoqCqTCvhwKsv4rXHHkbLzu0Y7KbKeZRbnvztH9/UEn/OvpTJBB4l7QQRZZXVaFx9IuatOgFVC5egoLwStoICmO0OVmuDFQsaIeA0WU+Y/XUz6URpdQLBsg4ioSBT9Qt6BuHt70HXvj04tGUTmt7ZDNeRNlZi2yAaWJBuuuyRVHzpyhSn4yyvRN2SpTjlAx/GsnPfRyGjgKptdJrlIfvnmo1nEEkY6OlhgYuZWqINx24y4vSF9VheUwYLj5vKBF1e/J4ThAkaJl84gteb2vFOaxcCkbF9o8kbBflaDSgoLoG9sJBtFrzlDwK00fv7enF4x7vY8+qL2PXi8+g8fBAiCy+IWQxGeRyWqUIWCUqtZCxCgNFogIOsSOVVKKqpQklNPcpq5qBszhyU1s5BQXk5LM4ikMAPkRTyw7PI/ZQMiZFuionGVNsaNAtHiqVDlLSsGzKJRSMIDHrg7e1GT2sL+ttb0dXajP4jbXB3dGCgpwuenh5Ew2EWTKgJ8MRdCKP3mVlyVAWqIKK0tg7L15+DRWtPR8Oy41BQXhHLFNFj65hoXPL/ejQfA0QSent1lYqOPzELXLSacOrcWpzYUBWrdJH/eMzmJ+AEYYJG/9+7DuGd1k4wAb4sGumil1RVaeRglqZbZQFXThyauu0wn7iiIBIJw9vjwubHH8HG+++DZ9DN6mVoG2j6z9dEXXt6uJhoHZsLlDIpUXwCfQEbJUgmMwqLS1C3YDEaVx7P0ijrFh8DW3EZJKuVuS/INByNylDkCOvTcNOKTsWb3rkW77fm90/xPQsSRIMEg2RgKYYkWBQNBuDp7oKr6RB6mvZj76Y30b5/N/p7XZpyH8UREFxylPm6FVamLF7vYuTwDscmxNP16TlERigKioqx9rIrcMrln4CjrJL1gywJ8TTSYTWERKcEjwjV9RKRu8HrRX9XVyw+Jt1Z8TmtYco8SkR6JRHvWToXx9dXaj/XdUN+UC4iwAnCUYwKvQ/eYBivHGrF24e72BvCCvxkKIIS+/ZiL1JJeQUszsKj6AU/dToRSFLDjNnZaSPvP3wQmx7/O97duAGuw82aL52qCLKWGsgXX0ZjAQcjhBLIRK5ZlshfHyWrQSyWwVlQCHtpKcob5qKoshLFNfUoqayCvbSM/TFbrTCaLJDMVhiNJjbnaFNnqYO0qRP5IFN8bHXXeIwKRaG5LIOibGmTpntSWWwiANFQCMGAj1lOfL096O3qgLujHYMuFzqbDsDT2w2fx6sVBRIESILIyI7WZB2m/uSNZ4jUiBJMVguK6huwav05WPP+D6Ns3kJGNohjjCEIOJ1TJH/vLQjwDQxorjNZHv0DJs5qWWEnLXSBskcuXD4fK2orYOICb3k7BzhB0DV06RYsFf6wjJcOtGBrWxfC8lgOzuRvTvqXwWhAYVk58zPzNrMQYKmq5D+XFXh7utGyYyv2vvoi9m16HT1thxEJBtlXFW3MlN2QHHaX6XtL8+bH1+RE9wStzuShIquDaDTBZLWy8sVUu4P+a3MUwGy2wGCxssA9+q+1oAAmk5m5tlj0vyyzQj5edz+USARyOMT+REJheAf62X/laJgdw1INI2FWAZOkxOMxiUztgzaKmMViLOtJ+rcmFgzKhJFUGE0GlNXPxfxVJ2DJuvVMsZKkkck1x66dCbKZNb2m9mligYssJiEaJ7j6uuC0GHHGwjlMTIkqafKWfwhwgpD1mGn+Yk9AiznY0taJSFT7UtLbDCYjnCWlbHHO5jy91+fH5QgCsdgCSTIwc3/bru3Y9+araHr3bXQe2MPMtxE/VfSkDTExEj9128zOl67NqZFpl/RFT43up7U0czbJ56Hdl6TB2RXJ6sCsDbHT2fPF7WFpxI31dDv2yZkURCgIMFttKKyoQuWChWg8dgWWnHIGqpcshWSxQI3GIuzj8Qo5MtwzuRv+QQ8GWUxCOKvHLLSacPqCeiytLoeJZzdkhV0uHMwJgq5RSM5WoGJL/917GHu7+5gpVm+joDLJbGSWA4vdwcmBXuBmwHHaBiiwKP7AgBv9ne3o2LcHh999G/s3vQFXSzPCkTBLcdTM8WTan4QHT96JM9wgnSskiz5lIAiae0MjLGSSJqtaWU095p2wBnNXnYiaRUtRWlcPq7MIVJI5uQR3Yj8mJ50ziyed8YfGAxepwBPFjmT6HCJSqblbVTgtFpbdQAWeMp0344HMswfkBCHLAfOHI3hs634c6nHHPsJiq/gYAvvxQCtZiaKqYS7zCw81lb7IsoxszLLP/PCpR4BlMIyxwzMVRXI12WxAKITmzW/ghQd/h72vvYze/l5mrreYaJ5QhYeYPHM2j5GwOctQISUuzaMZEFLKiya4lke9s/5y5cNphuQaoIeKREIIKTKcTidWnHYmTrv801hwylqIJjOigSCLgWD1FXQ0PcYKHZfhh2RAwO/xoq+DCjxRlopOBkvF6RTgstVLsLSqlJOEPJplnCDoHCyKtnYNBvDCgRbs6+rLOjbXZDahsLICFqs9eePI5kXT2Vd+WK4iMNKNECcRFDdA662vpxtte3aibfu7aN6/G+72Vvh6++D3ehDyeTWff1I2QeI3mbZgp37309dcthWikjb+2AVHTNURN6K7J/gohtwHAiSKibDbYbU54CgrRVF1LeoXLEHjcatRtXApnBXlECQDoiT1mxC/oD0NBWgOb0acDEzj/GaBi4Pw9LgQiUR0W0FpzEgb4dxjGhhJMHOdhGkcRP235gRBB1Y0uQf9Yfx71wEc6nXrT2WMrWRGsxlF5eUw09cibxyBURAYSumj4Dw5iog/AN9AH7y9PejvPILu5oPoaTmM3rYW9B1pZz8P+HwxQqCZc5nZPvYnzha0QMh4G7m96hYRYnu/Jh2dKHVMegSaq01LLCSJcLPFAltxCcpq65hOQXnjfJZpUVxdB0dJKexFxTDZ7BCNsUJklDURy8zgEyTHERgKXOyN1W7Q2V8BKLKaWUwCBS4auOaLTuCm7zBOEDJgT19rHYM+bNx7GE295FbQ50Vjy7AKlpZVWFbGIsoT08mmb8j5nfMDARIL0LSIWTYApTnKMkJ+H4IDbgz0dGOgsxOu9hZ4ujvh7upkBaV8g4PweQZYKmI4EGAWB1WOsvRIOU28DKMVCS6HoX/H3fqx6U7/IfEjJuQlSjCQRcBmhcGkZUc4CotgKS5mtSac5RUora2Hs7oORZSpU1gEs83OalFoWg1a3QnWsgjuzY9xmx291GISvBjo1ae4mIiK02LCespuqOEkIddnCycIY42QqqJ90IcNuw6hrd+jSbbqGNF44JXZakZxZTXIgsAbRyBbBEZ4Blj2IFkJYnmOsdLRZG2g4MdoiNIPgwj5PEx3IeAZhH/QjdCAGz5SxuvrRXCwn6Wrhb0+RCNBuF097DhqcZ5Am31BaTlMJiMMlCppssBks6GorIIJelmdhUzN0ep0sp+bHU6WPkmpkxRMSKXKBUECC6+JX3jEi8MdBdnOh1w7nkgCZTe4u7s0zYxY8m7mfqqwmww4e3EjVrDART2rauar8iMmHgFOENJiqkBRBXQN+PDv3U1oGxiEoAyLyegZBqPJiIr6ObqDrPRckx/DEUhEgAgEI6NDQfwq1JjsMosXoP8xhUMJlGopGUXQ/2hhp9DH+OatnR5LWIwJ3ahkKVBJfFGTiyY1x2iESlTLUEg8SaHQR811wVQfKVEzQalxZBDbaJGRfEzzGQEae9+AB/1dHWMG5Y54RoG0QiRcsnwBFleV8CqQOToJOEEYZWAo1uDFfa1o7fdAEMncq5MgCIDFbmemVQNVkeONIzCJCKTLIkj8NmdWiJhtIO72Soo9j1VUTO1iugQMFqsQIwT6H4lbCvRjladHMpLghqe3j0lg63Ebxeeg02LA6QsbcGxVGUwGfRkreYpSXnabE4Q0w9be78E/dxxAny/A6uDob4pGDsorOTnQDxo/kiPAEch3BBSF1W7QYhL0Ky4S6XRazThzwRwcW1ue4GzgxDIXpgQnCCmj0OsP4pHNu9HtC2Qp7a7C6ihAUXkFpHhkdi6MMO8DR4AjwBGYAgSGqkD2dEOO6td2ISpgM0p4zzFzcQzJMvPshikYLX234AQhASdSc3uruRPP72tiMQh6G0nY2p1OFFdWsmI4ejMd9F6fH8cR4AhwBPICAVVlWTT9nR2p8lxjd19QYRQNOH/ZXCyvKY+V/c6LJ57RneQEIWF4g5Eont3dhB0dLiZGE6/MmG4GxKVEKfssbjng5GBGvyv84TgCHAEdCJDbgNJt3d0uVvxLdxNU2IwmnLukkQUumnWqaOq+Pj8wawQ4QUiAjGSUn9l9CLs79ddYoGyF4qoqmCwWbjnIevrxEzgCHIGZioBvcCCrwMV4OG2x1YzTFtRjeW0ZDAIPXJzO+cEJQgL64aiMjfsP4+2WblY8Zqw2FD0uCMy9QAWYNAsCbxwBjgBHgCNA4lwBClzscUGmCpw6G1kg7CYT3ntMI4tJGK50qvMC/LAJQ4AThAQoadPf392PR9/ZBxXymC6G5BFQUVBcDGdZuW5t8gkbQX4hjgBHgCOQwwj4BwfR393N1Dz1Nq0Ch4KLVizCUh64qBe2CT+OE4QUSCOygo37DuOtw1SxjKnb6wNdEFBYXAxHaSknCfoQ40dxBDgCswEBFrg4HJNA4kq6mqDCYTLirMWNMZJA5+k8V9cN+EGZEOAEIQ1CZEn4186D2H7EhYisXwiBJr6TCtEUF7GCNbxxBDgCHAGOgKa2STEJA64eJvWtv6kotFpwxsJ6LKEqkDxLTD90E3AkJwijgDgQCOKF/a2MJKRTlUt3GlEJSZLgLCmBvahI0xhPILz0ksTL+07A2PFLcAQ4AhyBvEGA1j7fAAUu9kLWmd0QVwEtsVlw2vw6rKgrZ3LhvE0NApwgjIIzbfbeYBjP7WnGzk4iCSnl7UYbH9IYFw0oqaqCzeEAaSTokR6dmuHmd+EIcAQ4AtOHQJwkuF3d7MNL56rKDjSJEi5esYBZErijYWrGkBOEDDi7vAE8s/MgDvcP6ApaZA4JlUiCgLLqWpgd9qkZSX4XjgBHgCOQBwiQJdXT34/Bnm7ojVuMO3pFQcGFyxdhKdVu4Fljkz7anCCMCbHKajF0UsnnnQfROuDTz1xVlUkuF1dUwRIjCekK60z6CPMbcAQ4AhyBHENAKxU9gIGeHiiy/uwGCCqKLGacvnAOz26YgjHlBCEdyCl1QuifPR4/ntpxEO0DHn0xCcx+JsBoNqOwvBxmqxUQWFHcKRhWfguOAEeAI5D7CPjcbgz29WUZuKigyGphJGFZdRkMPCB80gaaEwSd0JL08uHeAfxnTzO6Bn1ZxRUYLWZWxImRBN44AhwBjgBHgCFA2ggkyzxIlgS9/gb6yKIqkBYT1i+cg5W1FTz9cZLmEycIWQGr4mCPG09tP4jBYDjjmZpLgYUkMHJQOWdOkv1AYGogPLMhI5D8AI4AR2BGIkBrpCgIzIrQ7+qCIEi6Ahfjayu5gK9csxz1ZU5mnR02/vIwxomYMJwg6ESRJl4oGsW+7n68uK8V/f5AVoJINKEtNhur+GgwmXTelR/GEeAIcARmPgIUuEgkwdvfq7tUdDwDwm424rxj5mFBRRFMvMDThE4WThB0wimrVAq6g/3RYz1IvqzGa+n/W+025m7gJEEn8PwwjgBHYFYgMBy4qOkk6LYBCECZ3YozFzVgYUUxJBdViUkAACAASURBVHai7rNnBbbjfUhOEDIgR5s6VXnc1NKBzc0dCERIBUx39m7S1VmJaAC2AiruVAaDwRQziqV2IiVKcryjy8/jCHAEOAJ5hAAjCQMDGOjt1VUqOr5S0spaarfi7MVxksDFlCZi2DlBGAVFLddAhScYYbUZdnRQEE38p9pJqRw1ThsyDgxVgCwoYJYEgdHd1CtxgpARQ34AR4AjMCMRYIGLRBJcLt05X2zFpNoNZhPet2weFleUatjEllK+oo5vqnCCMAI3bSpR1oInFMbzew9jx5FuVlss3uLbuSBJKCovRzgYhHdgQItG1NsEFc6SMhSUUHEnvSfx4zgCHAGOwMxHgMUk9PZioLcnVjQv/UfZSCRUWAxGfHDVIjSUFMIgDnEE7nYYx7ThBCENaLTNt7s9ePVgG/a7+rV9n1IOVFZdgaU4mixWOEpKWEwBMV6azF63m5EEfTSBMhxixZ2KiiAmBdfotkWMY8j5KRwBjgBHIPcRYIqLfX3w9JNOgqyrw6z6rqqg1G7G+kWNWFRRAiNXXNSFXbqDOEFIQYU299a+QTy7p4npHcS8CsNHqSqssRgCo9FInIE1RZE1ktDXn4VGApEEEQUlJXAUF/MKkOOexvxEjgBHYCYiQB9f/sFBFpMQL/CUzuCa6kIgd0OJzYr3HDMP88upcB53MoxnfnCCMISaCllRsd/lxobdBzEYCMdiEYenI7kCbE4nK+ksGY0j8KYJPNjjYhM6k7ch0UYgSSKcZWWwOws1ckGsg4kk8MYR4AhwBGY3AvECT5nElOJS9omBiwVmIy44dgEjCZLAAxeznUmcIMQQozTGA939eHZPM9z+UMImHZ9uChxFxXCWlqW4A5Ihp1rnbpcLAa9Hc36xNjZ7pd9KooCiikrYCwvTloTmdRyyndr8eI4AR2CmIMBIgtsNd3d3FhZaZtuF1WTCxcsXYGF5iRbvxY0JuqfFrCcINFcisow9nb3YsLsJgXCUTUDimvH9nSoz2p1F7CtfEDNHFEbCYbi7OhEKBHUPBB0oGkSUVtbAbKO6DZnvk9XF+cEcAY4ARyCPEYgHLg7290GVlaH1OdNKSet4sdWC9y6di7mlhTBKtLZTPFmmM/MYrAnq+qwnCKSOuLmliwkgeYKhmDrisJHKYDTCUVwCR2FRVtob0XAY/d1dCPkDOoZqmNJKBiOKysphKbBnpdSo4yb8EI4AR4AjkPcIePvdscBF0qTJ3OKra7nDygo8LakshsjdDZmBY7H5ZLuZpc0fiWDj3hamcRBOiZIlUAwGA0tjtDoc4/qij0bC6OvoQCgY0Pgqq8uQhrXGKj/Gh4FISXFFOcw2+7juO0uHkz82R4AjMAsQ0HQSKHBxuMDTWIGLcfcsrb9OixmXrFiIOSVa7YasvvpmAbapjzhrCELiVKC/B8IRvHygFVvauhCVhwWQRBVQBI0cUN0Ei93OMCPzVvZcSkA4EEB/Vwci4RDUmJaCHsOWyWxGSVUVjCbzUKbELJyf/JE5AhwBjkBaBCitnMUk6Gja+k8p6CoMogGXHrcQC5gsMw9cHAu+WUcQaKJ4QxG8uL8F2490D5GDYZBUtikXV1TBZLPomHqZDwn5/XC7uhAJRUZwVoF0E9LGGyhMa6GkqprXbcgMMT+CI8ARmGUIaIGLAxjs6WbCdnqtAXRkud2CC5YvRH2xg8cijDFvZg1BIAxoQrn9Qbx0sA3vtHaxzIGkSSUAJosFJZVVE7spqyoCHg/6Xa4kfXGaqOKoBIH6q8Bid6C4ghd3mmVrH39cjgBHICMCFGoowtPfDw+rAqlPTIkJ3okKjq+rwtlLGmEySBnvNFsPmDUEgUxLXQN+vHSwFfu7eyHHVRHZyGsuBtqMnaWljCRMuJYhkQSfF+5uF+RoJIGYjM58478hNwfFQvAKkLP1NeXPzRHgCIyGgKoA/kE3Bvv0kwRaWysdVlyyciEqnWRF4C0dArOGIHQMePGvnQfRMehNDhRUyTOlwOYsQHFFZZLGwURrDwiKCr/Pj/7uTmZJ0K7P7AhpZ2ei+4FSHykmgbIceOMIcAQ4AhyBYQTkSAR9nZRaPnbW2LCYEhV2MuL9KxZhbhkpLfI2KwkCuaZcXj+e3d2E5j43lLjlIK5WKKiw2QuYSJFoMDBrwsQRg2Q7hEI1G3p64COlRUXJakYSkbAXFqGwrByCyANrsgKPHzw2AvrdtxxJjkDOIaBEoxjo6YHf48kYSB5fkZk2gs2M969YiLriAh6HMMqozmgLAgWutPQP4rndh9FJloPEEEH6epck2As16WTadClTYVKaCoSDAZaWE/RTyuNwo41/OPVRk+9In3eqsj6S0mJhKQk2cZIwKWM1yy5KgjOUjksKoDSnKMVWMhhY4OwkvQ2zDGH+uJOFABlfw+EQIwcUCJ5tltmSyhKcv2weKxHNW3oEZixBiCoKDvcN4rk9zega9CcLE6qAKAlssy0oLYUoTk6QCi2wRFJo8lIhJzJ/pZKQePqNRgwyfcpRRUkwueeC4iJGcHjjCIwLAVVFJBSCb3AAQZ8PiqyweF2j0QRbQQGszkKIvAreuKDlJ00+AkQGwsEgBlzdTLE2q487QYXDZMK5S+bi2Jqyye9sHt9hRhIEIgd7u/vwyoFWuDyBlC9yrcwyEQNHIS2C5FaYpKaCLcBUsjQSiWhfZAmiSDTJa4oK4PL4EE0oG5nJxSFS/0tKUFBcDHBLwiQN3ky+rICg18ssWkyfQ9HeCW3ekeaHCKvDjsLyCmZNiLcJD9ydyRDzZ5s8BCi90eNhaorRUDir+1BmGMnln72oEavqK2E1TuL6n1XPcvPgGUkQDrj68dT2AxgMhZN8S7QI0hd9SUUFK68cN0mNTwRp7AEVRRHevj70dXfFJDqSs3QpMHJlbSUuWDYfz+xpYmmXo/gWkm5EaZGUzEMLeWFZGQpKSnNzZvFe5SwCZDlwtbVqVoM0LW7HIgsbyX5TtdHsImZy9tF5x2YAAhRr4O7q0lLGE9zCcXdtsts2+YFNBgM+uuoYNJRqAnjgQkljzogZRRCo6NIhlxvP7TuMXl8wyYdK5ntJkuAsLoO9uDA7k1SWLxX5c70DZDno0apCJjUVDouRkYOTGqthNRrR5w/ihb0t2Ofqh5xF8KJkkOAsLWdxFLxxBDIhQIGxAZ8PAy4XKOp7tIJgcUsBkVyyVNmLikB/5xaETAjz308mAkQIiByQRZbWWNZSZOrHvr8KoyTilHl1WFVXCSoFnZVrYjIfLkevPSMIQrwi49a2Lrx4oFWryJgSYkXSyaRxYC1w6qrION7xUqIyizfweQZAWQvJoV4qCq1mnL6wHksqS2E2GFgvyarR6wuwuhDkGmHzXpcumMrSHgvLy2ErIJIwa8tqjHe4Zs15RA78g4MYTFxcdTw9xSGQlaqgqFivUJ2Oq/JDOALZIUCZCjR3fQMDWQcjpn6gkdFheU0l1i2oQ4nNonOtza6/M+XovCcIZBmIRBXs6OzBywdaMBgIx0p5xgmmCoPRwNIDrQUFjDFOlEshdRMnVkvkgBZi5s9lYYfDFoRShxVnLqrHgvISGNgXWTwsUftb96AP/9p5CK3uQaYQpq9RdoPE1B/Jb8zLROtDbTYdRTEG/sGBrIRk4vjQHCfLG2mEWAscswk2/qzTiECitYqybMhd6/NQevjEdIpUdJdWleHUebUoc1hBcV28jUQgrwkCbcKyouLtlk68fIgsB8lSm/R7StsqpaJHVmuKOenoDabDohuAosjo7+xiwV+p3/90p8bSQrx36TyU2s2xyRifkAllRFSgzxfAY9v244jby44bLjw9+gccHWMyGVBUUQ2zzcYtCfxNH0ZABZOhJeLKrLFjSHungy0+/yjrp7iyWqtsyhtHYAoQoLknR8Lo7+5mmWDjMZA6nIWQ5SgCPs+QIJ0WeyZAFAU0lhTgvGXzUGpL3R+m4AHz4BZ5SxA0cqBgT1cfU0gMRRWmSphYTpkisEurq2GyWlOsTBSqPXHmeMol7+vqgN/jHeHTonIPDcVEDuYypjrS50WUeNhaQM9FMQmPbd2LzkE/4skNmUqT0nkkEU0VKOm/vHEEaE54+/ox0NsNgRRDx/mVxEgFRAiSgLIaIqGxAC8OMUdgkhCgzydZltHT3opQIJR1rABlKpDblQK5ac3t7TjC0nm1NmwtoF2godiJS1ctgs1oZKSBt2EE8pYg+MMRVo3xpQNtCEa0mIMhkz8VXTKbmV6AVq756K0Fo00aiginr7OAlxhq8uSiyba0uhRr59Wh3K6PodIzKIqKg65+PL+vGd3e5GDLsSevCpPVxuo2mK1WVuxpdOEl/hrMZARYoGy/G1QSl+ZB5qYv6oXmFc0vIyehmSHlR2SFwNAqrahsM3f39rI03Gy3bFGS4Cgq0tLYKc5LEBAJh+Hp69XUFpnmx/BVKQastsiBMxc1oKGkEAZOEobGLe8IAn3LhCIy3jrcibea2xGIjKzgZTSbUFReETO3ZzVHszqYomr7u8mt4EsKnGGmMUXBSY01zMdVZDVndV06OCprQk//3L4fHpbrq1PZThBgMluY5UTiOb5Z4z4TTqCARCY9OzAQK4M78qlG0gF9BIEW27ilymg2H2XA2ExAmz/DeBEgI+6IJC8A/gEKpu1FlDJtsmyUbUP6HbYCxwi1WSLNrPJjXy/T+kjYBVlHqpx2nL2oAY1lWpZbtsQky67mxeF5RxBC0Sjebu3C64fa4WfZCol+VS3moLiyin1Bx1liJuEhPSOVunwSOaBcXL/Py3xjzGHBAhNFkMDh8fWVOGNRAyxHUUqUrrmrowfP7GqCL6xpOsRLO43lIKHfma0WlFRQ2WojD1zUM8B5eky6eTnQ4xoKlE0XuTI0V2NfUYnXGP57susrGR4VFpsdxUPFwybOXZenw8C7fdQIkFCXAp/bjcH+XijkMs4qXobWfhMLRrc4HKPGalNmmaevH97+vrTkttRuwdmLG7GgopjFgM12kpA3BIHFHKgqXj7QhtcOtcV884mLGPngzSipqoPBNLnqWMRE+7s6EPCShLM2hWJxLzCKAlPoOmNBPay0OR9lo2fe3t7NSALpPMSzIjJNXFqybQ4HiisqmJltIkjSUT4KP32SEdDmZScCXoqFyZwFk0wM4im58fmsqSuO3hTYCgpRVFnF/baTPK4z+fJD65IqYKDXxb7wtcU0u0YuZSq4x1yrmaIZVRG+gX4QkSbCEG/sfVBJp8aEC46djwXlxZqy6CymCXlBEGgShaIytrR2YeO+lrRmUwpEpM3QZDKnmK30mU71Tkc1KsPd42IVGVMbpS4urizGOYsb4Yy7FY7y9pq7QsXWtm5s3N+CQDgbs5vK8tcdJaUsVW0Wz3O9w5u3x5Hwkdvlgp9l0egfaloALQYD5pYVorVvkLmz9MetqHAUFsNZVppUJj1vQeQdn3oEVECORjBA2jEDbgqF1bZ3vQG1sXgzshxoGVw6m6pq7ob+fk2RMaHRfmOUJFyyYgHmlRXBbJRmLUnIeYLAIrFDEWxu6cCbzR3sKzo1CtVqs6GgtAxmCpzK9Gmtc/6kO4x8YqTiFdc5SDxGEkWsqqtgMQeFVqoONrEdoaDMzYc78XpTG8KyXoatsRNSwqMKkLz4zlEMfg6fGgmGYpVCfVmkgmmVQyuddqybV4eG0kK829aF15va4Q1Hdc9eqgBJJLSgpJhXGM3hOZKLXaPVKUpB3n19zOqVneVAs3BR2u3/Z+89oGS7ruvAXTnnzjn8nJAzkZhJkBRBmbSoYMuyZFsy7bVmbEse2TPWjDUjyx5JlmaWrDXLlmaNEi2KOQEgAYIEQIIAiPBz6v8751TVlbrSm7XPq9ddVV3V9aq7qn73R9+1SAD/v3rvvvNuOPecffamGq/ZVjvOS8jDhJmReAemq4tjah6bFQ8OduOOnlbYLSS1q++avhe/SWmf9oyDUBgC1z4TQ0XJVBYv35jCWxOzEkUobAwHmR02BNs6YbFrA2S73OnOPonqzBqwMjcnXm5pBIziUA8PduPR4R44bUxv1H8g0Sas1uAC/oNrkyDRh77G4ncu4j74WztADYiDdntYgOMyl85iYXoSqeR61ZcqnmM5hFxOfOj4IAZDPkkTcH69MTaDl0emkMllpWRYkOVVomAsKaMDSlrmWiV3q3b64ILbxgKFBHUsu02tJ7E8NyeVCrU5BzSJIpUKZPksFBSr1VgkEUvF41icmZLItBbB0ITLnFYLHh7qwX39HbLmvtuchD3jIJTEeKRmO53N4JUbM3j1xiS4CW9uvFyxFIkYBDu7YbLsPtdfaWAJ0haKAFtWlxYLiynlJ1TEvbu3UxgSbQJI1Ltx1zqU1UlBMzx3+SbeGJ+teU75qGAZDNZcU7yTnh78pvEWSCeTWJqeRDqdrembcva0ux340Ilh9AU8RRiCeDotlN8cX6VI7mrFwsH2dji9Xv3h4cab6OAJe8gCmw6CQYiPlmdnhQhJdzpBuDwU2ajd/qCsZbvnLSCzLrCeSGB5ZmZL5YTqG+fw3iMDuG+gS7QcGrnC76HPJV3Zkw4CN2RWKBCQ+Mb4dBH5kXqWB+xu1vu3N9Q5kC05x1zVMiKLy1vIlegcnOpqwxOH++CxW5sycDhgiUN4/soY3pmaF7BmtQGr6ZmwPpgS0fS8GRo+aPvLAhsHeWJy4nGsLizKKawWwRneo8PrxEdODKPHv8mKWHgPprO+e3lMeEYKVMirsolwTNFJIKX5QTuwQKkFJDGaU4QzhpgDOgdqoosLrT7yOmJvmVJw+QMiILbrVhAdU+fUPFLr5F7YXFXpQNApeXCgCw8Ndku64d3S9pSDoGbWFcTW03h1bAY/ujFZVCirfUu70yECRRZbYxkDGWZKRMKyEGtoV+0UxRKYoRYfPnh8EEGSIG0gZ6tt1/UZWuHEOl64OobLs4vI6MoaqNYzWUzwhahLwVKgOkyw+rzOwV30WiBH5yCK1cUlpAgorDLcNtc/nryM6PS58ZETA2j3qpt4pZ+nszl87ew1EQ/LEvOiruLbRsgE3GUlmrwVdgLGqnVO7zsfXHdbWIAERdRTiCwtVpQar/yiCgwmMwItrfkoVX1NItENmVsxwfMUpexYvm6AOCT393fi/v4ueBzNORDW9y1rv9stdBC2LjbMj0cSafxodApUZkzJzle4hCmwu9zwtYRkIeKJpVE5T95X1O/o6WrSonn7skfHO0J48mg/Ak571RN87Z9F3y8WonFxEq7MruTXYg28uP2uoSlbOn2+GuVS9fXr4KrGWICLGElkwgRVpUieVfaMtjFnCmcYo12H2wJ47FAv2nWILjHqNLcWwwtXxjCyuKISdZWpSy/nMhAPJERlpRTnjTHLwV33gQVy2ZxwD8QiYWRLsGR6u89UcqizS8rZtabK4dX3UJZKJhFZXBRp9KLonKLAZjHjzp42mUdqdcN2brbeN9u7190SB6FcTX5OyclJ+KVrE3h9fBrpEqQ+f8NTSZAMgebGh3hSiaTwd6vOweYyyH4OBgN4+s7DcFNPnEOkvuNT92ihTcKJFP7itfNYiieh4hb1dYYDn5PNTgVIyTWVZzXT3ZmDCxtqAXEO1iJYnpkVp65cHYv25Uv/jgQ0fUEvPn76EII1iNJwrC/F1vHVs1cwE2b55GbEibonxMOUT28osNgdaO/ra6hNDm6+PyygadUkorFtyY8Kjzdc25hBKNTW4d+bTFy3umsradyBmVj6uDg1hVQynh/31PohmZOKWTjRHsJP3XkURjoot3Gk7JY4COr30qoN1MVO6JNHZ/HSyARYflIkLMNabadLJI2Nu2Am1DtOiKpdmpoW/m5NUVE2UQPQ5ffgw8cH0elziQCOzv1Y76Nrvo7WiyRT+OJbVzAdjtYEXKQMtsY6KS7QbTzQazbsHvoBF0tWzzA/ylytJhOuZ/BxkT3cGsBHTw7DZdtJWFTB2PIavnr2KsKslNgoMdreEWWfGUGgQ09204P27rBAKZCVpeERMnuubdWq0WuR0iiV1WaFL0+KpPceO7mOh0Oy5SbjpNIvvgOrfAhOf++RPvWgeJuunbfQQVA/Ozc48hy8MjKFn4zNIFea5zQADrdHVLmasdAw90SWRP6z8KPz+5Or+wPHBtAb8NZ0Wt/J4NT/GzXINrESxncvjWIyHK0h5KaAfPrN0K3Q/z4HV2oW4GJL7EssHBagbK2hWZMBuLO3A+8Z7oHHzmiX/ghT4VcgUdeNxVV8++INrCYSQieup9FJcHo8Iu7UyEojPX05uKa5FqAbu55MiCbIeoIbrJYIUFMC5SJghZFaVguQyfDm0uqGGJ/KaW8EDDlZt7wtLXC4GiE/vunmbIrxqQRkhY3O98mOVjx6qBdB161LNTfyy94yB0HDDkRTabw2OoPXxqZADqTigaNhDlpkQDS60dsl/WZirXgwsE9emwUfOD6IY+1BAXvttUZK5pGFZbx4dQJzawyL6W82pwOB1rYdkY3of8rBlbVagKCp6OqKEMkwqqa3SZWP2Yw7SNw13A1XHSi/OQcuzy7h+SujWI2vVyOz3egqnWyXzyccCc1IDeq10cF1DbSAAqTEOViQ8kH9KAH1sOO0mCTP/+jhfvxkfBqv3ZzZEKzb7LUCs9UKf1ubRJcb09RDrMpSOg+mSLSmuRCSbuhoweOHNSdBX4q3Mf2t/11vqYOQSGfw8sgk3pqc3QpIVBQ4vIwctDYlcqBks4Je5WmNcsuSb6K9Fcjp66lTQxhqCYB0ynu1UUFyZGEVz1waRSSZ2FIeul2/rXYrgh1dAv6symW+Vw1wW/Qrn0JQFKwuziMWpjxtdtuKgNIQLCMHDw51C+LabSOrZ30aKxtI+f3itbGyKqqVnkIiJbfXJye+zfLa7Ssi6tPjg7s0wwLELzE8pa2XBHdLGWOGjuT2vAHaRquNBofVhEcGu3G6pw1uqxXJTAYXpxfx8sgEwsmtNPOsygq0d6pVM/lC3EaMLKYbIotLiEVW8ybdRPyYTUYcaQviqZOHYLUYq7xxM75I/Z5xSxwEDaT46s0ZvHB1VBisinI8dA5cLgS7usHFpVFNfaYCo8Eo8qL0EqX0r6Am12I24GMnD+FkZ4ss0o3rTX3ekra9OLuEv37jIuwWkzgJ1Wob+PdGg5puaOnqEXGng9Z8C2yk93M5EV0i4pvAwKr5zbyaKE8z6VwOTxzuxROH+upAIrPVBkw3vHh1FD+6Oa06kgo1PsoHjAtPe/z3QFu7RBIKBXKab+WDJzbKAlwdWca4Mj8HAhP1tg1AIgx4+swRnOoKyU9V/hY1DX1+ehHPXLiBVDqDrKzDm6uaIQ9cVJ0E/q4xwEEBhc/PI8p5qSn45tfOTE5Bq9uFf/jQ6WLtBhKJNHAP02vjnV7XdAeBnzWVyeLCzCK+c/lmPnKw2X0Rj3G54G9pg6kgNNoIr5BP5doWX4tieX5WFq5CB8BqNuCevk68Z6hHZUncDw5C3pTnphbwwrVRRJPpisDFLTY1KHC6PfCGWlWZ6IPWdAswnEm8ASNZ1UTtCJIls5zWCJZ6YKATDw31yB81ypnNZHP43rUx/GR8Fowq6HuSIs4+yc2cHm9DHf+mf7R3+wMVYmWyeazMVvGjauahE8AcPhVwj7WHxLEVB6AABE4Nnrcm5vDSyBTiUuK7EeSX21sdNvhaGl9aSxwQSyDpCBVOUFb1cF6c6GjFk0f60OJ2VHfsqxlmD/x90x2EVDYrC8v3r42L6FDpIsbIAUmQmF9qRktGo+LxZjLZor6QOeuu3ja8Z6gXFO3YAwULNZmDg/WtyTm8dH0CsQ0FSB1bhsEgMtEELjajYqSml7rNLxZVuwW1/roWzAFdBL/DhkeGenCquwVWKnfq3LZ3YlI+j2yLLEl+bXw6D4rVMbZ42jKZhMfE6fXdFgvoTux3u/1GySoIL85LpUKt0SFWifUHvXjscC96/B6pGivXOOYy2Syuzq1I1Hk1Qe0RNY6gRRMsdrtEqawU7WtgY7qB1Ptrqysl+xfJyEw43OoXdt0WDwn09M2LBnZ3V7duqoPAHPnFmUW8cHVcSvMKm8Zz4GttA/Ph+k4lu3h3AmnWk1KxkF7XPFL1fqwbH2oN4CMnhvIsiY0LW+3iDar+VMN4vM7qECWnG5PALIvLFxD0+UFrjgUEILuwgGR0TYBaehsXyIDThscO9QhYymzSyFv03mHn10XybJ5MaTH1UK1pEStWIwm4zNUocFm1nhz8fb0skEmtC5kco7DlWmnZo3YNT9xsg0E/Hj/Shy6fu6JzUHjfjJLDuckFoeGXstviTQRWh11KtxsLaifrYhZhYhIk0lecTuE7E5Pw5NF8JKF0PjcqHF6vj1pwn6Y4CNz8aZNr8yt49tINIfcpbTaqMlJ4yUxZTRXN2rDG6FUmg+WFBSRixTKjOeQQtNvw2ftPISQUyvu30eaUiP7ulZvI6JaIzhcbMZLg8yFIJ+E2rfFt/pctXhm0/yIr4sr8LNbjiRod4xyMRlW3/mhbSIRkmt1WYkkRD7u+uAJmG7abL4VvT3BZsL0LrKA5aPvTAjxYhRfmkYxvXzWluY7EOQnxUf6fZ7rb8OThHnjttpqiSalsDhemF/C9q+P56Kg6sjSmTzItEnDNKDSXLk2Lpt6su4zyEYy5tlIcSdAwXYyIfOquo/DYbMV8wIKt2B/fvCkOArkNFtcS+PLbVzEvpSJ56+Tp+yw2K0JdeQR9tcTrDu1a5MkqCqIrK1hdXJS7CStcnoDG47DhF+4/idBtsHAxtfDN89dxeW655lCXePi5LDyhNpFUbSRYdIefdN/9bBM8RRCVShNOYZjV2Vn55/bgKhXIqwEW+X1YvvjZe06inaRdt9AaM+EYvvTOFazEa6icoW6D3YbWnl4pGyYxWqEc8C18nYNHV7OAApFoXp5l9FUN9etu1DQwAKe72vDhE4N5dcQafr/xIAWvjc3ihcujzpuhLgAAIABJREFUSEv0SvsfneQcrHYXQh0d4iQ0siqLwYO15UVJN7AsWfaTfG+Iy2jxuPGZe47KfrKJVdzJ++q2cF0vbIqDQM2A5y7dFLKVUm0F5ouoJW9rVrgxr7GwMj+/oeOgnWwI8mI965nudpj3MfKUI4RO2cTyGr55fgRL0fgOXVYFRpMZ3mBQogl1UU+r6/Dd3zcj57sQyVQ5gZW+JZeXLr9bCFpIJqNlYm+lNcaWw/jOpVHMRDZrxav1h/POIcJrbQ0OCVfrycHf67ZADkjGolL1xRStXudAiyJ47Vbc3duBe/s64KCWwS6O0uuZLF6fmMaPRmbAdGrRtssIqMcNf0srjGYCrqunwHTboORC0jKvLS9jbXW1CLioOgsKhlsDsq90eJlG0VyInT6tub9ruIOwEk/imxdGMLq0uiUHLjWsre3iHOxmoOg1mbB7iQ75NNIcUPnByW9GcMz9A114ZKgLdqvGOqf3znvvukwuJ2DQFwkG1Sf3WPElCCxTJVb9+yY0tve+SHGP1mNxrCzMVxBd2tp7Wd7IT29Q0B/04Ykj/ej0efKO7K1PajL6Mb4cwbcu3sD8WlwWa31zWhFefYLLmgVM3utjY6/2Tyi/V1RwHtH8lfAFlfpvM5vxvqP9ONEZEsnkepyjCXo/O8V0A7k5MkX09xx/dBICbZ2FMiINMS+dBOIRyKWz4Yvk0ykEvPf6Pfjg8SG0efcXcLFhDgKXrASRziMTeHNsFpkCB05dznLy4Vw+7w5Pt7V/52w6g6XZaaQSXMAos6E2DvxTnS348MkhOPd9eR8DagpSGQVfP3sdl+aWyu82BbOz4vZSwAfBSEKgrU3KIAtL62pdJGr/arffL8Q5mJ9HJl1OkVF9X6YQCoVqtHHa63fjQyeHxDkoLvS69XbKKjlcmV2W8mUVhCzZ2C0dKxwz2jB0+rxSXmtqgtbKrbfU/usB8+10DKLLK2UrFbZ3URUEHHa8//iAnKYtBWRz9XBtGUl49eYkXh2dKXsY8gR8MrY2SboaY3+OdMqwE5NQClyEksNAyI+PnhrO0zLXwz1qzHsU3rVhDgIXi/NT5DoYFc9OazIgDJDIgcvva/wb5h0A5odW5+dEEU8ALQVZq5DLhs/cdQwtHmfNufqmvEAND1HzbQYsx5L4f189K+VoW8KA6nF0wzHTN0lZx25CqKMbdvcmsOzAQaj8cbQlYNMRhVQprC4sIJfJbBv0LHQQBJsAoMfvxk/dcRiBGhQZaxg6dbmUkStynDx/ZUzq1YntEYen2t0NBrj9AQRaSEimLhL1BpVV68LB35e3gCGXw+ryEqKrqxt59u1tpQnxqRH3dq8TT50aRrff3bD1levc81fG8fbUrEQRihMKiqQa3MFgwz+xOFIry5JyKITTaYfiHr8Xn7zjCPxOW8ESvBeShBW+vdKAWUhmxPGVML7y9jU5SWihRpUxyyihap5GqRdbpNpYp8+3BezE0BjpPxcXkSVt7caCpcBuseBTdxzBUMvtU5fNkkamFl66NlkBN6CyJnIRzjCPuGVCVRwsLGQXQKmwllVd9ev0QW+H2ygKEtGosHWqEuLbG29T0oa11UYMhXziHDjIcrmLvG2jTalGr7LCtPjjm9NYzzIUrW+g8NRFshsPU1nki9b5u0a/07v2/jkF2VwWkaVFcQ6EZVZvUwwgHQedgg8cpfqtu+HDlqRdXz17HVfmF4Uuf2OhVwwwmoziJLi83obsOYVm4T63tsxIAh0qTX5QdREUJYvegB8fOTmENo9TV2mnXpM34rq6RxC4QCysJfCN8yOYWIlsMYBDSHhUdbdmnT6JtF2enc0jblUz8nO5rGY8NtyLe/vbaxv8jfgSdbznajyJP/3RWVHJLJcH5gBu6eyEyWJVBVVEt0F/iRrLiDjZrA6XDprdOr7YPr0VF4l4hIqMq/m0gr4Nk1EEk8GI450hPDTYjTa3U2de/9YbKp5O4/WxWfz45hSSmWKG0u16RxY9b6gFbkYXa9mQbv0r3149UBSkk0lEVpZFpEhflDFvAqbHcgac7m7Bw0Mct8SYNcM8ClbiKbxwZRQXZ1mhVnwyJ/8GtX0cHk9DQYt8U2IS6FRRaK0wlEA7mg0Qnh0yLtJJ0OtAN8OCpc+ou4NAz+0Lb13B1YUllSoz32gYm92OYL70hH/cFAdBARYmx7GeIOJW64zq3VLtjpz1Tqt53yy8egYJuQ++cf46CI7Zuu0r4hh09PXBYDIhlUhIPjydUiMJpa2w9G4z7K2IqFOos1MVd2rK5Nfz5nvvGtovurwsC61WBiVjvwzGoKj3ClE6WaH6JgkSRZcIUFTlbvfee27OLTV1xflONk/KuL9yY1L0Vsq1cnZgxIThYHcgcFvNyz381Qo+n/qduC6QuIvlt7U1RU7vrLC5V8TCLGVOyTW5GzofrwXxFazGkvju5VEp71bn2uaEsVjNCPX0wWI2N7CugU+lkwRQuIpRQ2GYzPeD85gSVu1eN376rqPwOax71kmoq4NAoZhXRibw0shk0WYjn8dolFNrM8oZN/AFiiIsXwyRMTxGIg05yxiAdrcTn7jjEDq9eT3xRoxZnUO7npfFUhl86e0rGF2i0I86ULUdRd3sAV9LC7yB4EaojaHv5TkKrBCvoC+MyHuR/7ylo1vUNg+chDJfkc7B6grCzEdmtVBj+a9dPPxUzoO7etrxvmP9cNCB3dNeQaV3UhBbT0uJ84WZMmBZqLnqIrxF/txHsCJxSna3e0+nVOo5d/fCvbiZstKLxF2p5HrZyGqlg50cAs1GiRqQ9pv3KvZlm7PI8inzazEp8Z5ajRaJ1TGNZbFaVf4NSzm9mTr3USFPQv6AUKDKyqcw3dAf9OPpOw7D6yCZ0t7z/OvmIJBG+friKp65MCLa3RoCW8ytKEKt6vLzRNC8abAei2FpdlbCPZtNActtPnH6EA63B2FqZoca/Oq0NUvNvvjWlQL9heKHmixmtHR2g+RUmvgUf5eMxkRBUPLjWvln1VOuIlgEf2cnzEUKkHWeZA22WyNuzxMDFwYV2JWrGjGgxVhXQ+wBF9n7Brrw0EAnbFIO1sRJU1djqOOApc4vXBnD5bnFDdBi9ceoOJkgaXMbzK1fvS+37xWFM5VOP/UUGDkoXjP1vb+VzsFgD+7t76hbGaO+J2+9ihGr6wsr+PbFEYQT6WImQ/JvuFwItLcLc2+jWy6rAhd5WCiKIkI9sB5rD+CDxwfhc9j33Eyvm4MQTqzLSeHKvIbezA89A+DyeOFv1/L85UON9f5IVMVj6DwZKyZuIRst9cYfP9yXP1jv18W3/KR4eWRSSksZ0draDHC4XVJzXirERG9f6ngXF6TGWW/jluZ0uuFra57Alt6+3arrCISNra7mkcy1jXemu+7p7cQDg50i171/nYNCl1wRboRnLt7E2HJE5yKo6umSGyHU2SWsiwetcRZQmDOPRBBZXgTFl2puigKnzSKl4sfbQ2WiBzXfcdc/YBTunal5PH9ldEs1F89A7kBQIqkGk8pqqo+3Y2fd4v1VsCedhNL0uoKTnS148kg//M695STUxUHgh3jlxgReuTGF9Q1AkuogUJAlyA3JwtC1vvD1zj5Bwa9yOUktkNmKnqTmAvDfj7UH8dTJYcnp6lypdt2dZtyA1iY48evnroOsduVejnXAZEVkOVk56mSG35gzI794roqTUJC4kDAkgT8En5JU6d0YP9DCrnRMOfZia2tbWNW2Gwd0tBwWMx471IuTna1w2fY/WVfhGCGofHo1KlosU+FYxam3ZexIKsshEUhimNTQbGMX82bM173yDENOAUtTo5QYj4TzkYOdHZp4HiZL4vuPDkgEYS80ioi9OaESxiXTxQcfVjaQRt7t8zecSp4W5cGBXBKMLJYCIKijckd3G957tB9WE9NuO/sG9bb5rh0ELmwTK2v481fPC72vWp6lNskjtrfD7srn+evd+wr3S8UTwhOekXKyPCAsZ4DLZsbP3HcCXRruoEn9acZj6KSdm1rAM5dGQHaxUpId7XtQxGRbgRzmzSWSsFhRcrgSwM7p9SLY0akCdN6FRWo8hVE6XFDfBaA8ptg4J3JlJ72qe0/0/idOH8bxznzaa0v+thmjqN7P2KyH553poFOm92/fuozZiMq2WLHl01tGCr0ZDDJmCXA2CW3uQauXBcwGI+ZnZlR+mF3q4HDWd3hcePrOI2ih0N0t3uQ0RzKdzYr6IyOrxsLKGIIFTWa0dHTB2iztHdEBWsXq4kJeXEo7NNPpVSRF894j/Xvm8LorB4GbAEFIX3zrMsZWVAIirfHf3H6/6CwwhNOsxjG+MjsjJ7jCBYh53fcdHcCdPe15dH+zetSc55C18tlLN3F2ar5iyabN6ZLKA3rO2zXJnzMcxjreGrrPCekJBeETcafmffMautiQS0nMkskwcrCAmCy0tXn/jBawmuau3ra8Q6v+/nZ0sji2ri2sCoEasQmVmra4b/wTClweN3ytzBub3oXuZ/2HLpk8l+cXkIpGdwQE3VgbCiI6NrMJHzk5iFNdrXsiPaaNH5Z8M9VwfqaAI4EHGcUAlm23dKtKwo1vBonSMN0QZ4S75IHE8n3g+ADu7euE1axJt9+6lWBXDgLf7bXRGTx3+UaB8ylnJchm1NG1JdfdyA/A2AXz6Mvzs0UhHO5VR1qDYni/w97ILtySezM1wBPZV89ew3yUJ7NyG1QOoc4eODz6ojkE1kRJ9kGQXcHJomp412CAJxCQVMbt6iSUorgp17xKvEtcVSqtPp3VK3ifkMsueBgCZi1ly1JvyZBq6ENJaHNxZgEvXB1DdF1llGSUpRqCmQdSl88v6YbiVt3iDX2hfXVzVRZ5nUJhSwtIxuI7PukXx4s3jXCmq1VIvfZaIw7m2Ys3MLYSFsdAGzVc0xwuJwLtHRUqG+r/JqT9J95LY/YtfILTasKTRwZwR3erqnR6C1Nqu3AQVEKkL5+9irm1WNGpiSdUhrIJiGsAUWPFr0V98vmJcTDUu7nYKKKv8DFWLbQG9jxz1U6GIgf6WxNz+M6lG0hVABhZbBa09w1WCV0Vbn3cwBQsTk0jEYvW1q0NrINfDenVdqCu7Vm38mqSyVCuWRQZC2TMdfVJQdBlw+OH+nC0PQSzSTst6PrxPr+IDH3AG+Oz+ME1iuywymObVyp0HuiABgPw+lVw2UGr3QKs7iLOiGqitTau7Tz88R6UMy7Hs+KyWfHLD98BKjfupcYU18jCipQ/FjL8Sh8NEAZPT6hF2GcbLz1ukIqxlbkZcdJKHd6QyyFYDmpXqHw2t6bt2EGgQMaL18aELU0OmPlJTIfAK2HmFlX4u8FtwwvM5RBenMfaaqToNJJTsnh0uA/vOdQDK9mRbrOmeZd/8+ZlXBFhpnI25zdpEf4DvQ4bPye91/nJcakEKcSW6DGh0WyGLxiEy+eTs3KNUXc9j7jl1xDrEl6ax3qiVjIZ8tM78MFjg+gJUJGR43JjJL8Lwufq2ZNrCB3b716+WfM7U13UHQwcSJDXMAukUikSRmRpWbeKqHZ7jk6z2SJru8PlEUXcZAWZ8qyi4LHhHgHc7bXGEP6NxVV85dw1JFPFlOes7Aq0tuWZFpvRcwPSqRRW5mfAtUSlYtYAuAq6fG585OSwcPXcKjjHjh0EAhO/du4qlmKqJnghMLF9YABGWfSa12jgpdkZ5LLpTQ4GJYcOrwv/6D13FYWTVGM33nlp9NtrUMDYegb/94tvCDixHDCIXn9bTz8sFrNKjlTh1QsDtbwsm8pgevTGjqXUGTxo6x6A1WnT7Zg02mb1uj+rFZamZ5BaT9YYAlQQcjnx6buOIuRxCKNa4SK8/0elfgtzMeSY+9GNKTx/daxoHSm9S2mYlekrURf1evU/8F1+ZSy8iuVZYpT0V4JodmfVU6CtAy6hKQai4RUhVyvVZxA+D0WByWzA5x6/F26rZccpjEZ8Lm2N+/HNWTx/5SbozGw29tuE1q4emJvEvcH1minKhYlxpClXXQBOJuj/aFsAn7n7uKzZt6LkeUcOAstiXh6ZkImdKUBZcNL62/KCGE18HYI+iLqPR5gv31xiHRYTPnb6MI62BQUhun+cAnXhTGdZgkRiJ6O6kWzZ2xWwfOyZCzfw2ths2VCU5NfcbrR0dtUW0VEMQpwUDVOkRd+2VbqI879NJgMC7V2wCx+7vvs0YmGo2z0ViHaF0NAmkzrwBptPZkCNEQOWMvYHfbdlumt7O5efgwSQff/6hABsSc9crTGHzmlOUJnGrX9bjK1qL17D3xcmC8lrQudAVRgshh3rWRVJWMVooM3Nk6w6h5laW5yeAh3lcusqv+Mn7zgsdPbGPTXvVZbSyHoKz1+mZsPSluINIVHq6JCS7WY1pmxWF+aQlqhGgcuiKLh/oEvo1smR0uw9bEcOQiyVxl+8dl7ITwo7TM6DZrFTFRoxEV3DytwcstlNURgC94ikZYiG9eX7qaWyObw+E8GPxpYRjafREXTiwW4/jrY4Yeegze+zghGIJvBfX3kHpLmulF4ItHfC7fPWVJGQWU9hdny0YvRAz8Ki2ZxUzP7WNnES9ntLkGlucREZWRi3a5tARMnA5XI41BYQQGKHz31bMXju9ptK5VE8KShzLtj6NxQFZotVQItce4oW1qYvpbu1wu5+X2k+ks8kvLQIrpEa3bfuJykKbC6nOGHWghO1wNBzCiKLi1LXX65xbTrR0SLESbdiY6s2NznmZiMxIfejqOAmW476S3eAisPtTYt8CgdNOCxS8MU+nJpyoLDTff2dTU+T78hBoIzrcyV5Q4PRBH9Li+Scmxm958JLxkTm1rQQDCeLz27Fx04PYzBEoNz+ObkSSPOli3P4o1du4MZyFKwmsFosGPA7cKrLi0f6QzjV4cGA1wGHxYCfjM/imfMjMJqNG0DRzcWCdLV2KW0kI53uRv7wlSUZrHokXnUA0GGxW2WhsYsC5P4q4dNOXeIcLC2CCGStVVqYuUBqiw6jV4NBP953bGBfSLzqHid1vpBOAgFkN5dWC7b36q6o2WoRSmYSKr2rm5o7UPEsikFO9xyvpE+upUmawGCAw+WWsmWRhi9tjKTF4lienynLvMox3+J04hNnDqHT7y4bT5Z5pa3N1YtYankFXdfyPa/OLeHbF26KPEBRMwChjs4m4hHUQ8TaEnUbNrFk2ugPOG1Cx3yoyUD7mh2EeCqFP3np7S1SwmYra0m7RLinWY2eFcO8i1NTyGY2Q10sa7y/vwuPH+6FZR+hw7mlvD0XxWf//A1EUnyfwnCgQTCfLIXzu2w40xXAY4N+pOMrCEfjSCvZDZ57zR3i3COYyxMMVi0hK9zxyPhFENK6AGfKrg0czRvOQ/UlXL2Hyq3fKc7CfmuqKttWjvpq784xerqrFR88RnY5oqMPkPeb377Yetww6CR86Z1rIrLD8V6JlKv4lzlZd1g5ZZUy5v1zIGjUPCgnca/3WUzhOH0+ATZTu6VSy6QzWJmdxXqiFIWv/oKMgO8/NoB7+jqKbsF1jqlgSfsWopfzKdTGlvUVjxzitn54YwrfuzIulUSFay7HlCjW2hxNlbVfnp0VRlu1bfa3L+DBx04eEuzSxp9XW4D0fvQK1+lyEApJS85OLeBv3r4EB+Uy87WkULJCYOILhZoYkmF+2yS54NWlJVkSpLKVaoV2u3iuzPM2drDt0voFP+d3TmRy+Htfv4hXLkyq1J8bJ4LNC2XBhImC48hlFJgcFhwKGXE6YIHfYqRopiysFKEyWkwIMf/vcOiqItBspQE+RbipTAs4bDje2YJzM/NYS1QLtRfeQIHN4USoq0u+nTb862fF+t5J1i8oSMWTWJyZ2ijrKhxTaj68/IbEb3G0LYQPHR8U2dvNPHmDZ3V9zdDUu/FQybLpL711GctxYjy2rX9UgY151kWmGZhuaOYhpanG2eZhmpVov/VkHMszeeG1wlnGzbiMObVjiKyhBqh6Le2dVXlMRF8gn2aQiFlJqRLnzomOED5yYliow5kETWVyQscfWU/jndk1fPHSLMZXkzjZ6sYv3dOLoyGnONLNguSJs5ID/vL1C7i5vJqPdGzkcOHy+uAjhXwTid8YoZQDWqIYAJ1Vcri/rwvvO9YngoPN2Nt0OQjauEymM/jG+eu4OLsIQ4GugslslBr7UgGgZkye2bGbYL5cG/n84CTq+NCJIRV7sE/WYn7s742t4J988Syi8j7F6NrKpyI1Xm+yACGHCe0uE9ocBvgdZnT43ejoaBfyDxX2qKNJemFZmL7KMa/S+WAu/cPHBzG5uiZkNyux1LZlOIWAKb6n3eWEv6UNVptNl+Oio9cNuYTgVykLI+20TvNpHbGaDDjd3YaHBrpUAZZ9lOZqiDFruCnTbCxFe+HKKOaiCd1VNLQxNUG8oZCcfG8F6ruG16z/pTkFidgaIivLqlTzFm9g+8WQoE9yAbgDTBPrA+ixBHpJnOdyjAiQKoanTh2C3+XCjdU4Ls6t4dzcGn4ytYqbSzFkNZS7Avg8dvzmk4fw2dOdsDRxQ+aHWIon8dV3rmIqHN0Yb7QWqxqoMeP0lFbLNHZjoV1JvlaMdTLAYTHiA8cHZY9T15TG9qMmB4EsfV948xKWY8V1354A2c12B+go5w3Jn22F7svE4p+vJxKYnxgtEoFK5zL4u3cfx/GOkJD0NNZ89ZvjBCb+D89cwpffnsyHs3YWJmXukMIfTosBnSEnjve34libBz6HBZlMTvQy1IG1yZOvVn2yBjeLTJrphRmkEuVJVMhy++ihPjzQ3yURm2uLK/jmuRuilqaRi+jZDAXQ2tqmYiPyqHTVmoXuRP3sW+udBIS1vCTob4K7amms8iHqmGkuN9Mpt5AJrZZ+76VryZ9/ZXYZ37g4gkwFbZFy/ZUTsMcjADNJ5+xsGu0lU+jsCzn+l7G2vCKiQDW/OB13jweh9o68b1A5FVY4Q0mdvTAxhlSShwTV2FxzzRLpNGAxmcO60YlIHBhdiWM+kUZ8PS26HFubAUdbPfj9j5/Cne2eptb+s9zxwvSilD6yqmbTfioQNtjdDauleQJ/3PuoCMuDGteizabIgeNn7z0Bkik1uul2EPi5L80sCYgoWaD0x1B4a3cPrHbmaerVXYOwIZKpi6WT5cpN6CDQeCsLCyJ0IwNTAawWE/7ZY3fDabPWrzv1eq0K9+FkeWZkCb/5rQuYj9L5qvG4Wu6+kuOD8Hn7PDYMdvpwtN2Lbp8dbqs5H5bNu095T5QbfjyyhuW5PPlVmfuSa/1n7jmO3qBX7EvikQvTC1LHTtpcvZs8FxOnxyPkTSRV2kuNyG+ewkjbTeBQLU6m3WzCA4PdeGBgb3Cp7yW71toXOlrnpxfxLAXI5KS5/QKz8Z3Ituj3whdqk3xbaaq71n7s9esF3LayKpE//jtbJexG5XchoNkmHAACeNaDlRFgoQHRCPkVZgTYmM0ZEE4rmI1nMRrJYHEth3g6p8rPS6m59K7iGmcymvAL9/Tif3rsENzW5qoaUleIDsLZqUV1BZaUjCQh4PL4EGhvq5p2qedY4Tq0ukAAfqQoAsmD3KG2EH7qzGG4rI3F/Ol2EPji3782jpdHpoq8P+q0t/b0qpzRO7bORgZN7kDqSQrfEARjtlngD7bA6nSW3N2A8Nw0IqurEg7TNqtevxf/4OHT+6ZygZ7ifCyF33z2Mr59ZS7/juUtWQaSoM/izKUrgNlqht/rwHCnF3f2+NDjtgkwh0+jVCsvohohN0Yh7BBQ9OZkpiN7uC2AT999rCgEuJ7J4I2xWeHGYLllOSXJ8h1VpOqFeeO9BN4jriW6oUGh1iPwPLXd+Kat6Bw8PNSN+/q7JIpz0HZvAc6PNyfm8d0rN5HmwYTj0bg1373lSQYFHn9Q0g23qyYI31nlgFlAPMxSvd01znmqsZI3RQ+ZmhrhVaO5N0Zu4PpKEtdXM1iMZpFMqaj8sn7Gdh63YsBQqxv/6akTeKCLFWi7e6daf70ST+CLb1/FTHhNZv3G4w0Gia44hJhrt5bW3yu13HxMxRsUuFfkl6H44N097TA3cK3R7SCkMlnBH1yYWcrLVDIknRMtbZJKaN6W/lcvfyVzLkvT01KdoA0up8sjKYxSjMOC0ABTbERdjLk5nepswWfuPrZxcz0leLvt805/z49OvfLnbi7hXz9zCYuRZN7z33pHA2P7OQJqtJOU/kG6udGLW0xMKXi/jjYP7uv3oy/ghNtmhhk5RGanC/JepTM5h8/ecwLDJJ4q6CI3UNLmEo9wdnJeCJ70Nv6Wip8UeLrVCzlBmUwrRFdWihyW7YCI6nsqAsK6u7cDDw12CYDooO3CAgXDjuMjk1Xwg2vjeH18FhR60mjdqz2BywLHFgWebvXYqtbXWv+eY5Jy9pIGI+Jd/5Tb5lF5UrWunoqYJTmIUewpnUUyrUi6+dJcFG+PLSARTavRNlkc1GNHtahPmZUOjFL+6sOD+OcPDsDOaEYTG8fbxZklfOP8tXzUig9XKZDJBdHS1b1tZUe9u0qnjRwWSzMzUApSDYwQ9Qa8+OjJYbS6Sw/P9euFLgeBn5nlRwRxTK5Gi2iLSYxEWee6NEURRTwhPdpIY+Rr+buKSyi5UVKYiQJNWlNzv70bHOBNdj5rNgEHXTKTw7/97hV84R2yUpbPdRttNjh6WqCkMkivxZGNJZGTWvxdrgoKRPrZ67Kh1W9Hh9MMezaGdocBXgkzkqlxk12i2+/GL9x/qqKwUCKdwSsjk8LNQEyFOrWq9ZJxSiPcVIAMBCqwl+1koantc3AcrXGxLZEJr3aXnJKD32HDI8M9ON3VJovbQauvBfj1o8kUXr05jTcn55DOUAGyeHZXGmesaKD8uMN3e1Eyp+JxYUZMJuJ5AK2+OVLtKqPJgFbSstvUUmQ5YOV5EVK5LBaiGUysRDG7ksDMShwLkSQSUsmUv7Do01d7WoVxohgtT2QXAAAgAElEQVRwpMOLv/rMnej02JueKiYY/4UrY3hjfEYOCoVvwb3Oy7RoE0GUtP/Kwhyiq+EiACXLSB8e7MZDQ90Ni1jqchD4GcdXIvjq2atYiWvoWBXs1tLdA7vTudutSh0piiKhXTLVFVKCkgCFpBWFNbksBZkbHxUiIa1lc1l86q4jONPVXt8VqmF3y+H6QgIf/8vXESbws1xlowI4+trh7GtXowcsb1zPYH05gtRCGFmWgjH8xDATZ7PeOVl6ndEkwCLyLBDg2O434Y6gGUGbUVKHhD194OgAHhzsKnpEKbg0kUrj+9cm8OrYNEx68ph52/KER7Arw8KSN24S6p+TL5NKY3lhHusUn9FbrqAYQMgn6byfvuMo+kPeApYzvR+hYQPrNruxWoOzlkjhu5dHcV7YFtU0Q2FWu9xL8++5mLOevZRtcb8aieNUaHkFTFe5Fc5N9WSv5hrpxCZFQXMTVLiR5GVU2B+QiC3/jKkyRgQvzK/hrdFlLCxGEeVBJZOV6GdZ939L2LbcVypOK5e+BY8lv/TQIP63Jw43Fawo2xCAWDKFv3j9AubW4hvpatqToGoCYFmJJQcgAXfv8qCmYyCmk0nBhpHfIl/QL9+HSsU/c88xEXZqxJqp20G4trCMr529jlgqs+HRsSympbu7PNOWjpcuvUSIUmbn8hrZm38r3NjtHUUpBqYWFqcn1BNqfqGgLObnHrsbPkcZ5q8d9KcxP1E3D/4/w6U/+8W38crVeZX3YMssMQiAz3tmGGaHBYqSz4TnHYlcJodMOI7k/AoykRhypP8tGqv6w3wboCYtRijRBSDgMeNYwIyTISd++cFj6PS4ZMKU2781ZrR4KiM85+em54oW8Wr2NJmo5dGez4E2J/4jkqszs0gmapBrzi+AQZdd2Dp7A1SsrD2YWs0eB39fbAG6CZHkOv7mjcuYicSKgVtV7M+TcUtXj/Bw6C753WsfQIuwzs8XsXnq6yYPdBBlW5MBeOHqeJH9uCKpyUuDcJR4uroxm1BwZXoVZydXEV2l8yyhhKoxwcr9yf+WwQYS2BkNaiRUJo/GAinbrjyDffnGLz2AOzsIiNae25x1gb3gnveVt68hmc5ulGPz6W6fDz7BTTWjL2J0SeczYrS2tFS0xJMbgTiEj54aFhxgvXuk20G4PLeEr5+7LsZSG70pC1q6e3dNTKJ9ei7WTBsUUtnySQTNMJWxWc3AEjSW9CwJyYXaGwWtLgf+8aN35hWx6m0qfdNQ71XM433lygI+94W3YOCM5WffOHjmPXsymvW2w9nfVpEJUeZVTkEulUEmEkdqNSr/zDL1IimLXXi3shESSQy47Wbc2xfCh4dacFe3D/1+h0QaWEqqlfGphU2q87Oa59a/PEeBmOpWUaGAasqDug1Or7rpiovTiDJBhZGDdQFlkpCklsb3CbnteP/RftFrN2vhxoPAQS1m3NG1HCVryRS+fv46bi6GdY0t9UE5YcTj6U9lW9xvzSBidKzcIni72B3dbuCpkQIemh4b7seJzhAWonF87ew1zK8lCpiOFSQyCpaTCm5Gs5hdNyESTSNF8SAtz7Ajk22uw8Q9mV0OWHwuWPxuKFkFa5duqpHRkrVPVnQF+Dt39uL/+MARtfJqR8/f+Y9YjvndK2M4PzMvooRavIX7EA/GUrnXlKY6T7lsBktzs0JxXdjIjUDFx96gumbWs+l3EGbpIFyTnLkWUrHabQh1de/aQeALcWOJR8JYmp3d8n6lDgLlMdWFPaGWMOV/cUd3mzAo7vXG/s5G1/G5b1zAD0cW80qTaq81R1qcauoXnBqG0V5cylLI86+9qwyMfLgrl0whvRpFemUNmUQKuVQaimA6dOzU2xiPjgif09PiwfuHW/BAj1+chR6vfYM2S5vn/OfCWgzfujiCyZVo1YW88FxCJ4ERI3LB133E5x0O8jyEF+awTjBsDakQHqBa3E6890if8KLXwv2w18flfukfnYSp1TUR2pkKx8RB3v40l4/asdbf6RDFWWqUNGRw1duI5AjJ5QQbw2oF4eSo8eTa6rbj0UO9ONZObhiD4INevDaOV0dnsJZREFvPYT6Rw+haFnPRLLIpVh/ktxo1RLuztzIYYbSYYbRZVMcg4BbngH8m3Ces9b8xg+TsUoVnGNDtc+A/f+IUHu4NNGIp2Pa9yD/AKMIzl24iklBD+2wa2RvT682JImx2k3owlNnWylnVv8lJWp3RTEYR6tl0OggKrs6rKYZ4OpsP6yuwWK3iSdUkBFSh95zkCxMTSCUTQl2rhWw5NO1OF4KU3zSbJCQlyN21iCwM2oZkNRvx4RNDONPduucZ1NjrL16cw7979jJWZOBtbczJOwc64egK1b6ty6Q2QElnkFtfRyaekqgC0xAZPi/HMgbN19zBsVd+YkTQacG9vQH85pOHcTjo3JzA+VvyPak2+Z3LoxhZoACP5gRVL1NjSaY3SAYzOgl19IslTBsXERuplNGx7GhVDAQkDrX48cShfvQGPfWchwf3qtEC5N8YXQoL/8ZcpCQ9tM2QlnJUMnm2dYhc9F5vjKqyqia6ulLDPq2lMRX0BX14ZKhLaOetRrWkeTmZxtcuTeEr58cxtZZBJKEgltYOfmoqonafoCB9YDbD7HHA4nXB7HbA5LTBSKli0qsX3VhBJppE9MoEsrIObnVEqKXz9+7uxb9+/BBc1uYDgAm8psroWxMsQS9ch3KiK0Mq5hKG6YYOKZa1Ls/MIBHbTLFxnSVrMKv3+pjurONyqdNBgFCfEqS4tp7eWFR50iOxhoVSoLvoFL2wZDSKuYkJMFdYaHF6ayLy09mJbColzgGBGjSC0Hvy1Iwcun0efPKOowi59nb4kO+znEjj1799Ec9cmau4+Vu8TriP9In3vesvTjARv08ui3Q4gcTUItKs8+XJa8Pj3MkpQdV++NCRNvzhx0/BbSmZwDwlAFiMJfGVd65hOhxRUxJ5rzeffKw4oYhAD7S1wVYq5atQjcKAXI1jjtEmor6FGlZHKWYxyCuHoZAfHzkxhIDLsW94Nhq6Wt3im5NgjGmGL79zFclMuoh/Y7u0FP+OuKZQd3cB30fzAGfVzKZFpbgZEIyYjEQFH7BdU6FDBDFTDj4H5qZ7gj586vRheO3kOzEimkzjj9+axpfPTWJhOYr1HMHHm7E7XY5BEQBRTUFKNCCnwGizwtYWhL09IBoxBSeCil1XMhnEx+aQnFtVDy5bmgFdXjv+z4+dwuMDxeXV1ey4q7/fcDIVrMbX8ac/Ooco2WI3TjkKrDaH4Fq4Z3EdbQZY0aAYkIhFMT85DiMdvo30q4ITXa34xKlDda1o0OUgqOHiOL569poKDsobiZ0LdXbB5fXUfsot+Hoi2TxHcGIlWVJ1I2PFQqF3lCdiFoOwvPG+geZzeNc6CMnV8NdnZ/Db372KaCpVXpDJZIKjpxX2rpCAeXbU8ixgG7/N5xG1kBhLJdeX1yQNkU2kJAWxGbaq4ixofy1gSSMO+R34o0/dgTvay5+qZSFfCuO7l29iYS1Rw1hRJF8caOtQ9ejzDsdO7MGxSvQ3xxm5NmoJDfLa4RafEJO0egoiJTvpyMFv6moBboTnJsm2OIpUluw8+uiVhcPFH1CZPHc6x+r6JoU3M8hhiCx63Az0nL4KmRPpDAy3+EUkzGQy4+WJFXzp/AxeuLmE6BpTatzQSnFP+l5GnIj8DmAwmiQyYHI7YQt6BFfA/5aNsgYCGq5Ba1cnAJavlll6CEL/9B3d+K33H0GwJN2qr9e7v+ql65P4/nUSFmlIBNWhZHWMEEvl0Vc7OWbV3DsFWJyakEiotgfyqwSdDjx952F0+jy7Oa8XdUeng6BAhJrOjYCgM60x5Or1BwRAuBvDEEuwPEOCnkyFhbtyzJDj/I7udjxxpE8U8/Z6Gw8n8C+/fREvjyzm531h9p29N4r37TnaJ+E51a6l1+h4y1IHgT8p2Ni1u+YyGWQTaWTXYkiF48hE48ixfErTla8WrzIY0EsP/5Nn8Gh3CR9GXumQvSco88biiqQblmIU4NG+abUwgEpQwnCeOV+brePtiy6h40PnM7K0hEoKlRXvaQCOtAbw+OE+tHmcBZGDHaRmau34wfW6LMB0wztTC3jx6hhiIpNebUzlb0tK5kBA5NCbWdde7aXoyFIgjPgYaTqGmoZLMpsMuKunHQ8OdsNlteK/vT2J/+vl61iJaSWRO1+pOWXpTBkdNli9TpglhWCXyAGB1ls398I05jZvnc0ien0a6/MrFT9dp8+BP/j4aTza66/Jua9maz1/zzjociyJz79xEctxNSWsfRLyIpAJtpmNaVFWXS1OUSRrkxHEbjHhicN98v3rxa6oy0FQDaLgpWsTeOnGpIT2tSyXxWJFa08PjJadbc70NjVq22Ijl86K4v/mfxGQcbTNL85ByLU/TnZfuDCDf/vsZUFil20K4OzvgKO3dTO1UG6zr+eIFBVYBbl0DplYAulwDJlIAtl4Qi1DqiCsopKjGNCXdxDeU+oglFQgkAjq0uwinrt8E7F1NbippzF8KXnj9nZYrdaanFH+VhQZl5dAbvNaGhdbArtYreCx2UoWLx2rdi0PO7h2VxYg0+uro9P48eh0QaXV5i0rfS06BnQQyAjLf29mPrnYi1XXWKr4hRfmhZujttRiDnazBXf2duDBwU7h6B+PJPEzn38T40uMQrCVOWiUySts/FHeaORYoRNgdjlh8eUdAyeFi1Ql2U2XozBdUegwbO+U8DbptSQi52+AKYdyjeDKT9/Zi9//8PHazLKrUaX+mL1nFPT5y2P40c2povSi1W5FqJPsijvb/3baPR56yDjMKILWmO69s7tNiAIddeqPbgeBZhpZCOMrZ68KF4I63NQP7w0EpS50aw6m+sk3uRbF8vy8lHBojeE/gi4SGaYUNj0k8gCIdIaSQ8DpwP39nbKA+xzWpnuVtX5Y9psA5Kf/+k28OcZaVm3SFCxdlG122uA7cwiG0nx+rQ/cxfUC/syQkGkdmbUEUsssnYyWIGe1BxjQ63Pg9z55GuUchNJu0EkYITL44jjC+ROSAFLzxDfbdVucBCpAWlQhrvKL+aY9ma+LrC6LiA2ZOfU6JDK2jRDq5EcGu+F12Gr67S5Mf/DTHVqAXz22vo5XbkzhJ+NzeRKf6g4Cr+Cp2N/SIoyw5VUGd9ipWn5GRH8kIrXuaabAdPxWmzNcdz12C5483I/jnSFYzWpJ4PcmlvEPPv8mUulK5c60WonKyCa4CyaHDRafW1IHKtDQIhTtWvqg+uqu4yXylzBcH7s5g8Tk/GbJN3e8gsOJx2bBn//de3Fft1fzTXTZSX8vtr9ycmUNf/XGRYmmaylK4g+YAqUcNCPqm6lLioQx5KJVPqiuRr2OFRsCXSz1l1p/9WuQ7ZZYvICTa5aeUbT9O+t2EPhia+vr+Ns3L2NqlajhgsmnKGjv7YbVyVyM2vQwTAkic3YGiaiKyNwc8Dl86q5jmF2N4Yejk6D0qxrpNsBrt+BMd7tI6frs3CjyQJl6jYIG3YcLz1+cncFvfP0d9aRS4Tnuo/2wt/rVj14tvN+QvuYHlQy6PFtSNofIxTEBNqq7ciFkyoBhvxN/+PQZ3N2pCZlsPzAZFjs3vYBnL99AiiQkugdyTkofmW6QhaoCR4LmqEaXl/NqnyowUo8TIhuG0YAHB7oE18JQHTkT1YX0oO0HC3z57asyvjZKhgXIvNm2jE4CvYxAW0+/YF52HoTfmXXYn7XwKlZZ4l1DyS2fRq1Ru9mMp+84LEJqdIq16fTs6DJ++b//BFkCcmX/KPdmKqW6jO8c5yJg8Tjh6G6FNeQRDJQqFKSynDSssc4/lUX4netSll1c0aD2W8kZ0Nfhw/f//n3CBtnM5ZGmi6XWwbF1YylcALYG/C0huAOhLekRWosU7qn1ddgc9rpGGQxKDolYXMr9tdS8lF9aTfj5+06i01sfZkXdDgI/EHN9b03O41vnR0rkJ1lpoFJQkhZZFwBMo1UmM1SBBgE/OgWXPnh8UKIIRMAvxuLybIZ5Q24H3FaL6onVAIRp2MDWcWN289JSDJ/+q59gJZqo8AsDWLngPTEIoTpr5uiv9A6a3Gkmi7XLY8KtsLUZcCTgxB996gzOtOvju+e3Y0j49TGGhGdA5kW9ZEgEV7m85EMPlckbq140UwnR8CrWlknZrX9R4xJoMRhxT38HHhnqhmuHmAcdQ+LgkoZZQEE4sY5nL96U0mzdm5rQlZsQ6uiAvUH8G+VemZiY2GoYays8CapXVBcH27wTT4zkOGD5ralkzXhubBn/8PNvIZst4EApOcIK0NBmgclhhdnjlGgBSxSFGyTPVdDMtSg+OlccRSiavgYwkP87Hz+NT5/ogEUI5prXGDn41oURcT43q7EAbzAo+gyFjYcgEvlFecIXdkojvKFWUa8VV6sO6zv5gJZmpjfol9XnK/jQiSHc199Z7M7tMHRRk4PAx5Nrn9UMnHzFBDMqmMzX0gq7wwVlQ/u7/AdMRKNYZWohnRbeA+3lgk47PnJyGAMtPhHb1Oh7mzsU6jfoJPSZyuD3fjiK//qjGwLWK7fJchK6h7tg7wjoX9Tq183yd8qfRpRMDmuXR5FeLVdlojoIjCDc0aHPQdAeRpno18dm8YORccgaprNxcjm8Hkk3lILLsum0hGmFJyObr+nWcV9OWqfFjPcM9eJMT6twnBe3Hc4wHc8+uKS+FuC3XIkl8cLVUVyepZMg266uh1htNgGd8aDT6JZNpRFeXkRijURinAD6olSMhFEHYSDkl3xzl9clUa/CkDKXmRcnV/GLf/2miFuV4xggyNDe7ofJ4YCJ0VimNeuwce3GbqyuWiMvQrz8QYp7zhOHWvE7HzqOXo+tid1VkMooePHamIiGbW7wmmR9e9GmT+2Ehelp5DIaaFYt12/t6RO22Ho0HqyX52Zk/GySOOVwsrMVP33X0Xo8gs5qbZQYnHxLUVUzm0IWpdOOpEnEJNjdnrwhSjZERQGdA+IOCEgpLJsxGhXc26eGdhk9uB0azfvOfBS//s0LOD9HWdYCSM8GIYkB1qAP7kNdMJBQZI811UFgBCGSD9sWfvVNB+GMcKbrb7RNMpPFSyOT6qSr8NNyWzN/6w0G4A2GwFMQf8yUFYW+4pFIzTXJlGumMtr9A53yjuXzdwdOgv6ve+uvnF+LCdvi2EpEZR2v0rQols3hgL+1VeV3aUDj2EqvJwU4SylfITWrkp0uzPdzfznSFsR7jw4g4Cyvdsh3+f5kGL8oGIQyDoLBIAJwzr62PNBwD4xtWRoVJKeXEB+bLYN5UvvIKPJvfeAoPnm0DdTfqVtif5tvTXuSToZA2O9dGdtEkJEO3+NGgER+XIfyLRVPYHFmClmW5sufqaX6rd29daH61hiEWZnFcaQ1pqZb3Q78o0fv3hJR2slQrtlB4EOYTz8/vSjKampZUUnjCc/thMsXhN1h3yDjYa4kFiYrWFgWc7WpGyZzaaxE+Ll7T8BfYdDv5AVv9W/Wszn8yevj+IMfXJew+tamwGi1wnWoG7aQdwcMZo1/QwIW1y6PbxtBYIrhdJsKHqqlqemGDF4amcKrN6fyG7t6Ey3UWmnpIobJE2yBJxCU8URvmnLhtUDReW8ytD1+uB+nmXel4EmtL1HLCx9c2zQLcJ0aW46IhgzTDrU0m9Mp7K1m4UjIL/E1ju2i5+XTdeIcpNYFgZ4mD4qOpu6basUQ0fx397bjPUPd8GwDnq3mIPAk7uhvh7O3HLhcR6caeEk2vo7otUkpua6Em3jycCv+44ePo8vdnCgCvwGduPPTC/jm+RFkNojWyNXiQLCjc1NygDov6XUsTE0ik2ceVs2Vg6+lDd5QqOYDTKm5ZY3KQYQNue5p505+d5vZiH/6+D1w1yFFuiMHgZ1NZbN4ZWQSr43OCLd3uY2PJiXnOVMP5BBnSUaW1Qp5IE7hfHPbzPiF+0+jxc3Q3h7wZuswAfix3pqJ4HNfO4fRpdhWEEuedMQa8MB1qEelI92DTZeD8PQZMIJQKNikbz1Vz04UASOREvN7ZYdTBbsw3OoJhJBOriMei26AWfWYkb+1WywiY820QlHc4PYYgnrMcFtfw9E1shjGV96+jISg+dVWDbDKuev0eoQIR296otwivhGglXJARcbp0swkslT/0d3UwUhg3n3Exwz3CjncdvOrmoPA+0kEYaCjQnWS7s7V7cINYDt5SyYWVCxCxQC3Eb/70ZP42Ts6VXXZuvWi0o1UtcvRxTC+du56QZm6Io4BHYSNtJQCZDNpLExNIJOv+FPvqsBid6Cjv3/XDoLWy/V4AkvTpB4ojEwb8GuP3YUAHchdHnZ27CCIk5DJ4O3JBfx4bArLsXX5UMXrqlokq3pfGxUfRROOA5niN08e7sOxjuCuX6jh40TnAyR8ns3ht793HX/22miFNUYFI7oP98DW6rvl+b+KU0NHBGEnGITC53H6kWXxB9cncWV+SVdIWJt0GzVPOgml1M2BioxOASOe6GipKz2pziFycFkTLKCuRwouzCzi+StjWE2sb6SPCsP25buiwOnzCwiNug27WWyZL2aumCW3jCDodzrUseq22fDgYAfu7G2XGvdqG6IeB8HR0wbXYEfdNqt6fk5GEciLoFY0lH4pFZt2b28Q/8+nzqDD1Zwydz5zIZbAN85dx1QBYJvjglEBjhNtmyb4lA5CWqQJNhvXntbevropQaaTKSxMjQl1vLb3sp+/9tjdIjuwmzErjnStGITSQcCw+XQ4iu9dG8PE8praoQ150K3DuPBT85Xa3E5hqTvU6geFOW6Xxo90dj6KX/rCW5iJlAfc0ExWvwee4/0wmiuXPt5qm1SLIAz6nPj9p0/jgS7fjrsqTqRC3vOkpK4uzS1X1TvYySFfnAMAnV4XnjwygP6gd1Ouece9P/jhXrcAq6CYFiUlMwV4NLHCDSezzJarHmoM4iT4QsEdUzJLGePKyiYfBw9NVXZ4zbHh0SrkcuADx4bQH/LCml8jq439/e4g8Lusz64gen2izNDajKj8L+8/jl+8u6suNf96xjBT6t+5fBMXZxaLIp3E3rX1dMNktso6xgjC/NQEskURBHWNcwf8CLS26/cRK3bMgHQygflJRhA0rAMzGTn86uP37A0HQQInFCCKJ/H66AwuzCwIan87z0WrTBgKeaVEp8fvVcEmt1FjxOd//PZFfOHtSdWzM1AtrfgdDSYzfGeGVErlPEBnL5qgmoNQC1FStfcTEOxaHF8/P4Lx1QiMUsuiMi/sZoRshpQJ4nHifccGMdTig6nGuvNq/T/4+71rgXQ2J6p8jFIlMyndJbAsrfWFWuDyb6X53W6jFiBZLovVlRXEV1eREzEiDbK2/XjW7tvmceC9R/ox1BqoCXSm10FwDnSxgH0PfjRxzxA5ex3pcDzP1VDSTcWA7qALz/7ifQg6rKV/ucsVo7xJpNR/ah7PX7yJVEFYn4s8S/2lAsbuQCadEr2E0lQS38pitaCls1uqGoT4b8c9NSIVj2GxIMUg9zcA/+Sxu+An/u9Wphi2RBOyWcxG4jg7OSc62tF1tb5dEJwyL4ziCLR5XLi7r0M47oke383CvwdHtmz2L04s4+//1VvIyKLA9y+VODbA3tUCz6GuovzRXnwfsIrhyjhSK5Gt3ctTLf/eJ8/g4W5/Xb4lpwzTDV87dxUzYYqDqVRFheOklkmlRa2Yxuj0eqSMttPngsSrdjmB9uT3OuhURQuwlv3lkUn8eHRKTX1WO8rLndT1y9/SLk7CdoO8cFxKVc3CPKKRtR3Mixx6An6h+e7yu2p2ZHU5CL1tcBGDUFshW1NHV2oxjOi1KSiFXA4FWyqrQ3/uoQH8znsPw7KhTKt+s90dKSq/JgGvf/E6dRkIotxMq/OJ5DuwO5xSWZVYiwh/T+kmTfZF0gFQKrrW9acwjSDsk6thUfwsBCl6bFb82hN3wWbaPaZt1ymGQjMWfpLVRBITyxHMrsWwlsrIYuyz29AT8KA34BXAjV5ynKaOyF0+jJvbXCyNn//iO7gwsSxyyOVETIx2K7zH+mCiPPVe36SydBAmkFoKl5lzBnR7rPhPn7wDj/cGNhZCDay4U3NyLM2Go0JMQgVRLbmn5fj0T3/1Spq4w+vGx08fQrvHWZPa3E7f4eB3e9MC8VQa3zg/IpTfghXUOZjINRBo74DdXZmlToB2OUVOkGGWMUYqKdSWtw0rd0wmA7oDXnzkxDBa3Cy1rB2EJw7CFHkQ3ipb5riXqxg2LEOiJuKfrkwizcMJafdpX20RkAsN6HTZ8IdPn8bDvYGqacl6jcjL88v42jvXQC6XTQ4CjQBJPRRvx2vh9Hgk2rAbJVGOMzoHsTDL56nQmVP5MYI+/L0HTqtr8S5P33V1EEqNv+HtbFCVbFKe7rLf9frOdb/PeiaLvz4/i999/irCVEXcrJjNC4KqX43RA1d/OxWn6t6Hut8wRwdhEqnF1bIOQqfHiv/4iTN4b3+hXrvOVXebztL7HllYxfNXx8CaduaDNzug//5mowHDrQG8Z7gXnV7nFhbQ3Ybh6m7vgxs22AIKoutpvHBlTMCLmcJQcZUnm61m+IKtsHsqOwmpREJq00VIp2gzq/5aPDid6mrBQ4PdwnGwm/b8+Ap+6fMkSipgUszfcF84CBIIULC+EEHsxjSUAtKhTbsYYDWb8PP39OJfPDIIv213YFK99qYDRhbYV25MIkYgYv6Qp33uavsbQa8so2U5ba1NW/nIpEipglRys4SXUdLHD/XjsUM9u04vyE61W5Bi5ZcrXsBvx2jBVodIwURkHf/mucv43vWFfM6x1I0ziPCJ50jv/oge5Ccpw3wix7plxTOg1WXFb3/0JJ461KJqaujfu8sOn8Kf00mYXIniv795QUiVDDrZ5rQbM4JzpDWIJ4/2gyydqpNx0N7tFgZVZBkAACAASURBVCChTDiRwrOXbuLy3FIRdW412xCQRiIlu9NV5DBzZK0n4lianVNlxWsI3TMFyRA5NWYoQucUnZndNVWL4U0h6ymdt8JG2t+xJ3kQtqyrmRyiIzNILSyXZYTk9YdbPfiDp07hrk5ysexyAdJp9vV0BmenF4VdMZ5OC16qqG2o8JZzGxTRlQl1d+t8WsllOQXxaASrCwvIFXxfOks/c89x9Ad3DhgvfFIDHYSdvfd+/hVPIt+4Mo9f/9YFOaGUa2TTcvS1wyF19/ulGYS4ZH1+ucyiZ0DIacW//8hJfOxwqCEVAVzMry+s4qvnriEhqODqS6dMSUXBcIsHT506At9tRL61X0bNfujnQjQu2jJMh+Z01tMzfUZRJ4qGEXAm41EYYtewNEvSmtpSAjz1WU1mPDzUgwcGOiX9Wo/2jZFF/Orf0kGQyVB0S0YQyIHg6GmpxY+pR7d2dI/0yhqiVyeFmp9NLZbLo4vystP/5KFB/KtHh2A3E9hcfY3YUUdK92kAVHl8aWQco4urUtmw4Z4I7kwR5WE6ZOFEEjnFACNTJ5IqURDs7ILb46la1bLFaaLc8wyFDqOaMcQmdAw+ceYw/A5bPV6vkRGEuvRvf9wkX7Y0FUnil790FmenVkr2sPyQMRhgdtrgPtIHs6v5qnE7NSYHd3RkCslpevBbCV78Div+7fuP4dMn20uAQjt94tbfUSb6nakFfP/qmLB3UgCldAnYPDcoAoY93dWGJ4/0Sg35QTuwQDkLcLOfWFnDsxdvYJZYFx0bi4qvofaMU4iUmEcmo11kibLim7L1W55X5mDLTcLrtIpU88mOFlEPrVdjqvNffP2c6hxQjCq/KQmmwWiEa7AT9s49pP2yzYsr6SxiI1NYZ5qz/IeE02bGn/2du/FIv79pkUKtBoG4lqVYEuPLq1hYi8sB0WQ0ocXjkO8aXU/hm+evS4XfZiPJklWiCBaLpSoWbYMiIAeElxakdFZz/YhdsZiNeHCwS9JTNvPuAYriiDUuxVCvYb7378N5T0nq//LjcfyHF65uVWzdgNErcPZ3qtGDfVTWqWq1zyIxuVDWQfA6rPiNJ4/gZ093wNYgLgvNxm9PzuHlkSnE1klTW+6UoEhO8mRni5SHOahhv/eH0EEPb6EFWEN+fXEVz1y4iXBBPnf7LqmnQ4LNyBZLAiRVlVb/aOMSQI4D8sAc6wjV8Et9xvqzt6fwb751scyczTsIFIdr80HZB6W+dMhSKzFELozmoyGl4A4VHPrB4x34o4+dgLfJ1XGlSQTSfLNp5IH872cu3sCb4zNF4EVe5fZ6parBROC+bMqFPBl5kHX+rVkZEwuzcmG+WCxRCAcdeOr0ISkC0D8Ktx9LBw6Cvrm27VUcC2cXo/iVv30bkys8hWxyp2/8UAFMTju8pwdh3KIUWIdONPAWDF3Fx+flf1C2RhA8dhv+5WPD+IU7uyW818jG6MFbk3P4wdVxpHOKSrNaUELqsJhwT1+H/M9rZ+SgOfnIRr7zwb0bbwFiXW4uhvGdy6MiL69no1dHFk/mrMja5Dio1lvB6SCHvqAPjw73yD/riY3RRvwfvjqG333+stqdoh3DAIPJKAyu1qAbKBAZqtb3W/r3ioLYzTkkpxbK8yLAAJfVjN996iSePt5et02yPu+sSITqi29fwXIsWfRB6J+5fQHRlBGlxwo4qUw6jejKMuKRtSJODfaPP3viSD/u66MMdn1SVAcRhF19eW15UG/yG89dxl++MQ6VsbvUf1P/23d6CBa/a1P3fSPkt6uONPzHXNASU4uIj86U5W132qz4Zw8O4Fce6IOzTvnTrS+leuQM7jLdML4UwdfOXsNSIiGLNPORHpsFHzo+jOOdIYkiSOAmH1ptuJEOHrDvLZBVcrg0s4jnLlGEbptUQdk31e+IkjCpy+/B03ceQdDpUKnAJKeulcntzpTaafbf/+AG/uSl68WbKU8zFCQzmTYdhH0QQVAnvxq1Cb95DdkkI4h5Off8C8tBIWfAqZ4Avv5z94poUdNbhTIGmp3piLOT8/jyO1clHcA1S7ucDqLb7xcxp01xAnXfoNNA8OvK3CxSSRJ85Xl1NBK5HHC6OyTYAxO/bR1f+iCCsEtjEpTyyuQKfvWL72A1uV4B8GOAtcUPz7FedTOr6yfc5Qvo+Dkd2vU50p5OQxGxreIhyHzXr9zXh889PCChvWY1RhMILltLpuCyWdEX9GxRMKvXotusdzp4zq20gCIidGSE/dHNaSTS1RkGS90CTYG00ltwz2LJ7cdODoOOdWHT72JsbyNt0/mfn7+CP321nA6MAUaLWRwES4CVGLdgI63xM2v4Ca488ckFJMbnKohMGWAzGfHPHz+MX7uvV/79VrRy35J/Rp6C5y7dkChoqQQ5/97utMPjDcKUjzJT3HA9FkdsLYIc117ZQTaPoPyvvqAXP3XmCLzbqHvu1AYHDsJOLZc/nc5EU/iNZy7ihWvzFUqeFRhtNriGu9Vw3j5zDgTcZDRgfSmC6OUJoY4tbZTE/bm7e/Drjw0j0EQHoRwD3AGnwS4G9Lv+p+rSS/Kb18amBeuyKeu7O+PI4m824u7eDgGSqQyy9TzrbfZPcxD+2dfO40vnpsouOVSO9RAs7XPuCweh0PrZWFIqGjKxhFpVRTBHUUmpASfaffhPT53AmXZ3TRTVu/vK1X/Nb7MaT4jezLWFlS3KtVzTCHo1CiskcRVZ0VkoTJXmlb/lvYZbfXjicD/ayO/SgPF04CBU/6YVr6DM9ZcvzeF/f/4KFmPrG+UmpT+wtQbgHOoUr31fNgOQXolh7fIYlDIobaPBiE/d0YV/9+QRhBzNiyDsS1sedHrPWqDwZMa69hevTuDNiRmQR2l3i68Cj92Ke/s6cW9fB+wNWgfEMcgL5bG/n/n8m3h5hPn6rSY32qzwHO2D2eOoip7fcx+MJaWMIkzMV5Sqdlis+NWHBvCP7++Fx7q31l1KM09Hovje1TGMkp22ysZeGAXlp8yxgsZkxLH2EN4z3CNqyI1qBw7CDi3Lj7QQTeNfPXMZL1ybQ64MeI+3NtkscB/phdnH6MH+bZloApELeQdhy7sa8IGjbfgPHzqODjcJXhpzMtq/1jvo+X60AFNYr1yfwmvj0yAKvbZxrWFmIIv5B48P4XhHCI4GOQeF9tWSmO/5s9cxMrWSzyAUB71NDjs8x3thcjCCUFoRsPe/lpLKiD5MOkxQ+Nb+cwU63ObFn/30GQwEGnO63o2VOJ6WYgm8dH0SF2YXtsh7aiso36zwy4kapN2CR4Z6cawjAK/NVhfGxErvcuAg7OAra6Ht50aW8EtffKdESKTwhgY4ulvhGurc04IoVU2gALn1FMLnqM+eBQSxXdAU4KHBFvz+UyfR67XlEdn1yqhW7d3BBQcW2JUFinRDCoYt53kik8UzF0ZwcXZRp7DTZld4KwLl/sEDJ9Hq9aig2bIMHrvqvvy4dLbxv+/6k5cwv5QocAAYtlarkEwuJzxHe4XVdT82wUXNryByeaKilA3PMf/00WH85qNDKsPrHmNRVfcRA14ZmcSL18fFCVWzJcUHLKYbWCVDIr6hkB8fP3MIAYe9ANRaOGirBiRq+twHDkJVc23d6Phdb4YT+Oznf4KJpViFCJFBogeek4P7dhKqKw8R1jkoqSzCF24iG0+VdRBOtvvwx0+fxnDQtZ8oHqp+/YML3iUWqODPctGejUTxwpVxjC5HKjr6W8CKBqDb7xaOg8GQX4zYzLjabGQdT/y3HyLC+brx4DwhiwKYfS54jvTAKKXA+63lXa10VtKe6VWuweWiIAYhnvrLz96LR3rrW0paL4vRSWDPZ8JRofyeCa8hmspu6GeYTWY4rCa0uBw43BpAf8gPu8aXUKkTdTybHTgINX5pftBYOov/9XvX8Revj0n4Tq1MKFwCSKOZg3u4B/auUI1P2KOXZ3OIXBxFWpQVt07GVq8Df/7pO3GqzVPXmu49ao2Dbr2LLJClkxCO4rnLo5jckDzX2M/U3bcIWW4w4HCbH+8Z6hEFUbJ6NrNxjfrJ7Br+7v/3OhKCfC9pCmAJeuE53APDHsvP12qnTDiK8LmbFTQaDCCA5KHhVvyXT5xCq6txwNBa+13uelbQUI48nsogkc6IX8dybZfVApvFBCvBi02Oghw4CDV9WbXe/oWxZXzuK+cQjlNFq4Ln6nHCd2pwQ61R6MJzPI3vv3yfugIqosuenFsqG6qz2Sz4y0/fhQf7/Pnq3JoMe3DxgQX2tAXoE4+vhPGtCzdA/QbiETiTjWVY7050hPDo4V60ulQO/mY39vWb1xfwuS+8jZTQ8m1dcwicdg13wlAnSt5mv6P2PJo3OjKN5PRSRSEnh9kkWjGfPdVxS77HTmyzUaGlUx9kJ8/Q85sDB0GPlTauURBJ5fDPv3kB37k0m3cNtk4+o8UCz/E+WLxOKApDDPvUKSiwDZfD+MQiYjenhYVt66JjFAaznzvTKTnB2gBdNX2Eg4sPLNAEC5TEaYnDATCxEsFX37mGleS6nPDkf8LkqcYRHh7uxYMDXXAKxXcdY701vDH78p9fHcXvv3ANWfFgStYfBarc/ADl5uvHuldDF+t3qaIgt57G2sUxZOKJgvsW5+Xv6Q3ijz5xCoN+R/2e3YA77TXelgMHoYaPnM7l8OdvT4veQlSY1gonXj7kaDDA3h6Ac6ATxnyuqIZH7NFLCfDJYX1hDZGLN8s4CCoP+q88NITfevJQHhC0R1/loFsHFtiBBSSJyHJHgwHz0Ti+e+kGJlajMBAJR2VEqxkPDfbirt62AgdZWx8k1rCDp+7sJyzL/KfPXcZX3xjP4w9KHASDAc7+dgFQV0T47ezRt+RX1MBITi0iMbmoErmpvlqxFLfBgH/00BB+/ZFBkI5du4T/bH6M55aYaUcPPXAQdJqNTvj5hSh+85lL+MkkVbS2euUcaUa7He7hLlj87vzk2//RA81E2fg6Vn5yOR+mK56BXCdP9wbwzZ+/FxaTdrbSadyDyw4ssI8sQGeBsuNMNTBfbDYaEXTZ4Xfa9wQpT2Q9g1/5ylm8dL0MBwJD1lRyHO6CrY3gydtge1QUCHnStTx5UrmxpACHWz34Dx85jgd6mqf2uI+GddmuHjgIOr4gF4RMDvjDH43ij394Q4AkW5s60eydIbgGOjawBzpuv08uIeAnh5U3riC3nieFKuy5AhCH8MN//Ag6PAdcCPvkox5087axgHYQMWAsnMSvfuEtvL0QLSOuZhCxOPfRHlh9rn1H+17xc+UUJGeWEBudyZ/dth7MLCYjfu6uPvzW+w7DYtx7ZY97cSgeOAg6vgodhJsrCXzmr97EdJhKb+WjAianA94TAzDa///2vgS6kuo886t6+ybpaWu19qX3bhoaDLTBwNDsYMeOx2A8MPYZPEnITMaxwQfHHhsndsjYZvAxiX0mCd6wE+KTGGOPTZNkMDYG3GC6wd30qpZarX2Xnt6it1bVnP9Wvae3Sk+yJNTv/fecPt1q1atX9dW9f333X76/BNUENeoAB9FuNTo1l8czKUFNqHjqw1fg+jbvBZMMVMTj50MYgQsKgcOjfnzimWPonSMp4tzuq2a3E25SUXRYSocg0BNSNb3SyhcQ9ik3N1OC22HFU3fvw2WbK43WbyXgQVnD2ckEYQlwKWkkEFNw+z8fQe/AbOEXnyTDvaUJ9gZvgYZNa/gU1+PURBBkIDI2i2D3YJ7ESwlaQsN913Thi/+ha93LcdYDAv4ORmCjI0C6DT/tmcLnDp7Q5d/zDGt1JTw7WvUeBiU24r4gAqf6dQnmPNUbZM8311TguXsvQ73LyhuZJZ4/E4QlAIoqKv7+yCAeee4kZJHckr+s0eJ1o2JHG1DC8Xdi5YlQBP63+qDG41nI6fVee1qq8YM7L4bXsbFrjkvMLvLtMAICAVJ+fPKNYXz1pV4EqSVyNgeQZDgaa3R11wu57LrQ8zbKsaMTM4WjEXENH79hG/50fxuoBJJHYQSYICwyO4gKHB8P4BPPnsDJMX+qEUr2R2SrFe7tLbBUukp7rpHql6IicOI84gHSQM8akoRKmxXf+9CluKyBBZNKezLw3W1EBOaiCTz2Sh+ePDyAeJ7GapIkw0Wezs3efNGHjXhLy74mSlikPg3KfKTAZyV01Ljxldt34qpmCocu+yvK5gNMEBZ51AlVxf9+pQ9/d+i8aAGbb9CCc7Y3GIqJpaF5UBASIgiqhvnzY4iMTac5U9K8KpqETx3Yho/tbxe7F157ZWNL+EbfZgSogdx4IIZP/dspPN89kdfbKZvN8Oxqh6WSNFre5gteo68nmxMZn0Ho3Kjok5Oej0D/VlVJVFrdubcRnzuwHZV2E+u2FKJSWkqyaY2e1gV6Wlo7b4768cDPTqB7IlBQ69tS6YZ7azNkm7kkaoqXfFyqJpqkhM6PGa2fhUTkwr1rGi5ursb3P3AJaijGt4YNapa8Vj6AESgjBEj/4PRUEB99+hj6p8lmZd68JEuQbTah8Coklkt466zF4gj2DCM24zdAyBWtslss+MtbduCuixpgpgQrHjkIsAchGxJjHkUSCv7m1+fx+Cu9ostWXu+ByQRXB9UTVwJymUwwqjkOhhHoHoQaiebdhVjMJtx3ZTse2N8Ot81s2Km3R1WO1zwjUC4IkJn6lxMjePDZk1CUrI6rBAKVItdVwbWtBUQWSnpoQGzSh+C5EWMjo/OhDFOuAZe31+Cv370brRV2TljMMyGYIOQBhV5lQ3MR3P+TY3hzcEbP9s0QTdR/ppwDygaW1qHH+0ZazFpCQahnGNEpX3abmtTPjRV2/PFVHXj/rgZ4S7HscyM9EL6WskeAzNN8TME9P3wTr/VRv5QsSMhkJVR4drTBtsmbJpBUonEGuv2EggB5EabmjHCnqrdSTjEFCQ6rGZ+9cRs+cnGzoYBZ9lMpAwAmCHkJgoZ/65nCn/70OALhWK7bhRabJKNyTycsFS6dlZZAv4XlLI34tB+Bs4MgspDXuwIJNW4bbtm+CQ9e1YFNHhvnIywHYD6WEVgGAtRx8ulT43jwx8ehiK4RmtEjYoEpSCYTqi7drodDy2DQnSuRGPzJNvUFWkLvbq7CT//TZbCZKBehNMQlV+vxMkHIQjLZLON/vnAW33mV2ogavrms46gbGjVk0hTDdV5WBIHCKRoCp88jNukvTI4kCSZJxoEtdXjsjl2odlhE9ztmCqu1fPk8jIDQB0K3L4x7fvA6Rmcpc39BVVFPAtKbSTk218K9tUnkDGllsgjJWRCd9CPY3a9v5HLCxRKgaPjye/fg3ouaBKliA7Wwqpgg5CEINEVuffJ1HB/25X35ERP37OyApcpZnvZJkyHJGuJzIfhP9kNLZGsipMMiwWqScPclLfjE1Z2GOEl5wsZ3zQisBgLJVxj9HU0oODoWwCMv9uJwP4UWkp0lM79JtphRsacLZrcdZZOXTuEEIkuqAv/pQcRnkwmLmdiQHkRngwfP3fsOVHA4NAMcJgjZBAHAeV8E1z3xayREz4XcpkxmjxMVe9pBREEP9hkTcTVW/wVxDuN+NU10UJvvHyvoaUmyceqg9qFLW/Dxq9pR49CrG3gwAozAyhAgqxRXNPzf7gl8/eVzODsZ0C0V7YCTJiu1GZZgq62Ea2uznpxYwtULmWjqVobabpM8PCnAUpl2rtidBKcs4xt37sPNndWcrJgGIhOEPAThqeOj+OQzx0TvgexBE4zapLq7GqCtYwvXlZmRNf4UuetUFaG+cUQnZ4WIUqE+FbRMq1w2fPb6rfjQ3kZj4a7x9fHpGYESRED3HKh4tncKj/7yLAamSbQs3a+QftMSyHtAyonW2grRmrr8hoRU2SN5EfJUpVlkE/7o6k58Yn8b7BYjF6H8gMq5YyYIOQRBw0efPYnn3hiEbJZy55IGuLe1wt5Qpcf2yn0vrGlQ4wm9H/vojCAMhUiCBAnNXie+d+c+bK11CWZP/8eDEWAEikcgoWp4+sw4vvCv3ZiNRBcaMtGLL0/5AvVecG1pFESh7JabgQnZmvCYD/N9o4BKiedyhm2XJRk376jHX928A5tcnFCdnI1MELLWpaJouObJ19A3PJfrQdA0scg8O9thLnVZ5SLtlSQRiVKFWy48OCEElAqFXCg+qiZk1G324NWPXAGHRWaCUCTOfFj5IiASpw1ZUvr3G6N+3P+j32IkGBFcXEQUiJdnc21Ng8nhEOFQ2W5bxLtXwtimCILeRyZ4ZgCJvBLMEnY3evG1O3ZiF21eyiYMs/izZ4KQhg8ttOn5OG749iFMUqvUnAUHmFzU0rkVJruVvQdZc4vWVJg8CYOTeZo5GQdLEmQF+PQtO3DfviZullLCtplvbXURIHLQOxvG53/ejRd7J6CKeHr2SOZDSTA7bXB2NMLi9ZQnOciARoMWSyB4dhgxXzBvG+zWKhcevWM3rm6t4m60SXPNUssLs4iW24A/gtueOARfNFf/gI4U0srbW2Cympkg5BgnfTsTGZnG/MC40EHPOzTgHW3V+Mptu7C92slsfXXfI3y2kkRAgz+q4Mu/6sU/vDGAuMj3KTAkCdYqDxyt9TB7HFy2l4RJ5EtRH5kZgyDoeRtGJSgqHDY8cutOvH9XPXs2mSDkLi6aLufnIrj9iUPwx2N5ZYQpnke1xJLFwqw8n33SJGhKAuGBCUTGpoys4awDNcDjsOIzB7bhnr2bYS4XmeqSfHHxTa0HAuQ9eP7cND713CmM+ecLMQNRpWCpqYSrtR4mp61kGzKtDHMNkeFp0cRJ9w5nemBIIv4vbtqBj+xrLrtUjYJckz0ImR6Enpl5vIcIAiXbUROi9MQfDbDWVMG9rRGy2cQehEVWqRqOInh2EHF/uACRknDT1np86bYdaHBTUhAnK67M6PGnSh2BpHjbvT/8LX7RPQFKjRYjW9NHyL8bHk4bezjzzQuSXQ6c7terOci+p4EoySZ88pou/Pf9baLbI9skqpotG9WMpc1I0oNwxzcPwReLGwQzjWVqgLnKDQ+HGIoAU0VkdEZkDetTLEsrghrH2Cx44vcvxoHOao75LY0oH1GGCOjifxpe7p/F3U8dXtRrSYmIVRd3QabwZwm3WPhdpkHcF4T/rXN6cz2RXJ1W9agBf7C/Aw9d2wUnJ1ALmJkgpM02WlOTwRhu+ParmA7Szjd7SDC5HajYQUmKFvYgLLFS1Wgc/hPnoIRieRUpicD/8dWd+PR1nbCIMAN7EX4X48efLT0EyCZNhKK465+O4OyYX28cl+M6AEw2K1xbW2D1Gr1hSg+KVbmjxFwIc8d6ANmUN1Hxvis78GfXdsIltBDYHjFByJp2JF167Xd/g4Exf66miAbIVis8u1pBaoo88iOQ8hWQDvrYLILdQwUJwmUdNfiH/3gxKu3UFpoXJM8pRiAdAfIE/ODUGB565jgUKb/GCB3jamuAo6WujFQSVzZPBEE42gOQCq4IMSSHbns+emU7PnVtF1zsQWAPQr4pRoz9rmeO4qXjo5BNelOizCEJoSRbfeXKZmgZfYrESch4zR4+AzW9KkS0XNVFXZoqnHjqg/vQWeOESWgqUBc6JgplNE34VhdBwB9N4HM/78YPj45A06gqiNZH0i1ObnIN5ko3PNta9C6NvHYWnU/x2QD8xynEkE4QjC2NJONjV3Xg41d3wGZmjRYCkj0IWdOJSou/9cYgHj54ArKJXnGZg6SWnc11cHVshsaLcXHjTsJSJhmBM4N6aVHOe1+C02rGN++8BNe2eUFLkgcjwAgkEdDQPRsWbeePDs8ZrCDZS0D0nIdkluHqbIJtUxXDloFA0pZkWvDYhA+BM/1GDkL67ySYZBmfvn4L/vDyNphk9mcyQcizpChDuGdqHjd86xASCTXXNU6MvcKNij0dBoGQxI6Xcz3zgalBkmUhnhTqG8nbatVkkvC19+3F+7dt4s0Pm3hGIA0BskW/7JvBQwdPYNiXLdxGLzcZZrcD7m3NMDntjN1SCFBzucFJzA8km8slP6B7EOwWM/7ylp340N7NHO40oGEPQraHgKaKquH6776Gs6P+XIIgSZBMMip2tImKBh5LIaAhPhNE4MwANFE6msnoiVx99qaduP8dLeJE7ENYCk/+fXkgoPd5+cejI/jC82cQzCfcJsmw1VWJRkySOU9nufIAqsi71KAlVIR6RxGd8uUmKGpAnduOL922C7dsrQH1ZuDBIYacOZCUPfjcC2fxrdf68nb+oteYraYCnt3t+YWAeGbpL3vygqoqEv4w/Kf6oSX0GGpqiOpHCQ8d2I6P72/Lk5vNQDIC5YmASJ/TgMdf7cNjL/ZATTVBS6vLk2U42zfD0VjLzLqIaULaLIEzw0gESWgqS4lSA7rqPHjsjt24vKmCPQjsQSg8oxKGatnHfnzcYO5Gl7T03S+pAe5qE33WueZ4kdWpqYjPhYU4SQ5BMHwGf3bjNnzsinYhAMORvyIsHR9S0ggkVUPmYwk88osefOeNwaz8AyLW5DHQULGzDZZqSphm4YO8kyLZrEkCYtN+BHuGoZLGTfogrzAkXNVWg8fu2IXWSg7XJOHhEEOeWUX5BNST4f6fvIWjg7MZ7Hwhg1iCyWGFm0INLp5QhSw2hQwi4z4Ee4cA0Vwm05DJsowvvXsP7tlDcT8ejAAjQGuEqPJcOI4/f74b/3xsSBf+Sy0d2rDoLvDKvV1ccl3MlEn1YZjO6xU2ySbcdXETHr5+KypEyTUP4QVmJcX8EyGcUPB/XhvA117qRSLl3ss6VpJh3+SFs3UTJKuZZ1QeBEgbPtQzgvDIVN6SUbvFhL/9wCW4saOaqxh4BjECBgJEBqbCcTz8/87gJ8eHjU1Kmhop7XolCZUXb4GJNyhLzBsNCV8Ige7BXO+B+KQMm6zh87ftwb17G2Dm/IMUnkwQCkwtilCdngzhoedO4Y2hmeSyzTlaMpthb6iGs6VOqtOoOwAAEbhJREFUJC8S8+ehIyDMmarB92Y3lPlo3jLHOrcN3//gZdhT72K5ZZ44jECapZkLxwwPQpIgpMEjXmIaKi/qgrmCRdsKThxiWqqKwNkRxKZmCxwmodplw08/fAXavQ624OnTjD0IhW2Somp48rfD+NIL3Qhmx60WOJZ48Tk218LV2aC7AUUcQgaE8ln5DoIhMjKDQM+QIX6UGyfd3lSFf7lzH6qdFvYglO9U4TvPg0AkruKvXuzBN1/vhwQ1M9fJ0GDxbGuGtc7L+OVDgETXzCbRfp5yDzKUE1ONriSoCvDf3tWJz163RbRo4LGAAHsQsmZDUs8gqeY3FIjiwYMn8FLvdFrmq+7qkyRSCiRVQD2z2FbvhaO5Dia7VfcmlHnekDIfFo1R1Fgir8IbKZ1++Io2fPHG7bCkhEmyW9TxcmUEygyBtCXw9df78ZUXziKhUAVQ1pAkOJrq4KAQp+jRwCMDAQ1I+EMInB6AGk8shDizOvTWVznx8/uuRDXZbYYxA0ImCEusKfIiHBry4f6nj2F6PrL4BJIkIVhi31QNW30VZIupjEhCerdGCVo8gVD/GKLjM/lLRUk/3m7B4++5CLdsrYOJFyZbd0Yg6/2m4UcnxvHwv5/GbDia2XqejpQkWKrccG9phmyzlDl66fZHE7nQ8dmgEGhTItSZN78312qS8T+u2YoH3tnO5CDPDGKCUMSyIkL/9IkxfOGFM5gKRAuUFC10WSPvgdVbAWu9F5YKpyFikq6hXsSXXpCHULGQCk3REB6bRXhwAloiq6RI3JdezHjz9k145JYd2Oy2cdzvgnzefNFriQDZncPDc3jg2RPonQrm0RCh5nEWuLqaYK2uKHMthDSCoCqIzYQQHppAIhTO2qAYOhLUC0aTsLfZi79+925sqXZyDhQThJUv50hCwd8fGcLfvNyLUDTfSy/H/wfZYoGl0iV00i1VLlGaJBoYlerrUIRUVIQHphAenSqge0B2TkKNy4Y/v2k73rezXmig82AEGIFcBEaCUTx08CR+0TsFLXsXbIQ2LZVuuEWzpjQvQrIhWhmBSnCoMUUQg+ikTw9tJsuqsyOXGlDlsOEzN2zFXXsaYBXdHQ2w2JuZmjXsQShmARmTizqrPfrrPjz5mwEjJkgs1BBRynIO6mvXmGkaYK2thKuzESa7RVdfpNQFPZOhmCu4II6hvI1Q35hYoPrdpbn10haoLJtwoKsOX75tJxpc6XE/zj+4IB40X+S6IECrQVFVPPpqP77xyx5okp6HsGBXdD0EyptyNNbA3dVk5ESVX/ITbbwSwQgC3UNQQvO5OU8LAjYCQ7Nswn+5sh0PX9clGjPxyI8AE4RlzAziAv54An93ZAj/dKQf43ORNLde1sstm8HTWjab9NBDtVs0WZFsVshmUkApRgctPca2jItej0MVFYnAvGjKFJsJUFlxAYlqw3vgtOHL792NW9trIPPiXI8nxN9xgSJAVuX0VAh3/+MRTAazGzYt3JQkm+Bsb4Btk1ckSJfNINsTjCA67UNsYhaqkHPPtpWZPxPBOrCtHg8f2IZtNc4S2qKt/lNngrBMTImtB2IKXuyfwROHzuPwECktZibo6a/7/C90UR1hMgtPApEEQRYq3CKh0dgeGF6FxSf5Mi97dQ83bo9uRQnHRBlRbNYPJRIrTAyMK3BZLfhft+/Be7bVwip6rvNgBBiBxRCgROnvHxvBZw6eNFzm+T0EkskkCIKzpV5PkL7gV9eCj3XhjvUuluS5jc8FRSghPheCSmHfAomI6dgSOdjfVo0v3rwdO2rdMPMGZdHFxwRhBbaJpihFCU5PBvDNw4M4eHocgXBs+UlC1M/dYhJSzZSNbKlwweS0if/TW0jrO25QQs3ij3HdtNj1BkwQC5K0zWmB6s1P8l2jsZiN37lsFvzRlR144OoOUSLKfRdWMPn4I2WHAG1KYoqG//rjt/CLs+NQF6mfFiShtgqOllrIdltJYCU2EckeVYqCuD+M6NQc4r6ATgyK7ENhNsm4rqMWn79xOzq9lJRYEvCs6U0wQVgxvJqIsAejCn45MIvHftWL7hGf4d5L00go+vySqGWW7VZYKj2weD2wVjogWXQJZ5G3kDffgX5LLsW1EmXSFduEk0R4DKKIjvsQnZw1yoeS11XoRvVdACUifvjyNjx4VTu8DtI6N05YND58ICNQvgioUHFo0I8/+dlbGJ8lQr7Y0MutXW2bYK3xXFCeBH1jZGw2jM0R/R8lHEan/IhOzECZj0BTkvZuCVubspkSbtxRj4ev24rOalJtFVbVAJGZQkHrzUqKv5vRSU4xfySBRw+dx78eG8Z0LIFYIr6QTFTwK/KEEWiBKIp4fco2q/AsWKs9MLmdkKnnu/iFsfemt/ZqKntkCIgYL37xlwYlFEZ0cg7RCR80hYSPdOJQzPDYrbh3Xws++a4O2C0UVuAFWQxufAwjkI5AOKHiO0cG8fhLvQjkKLsu5EAJLx9tGlQFtoZaOJtrRa8Y8i5s5KGL02n6y59skaZCiSZSdkeJxoyNStKdsPQLXpJleG1m3LmvGZ+8ugNOs3lVTeZGxnM1ro09CKuBosjJ06BowJGRORw8O4lX+2ZwciIgqh1W9g7XX6LkORCeBYtZdI+UHTaYrFbINjNkWvQWM2STSQ9LULmgUBzSP5tccIvdolhiScKeUERpohpXhOtOjcaExyARiuisXSQApU5fFHLtXjc+uK8Z9+zdjBoHK5UVBRofxAjkQYBszGw4jm8dGcS3X+/HHAkApRZkNllPknANJocN1upK4ZUUydGUGL2BRtI+EjGgPCbq26KEoogHQ0gEw0J0Lfc+l6h40oAKhwWXNXvx+3sacdvWWjjJRm6g+74QLoUJwio/JYoEBGIJDPjC+M2QH999cwA9owF9w53h1lr+F6c0FGQiA3pIgnYFRASIIBCJoJ0C6S9QkhJVTRCB0GVYM5eGpqrihU+Lj9x31CNdicahxePQEjqLF380xWDzyyMG5Cd4V2ct/uSdHbhkcwVcVl6cy3/i/AlGIBMBIgnU5ZE8CV994SxkSxGePLIPsixsgdlph7WuSlRT0WfpfOnaLBku/rUA3+AxSWlosbGajwjVw7g/BDUSFbLIWkKFppInla6u0EiKz6XZNuGB1dBa48IfXNGGm7bUosljF6WMTA6W/0CZICwfs6I+QR4yahM9Gori+Z5p/OjEGI6P+RET4h3Jly3F0Yqctll1vKmL0P2J+jBCBGKRJw8QbWFzL1kP8y2EEcS/xbmSYY/ClRjZZ0tdmlAqASqdFrxvbxP+8NIWtFY5WEa5qBnDBzECxSFAKzMcV4Qn4RuHzsNPCdLCY0i9YfKcI8N2SCJEKYiCl3Kd3DDZKTGaNhKZRUhJK1KwGiIVklw8Byr59XQ+Na4KAiBIgX9eJDir4Vhar4R8FWEL97SgL5PnRjWg2mPH7+3ajPv2NaGl0sGVUsVNqYJHMUH4HQFc7OML723dNXhsah7PHB/Fy+emMB2IIJ6xmouL5xd3uemMoNB5izmmuG9LMh6HLGNPew0eeGcb9jdXgXTOjUBJ8URoOV/JxzICZYoArWqqbHjm1Bgef+kcBmZDQqO1uJF8CRueBasZZpdDhB/oj2y36OFLClkaZqLwTn4hlEHsRK9y0vQ/iipClSJsEIqKcKUSiQiPpQhXplII8l93qhneojcliS6wdR4bbt25CXdd1IjdtU5YyGOysthucRCWyVFMEFbrQS8REhPiiSK3RsP52TB+fGYCr/ROYdAXhi+qYD4Wh2ooLC6Z/FewmmG1bqbI82iAbJLhdVjQVePGXXsb8YFdDbAYMc4ifSNFfhkfxggwAtkIkEbCK0M+fP3lc3hzbA6hVF7CcrDSk/5IylkiOXiTLEokqSstyTdLZiIMsi7qJhKjDeKgqvrPlDsQ0/OXtERCVDdRyFKLxaBSqICSDkU+tZFUnayVzvGKZnsvC98DnctptaDBZcGlrV7850uacUmDBzJdv6FSS58WIRQmCsuZDBnHMkFYMXQr+2CSK9PCHgvF0DMzjzMTQaGpcHI8gDMzIcTCRm0v5Q6kFtESDGRll7Nwer05nBjpjo3MNZyZONnqdeLKVi/2t3jF360VdhYeWeFz4I8xAitBQI8UajjnC+Ng9yQOnhrH8bE5IdFccBTcYBgv6Hz5jmkvWSIR+tca35GR6Wx8q1GRUNw9pYcVCtg5Eb7UQyh1FXa8o7kKlzd7cWlzJfbWu2En9UgKpxb3hXxUkQgwQSgSqLU6jJZYLKEgHFfhj8YFaXixZwY/65nAOaqCiCqQzOQKpCtIdiLLuppV4g7k0tMXfr5lJonkRYojbmmqwr17m3BNuxf1LivcVgusdI3GZTFrX6vZwudlBPIjkMxLGPaH8b23RvHUbwYwH1MgUWWjYPzpL+GNiWLeNCvKpxLhCg01Xifu3rMZt2+vR3OlHRVWM+ykxsoegjV7oEwQ1gza5Z2YXqpCW9CodIgreijiV8M+/HrQh8GJEMYCYVHapIrqAiMQQS/1tERF/SVPTLtYLr0Qj9RtiHFiQ6TEZJJB8shNXgcubfHi9q5aXNFcAaeZpFyT7jtm7st72nw0I7A2CJDKIlmAo2N+fPW1Abx+bspQeU3LFRBf/fYSBt1kJfUM0rBIsgQNMJkkVNmt2Nnoxa3b6/DerbWodlqNuuxkVkSxdm5t8C71szJB2IBPWF/ienUC/YvCEb5IHBPzMYyEYuifCqFvLoyhuQimg1H4QzEE4wmxY4goKuIalQgJX8Di6QxibUmQZRk2GXBYTPDYzPC6bKj32NFa7cBF9R50VjvR7LGhxmmFKFZMJS5tQPD4khiBMkYg5SvQgHBCwbGJIJ4/O4WX+qbQPRVENKOK6u0GKjOkQaWPlTYLmqsc2NHgwVWt1dizyYO2CodeJs12Z90fGBOEdYd8+V+oS4+mZd4YpyDiEIgmMOqPYjQcw0Qwgsn5OOZiChLRBMKROCIJFfFEbjySEpSpN4LTbobNakGt04R6twPNHivaKh3w2i26zkIqbGDkJy3/8vkTjAAjsB4IZIUak6kB5FXo84Xx733TONo/jVMz85gKxhCMJJBQDfGz9bg+Y89Cf1EXV6vZLF78tS4rmtx2dNU5saepClc2VqCRtAuSnlHu27JeTyfne5ggvG3Qr/yLU9VBSRFE4SigUIP+H7TkiVQQMYirmvBAZIccZEkTNcI2yliWyItgNIcyeAidKqnSwE68lT8r/iQjsBEQSIYwp+djGAhEcH5mHt3TIZweDeDMbAgjc2HEybtAoUWjWEFcd058PxXbTOtiS8ECWbdBqT4Khs0xjJVkkmC1mdHotqPDa0dnrRutFQ5s9tjRXGVHndOCWgflMiVVHnWrw7bn7Z09TBDeXvz52xkBRoARWFcEiPjTpkHRNFFaHVNUjAdjODw8h18N+fDGkA+j/jCUSAIq6cdTvJL2H6KVA73xqSeM0dZVlBFqUBL6JkP0iTFJMNnNqKlw4KI6N3bXu3FVUxW6ap2oMJtAXRVJ2ZC4BLVbpgIEIiaca7iu06CoL2OCUBRMG/sgvX6ZuPbK+bbunVylcoiNDRdfHSPACAgENNG2nlZ+siox6Z30RxOYDEYxMh/HDHVSjCUQjCaEZzIYVRHTVFTZTML7SB+uclrgoVClRRa5SrUemyg9NKclDix4JXU7s3JrxY9vvRBggrBeSPP3MAKMACOwgRHIkD9I+yEV0jQqrEQYwiiJTt5OMoRp5D2LUENK8j1/ClWqGmEDQ1L2l8YEoeynAAPACDACjMDaI8D6KGuP8Wp/AxOE1UaUz8cIMAKMACPACJQAAkwQSuAh8i0wAowAI8AIMAKrjQAThNVGlM/HCDACjAAjwAiUAAJMEErgIfItMAKMACPACDACq40AE4TVRpTPxwgwAowAI8AIlAACTBBK4CHyLTACjAAjwAgwAquNABOE1UaUz8cIMAKMACPACJQAAkwQSuAh8i0wAowAI8AIMAKrjQAThNVGlM/HCDACjAAjwAiUAAJMEErgIfItMAKMACPACDACq43A/wf2x0r/aeJEVgAAAABJRU5ErkJggg==;" vertex="1" parent="7">
                    <mxGeometry x="590" y="90" width="161.7" height="146.15" as="geometry"/>
                </mxCell>
                <mxCell id="12" value="Number 2:" style="text;html=1;align=center;verticalAlign=middle;resizable=0;points=[];autosize=1;strokeColor=none;fillColor=none;fontSize=21;fontColor=#000000;" vertex="1" parent="7">
                    <mxGeometry y="190" width="120" height="40" as="geometry"/>
                </mxCell>
                <mxCell id="11" value="Number 1:" style="text;html=1;align=center;verticalAlign=middle;resizable=0;points=[];autosize=1;strokeColor=none;fillColor=none;fontSize=21;fontColor=#000000;" vertex="1" parent="7">
                    <mxGeometry y="150" width="120" height="40" as="geometry"/>
                </mxCell>
                <mxCell id="13" value="" style="rounded=1;whiteSpace=wrap;html=1;fontSize=21;fillColor=#eeeeee;strokeColor=#36393d;" vertex="1" parent="7">
                    <mxGeometry x="120" y="155" width="140" height="30" as="geometry"/>
                </mxCell>
                <mxCell id="14" value="" style="rounded=1;whiteSpace=wrap;html=1;fontSize=21;fillColor=#eeeeee;strokeColor=#36393d;" vertex="1" parent="7">
                    <mxGeometry x="120" y="195" width="140" height="30" as="geometry"/>
                </mxCell>
                <mxCell id="16" value="Calculate" style="rounded=1;whiteSpace=wrap;html=1;fontSize=21;fillColor=#eeeeee;strokeColor=#36393d;fontColor=#000000;" vertex="1" parent="7">
                    <mxGeometry x="10" y="236.15" width="120" height="33.85" as="geometry"/>
                </mxCell>
                <mxCell id="17" value="Number 1 x Number 2 = answer" style="text;html=1;align=center;verticalAlign=middle;resizable=0;points=[];autosize=1;strokeColor=none;fillColor=none;fontSize=21;fontColor=#000000;" vertex="1" parent="7">
                    <mxGeometry y="300" width="330" height="40" as="geometry"/>
                </mxCell>
            </root>
        </mxGraphModel>
    </diagram>
</mxfile>